<svg width="157" height="68" viewBox="0 0 157 68" fill="none" xmlns="http://www.w3.org/2000/svg">
<rect width="135" height="68" rx="9" fill="#4B6BD5"/>
<path d="M15.6048 36.8617H11.0869L10.3626 39H7.27591L11.6559 26.8946H15.0703L19.4503 39H16.3291L15.6048 36.8617ZM14.8461 34.5855L13.3459 30.1537L11.8629 34.5855H14.8461ZM25.6117 31.8264H24.0253V39H21.0765V31.8264H20.0074V29.3777H21.0765V29.1018C21.0765 27.9177 21.4156 27.021 22.0939 26.4117C22.7722 25.791 23.7666 25.4806 25.0772 25.4806C25.2956 25.4806 25.4565 25.4863 25.56 25.4978V27.9982C24.9967 27.9637 24.6001 28.0442 24.3701 28.2396C24.1402 28.4351 24.0253 28.7857 24.0253 29.2915V29.3777H25.6117V31.8264ZM29.9461 26.2393V39H26.9973V26.2393H29.9461ZM31.4967 34.1716C31.4967 33.183 31.6807 32.315 32.0485 31.5678C32.4279 30.8205 32.9395 30.2457 33.5833 29.8433C34.227 29.441 34.9456 29.2398 35.7388 29.2398C36.4171 29.2398 37.0091 29.3777 37.5149 29.6537C38.0323 29.9296 38.4289 30.2917 38.7048 30.74V29.3777H41.6535V39H38.7048V37.6377C38.4174 38.0861 38.015 38.4482 37.4977 38.7241C36.9919 39 36.3998 39.138 35.7215 39.138C34.9398 39.138 34.227 38.9368 33.5833 38.5344C32.9395 38.1205 32.4279 37.54 32.0485 36.7927C31.6807 36.034 31.4967 35.1603 31.4967 34.1716ZM38.7048 34.1889C38.7048 33.4531 38.4979 32.8726 38.084 32.4472C37.6816 32.0219 37.1873 31.8092 36.601 31.8092C36.0147 31.8092 35.5146 32.0219 35.1007 32.4472C34.6984 32.8611 34.4972 33.4359 34.4972 34.1716C34.4972 34.9074 34.6984 35.4937 35.1007 35.9305C35.5146 36.3559 36.0147 36.5686 36.601 36.5686C37.1873 36.5686 37.6816 36.3559 38.084 35.9305C38.4979 35.5052 38.7048 34.9246 38.7048 34.1889ZM39.8774 25.7047C39.8774 26.6474 39.6072 27.3774 39.0669 27.8947C38.5266 28.4121 37.8138 28.6707 36.9286 28.6707C36.0434 28.6707 35.3307 28.4121 34.7904 27.8947C34.2615 27.3659 33.9971 26.6302 33.9971 25.6875V25.3598H35.4629C35.4629 25.7392 35.5721 26.0266 35.7905 26.2221C36.0089 26.4175 36.3883 26.5152 36.9286 26.5152C37.469 26.5152 37.8483 26.4175 38.0667 26.2221C38.2852 26.0266 38.3944 25.7392 38.3944 25.3598H39.8774V25.7047ZM53.3041 29.2743C54.4308 29.2743 55.3275 29.6422 55.9942 30.3779C56.6725 31.1022 57.0116 32.1023 57.0116 33.3784V39H54.0801V33.775C54.0801 33.1312 53.9134 32.6311 53.58 32.2748C53.2467 31.9184 52.7983 31.7402 52.235 31.7402C51.6717 31.7402 51.2233 31.9184 50.89 32.2748C50.5566 32.6311 50.3899 33.1312 50.3899 33.775V39H47.4411V29.3777H50.3899V30.6538C50.6888 30.2285 51.0911 29.8951 51.597 29.6537C52.1028 29.4007 52.6719 29.2743 53.3041 29.2743ZM63.4408 39.138C62.4981 39.138 61.6474 38.9368 60.8886 38.5344C60.1414 38.132 59.5493 37.5572 59.1125 36.81C58.6871 36.0627 58.4744 35.189 58.4744 34.1889C58.4744 33.2002 58.6929 32.3322 59.1297 31.585C59.5666 30.8263 60.1644 30.2457 60.9231 29.8433C61.6819 29.441 62.5326 29.2398 63.4752 29.2398C64.4179 29.2398 65.2686 29.441 66.0274 29.8433C66.7861 30.2457 67.3839 30.8263 67.8208 31.585C68.2576 32.3322 68.4761 33.2002 68.4761 34.1889C68.4761 35.1775 68.2519 36.0512 67.8035 36.81C67.3667 37.5572 66.7631 38.132 65.9929 38.5344C65.2342 38.9368 64.3834 39.138 63.4408 39.138ZM63.4408 36.5858C64.0041 36.5858 64.4812 36.3789 64.872 35.965C65.2744 35.5512 65.4756 34.9591 65.4756 34.1889C65.4756 33.4186 65.2801 32.8266 64.8893 32.4127C64.5099 31.9989 64.0386 31.7919 63.4752 31.7919C62.9004 31.7919 62.4234 31.9989 62.044 32.4127C61.6646 32.8151 61.4749 33.4071 61.4749 34.1889C61.4749 34.9591 61.6589 35.5512 62.0267 35.965C62.4061 36.3789 62.8774 36.5858 63.4408 36.5858ZM79.542 29.3777V39H76.5932V37.6894C76.2943 38.1148 75.8862 38.4597 75.3689 38.7241C74.8631 38.977 74.2997 39.1035 73.679 39.1035C72.9432 39.1035 72.2937 38.9425 71.7304 38.6206C71.1671 38.2872 70.7302 37.8102 70.4198 37.1894C70.1094 36.5686 69.9542 35.8386 69.9542 34.9993V29.3777H72.8857V34.6027C72.8857 35.2465 73.0524 35.7466 73.3858 36.103C73.7192 36.4594 74.1675 36.6375 74.7309 36.6375C75.3057 36.6375 75.7598 36.4594 76.0931 36.103C76.4265 35.7466 76.5932 35.2465 76.5932 34.6027V29.3777H79.542ZM87.023 36.4996V39H85.5227C84.4536 39 83.6201 38.7413 83.0223 38.224C82.4245 37.6952 82.1256 36.8387 82.1256 35.6546V31.8264H80.953V29.3777H82.1256V27.0325H85.0744V29.3777H87.0057V31.8264H85.0744V35.6891C85.0744 35.9765 85.1434 36.1834 85.2813 36.3099C85.4193 36.4364 85.6492 36.4996 85.9711 36.4996H87.023ZM88.0792 34.1716C88.0792 33.183 88.2631 32.315 88.631 31.5678C89.0104 30.8205 89.522 30.2457 90.1658 29.8433C90.8095 29.441 91.528 29.2398 92.3213 29.2398C92.9995 29.2398 93.5916 29.3777 94.0974 29.6537C94.6148 29.9296 95.0114 30.2917 95.2873 30.74V29.3777H98.236V39H95.2873V37.6377C94.9999 38.0861 94.5975 38.4482 94.0802 38.7241C93.5744 39 92.9823 39.138 92.304 39.138C91.5223 39.138 90.8095 38.9368 90.1658 38.5344C89.522 38.1205 89.0104 37.54 88.631 36.7927C88.2631 36.034 88.0792 35.1603 88.0792 34.1716ZM95.2873 34.1889C95.2873 33.4531 95.0803 32.8726 94.6665 32.4472C94.2641 32.0219 93.7698 31.8092 93.1835 31.8092C92.5972 31.8092 92.0971 32.0219 91.6832 32.4472C91.2809 32.8611 91.0797 33.4359 91.0797 34.1716C91.0797 34.9074 91.2809 35.4937 91.6832 35.9305C92.0971 36.3559 92.5972 36.5686 93.1835 36.5686C93.7698 36.5686 94.2641 36.3559 94.6665 35.9305C95.0803 35.5052 95.2873 34.9246 95.2873 34.1889ZM96.4599 25.7047C96.4599 26.6474 96.1897 27.3774 95.6494 27.8947C95.1091 28.4121 94.3963 28.6707 93.5111 28.6707C92.6259 28.6707 91.9132 28.4121 91.3728 27.8947C90.844 27.3659 90.5796 26.6302 90.5796 25.6875V25.3598H92.0454C92.0454 25.7392 92.1546 26.0266 92.373 26.2221C92.5914 26.4175 92.9708 26.5152 93.5111 26.5152C94.0514 26.5152 94.4308 26.4175 94.6492 26.2221C94.8677 26.0266 94.9769 25.7392 94.9769 25.3598H96.4599V25.7047ZM105.732 36.4996V39H104.232C103.163 39 102.329 38.7413 101.732 38.224C101.134 37.6952 100.835 36.8387 100.835 35.6546V31.8264H99.6623V29.3777H100.835V27.0325H103.784V29.3777H105.715V31.8264H103.784V35.6891C103.784 35.9765 103.853 36.1834 103.991 36.3099C104.129 36.4364 104.358 36.4996 104.68 36.4996H105.732ZM103.973 39.6898C104.203 40.3795 104.318 41.0578 104.318 41.7246C104.318 42.5293 104.111 43.1673 103.697 43.6387C103.295 44.11 102.697 44.3457 101.904 44.3457V43.2248C102.502 43.2248 102.801 42.8455 102.801 42.0867V41.8108H101.714V39.6898H103.973ZM108.858 28.3776C108.34 28.3776 107.915 28.2281 107.582 27.9292C107.26 27.6188 107.099 27.2395 107.099 26.7911C107.099 26.3313 107.26 25.9519 107.582 25.653C107.915 25.3426 108.34 25.1874 108.858 25.1874C109.364 25.1874 109.777 25.3426 110.099 25.653C110.433 25.9519 110.599 26.3313 110.599 26.7911C110.599 27.2395 110.433 27.6188 110.099 27.9292C109.777 28.2281 109.364 28.3776 108.858 28.3776ZM110.324 29.3777V39H107.375V29.3777H110.324ZM115.409 26.2393V39H112.46V26.2393H115.409ZM126.617 34.0337C126.617 34.3096 126.599 34.597 126.565 34.8959H119.891C119.937 35.4937 120.127 35.9535 120.46 36.2754C120.805 36.5858 121.225 36.741 121.719 36.741C122.455 36.741 122.967 36.4306 123.254 35.8098H126.392C126.231 36.4421 125.938 37.0112 125.513 37.517C125.099 38.0228 124.576 38.4194 123.944 38.7068C123.311 38.9943 122.604 39.138 121.823 39.138C120.88 39.138 120.041 38.9368 119.305 38.5344C118.569 38.132 117.994 37.5572 117.581 36.81C117.167 36.0627 116.96 35.189 116.96 34.1889C116.96 33.1887 117.161 32.315 117.563 31.5678C117.977 30.8205 118.552 30.2457 119.288 29.8433C120.024 29.441 120.869 29.2398 121.823 29.2398C122.754 29.2398 123.582 29.4352 124.306 29.8261C125.03 30.217 125.593 30.7745 125.996 31.4988C126.41 32.223 126.617 33.068 126.617 34.0337ZM123.599 33.2577C123.599 32.7519 123.426 32.3495 123.082 32.0506C122.737 31.7517 122.306 31.6022 121.788 31.6022C121.294 31.6022 120.874 31.7459 120.529 32.0333C120.196 32.3208 119.989 32.7289 119.909 33.2577H123.599Z" fill="white"/>
</svg>
