<svg width="45" height="45" viewBox="0 0 45 45" fill="none" xmlns="http://www.w3.org/2000/svg">
<path fill-rule="evenodd" clip-rule="evenodd" d="M2.81194 22.4997C2.81194 22.8726 2.9601 23.2303 3.22382 23.4941C3.48755 23.7578 3.84523 23.9059 4.21819 23.9059L37.386 23.9059L28.5351 32.7541C28.4043 32.8848 28.3006 33.04 28.2298 33.2109C28.1591 33.3817 28.1227 33.5648 28.1227 33.7497C28.1227 33.9346 28.1591 34.1177 28.2298 34.2885C28.3006 34.4593 28.4043 34.6146 28.5351 34.7453C28.6658 34.8761 28.821 34.9798 28.9919 35.0505C29.1627 35.1213 29.3458 35.1577 29.5307 35.1577C29.7156 35.1577 29.8987 35.1213 30.0695 35.0505C30.2403 34.9798 30.3956 34.8761 30.5263 34.7453L41.7763 23.4953C41.9073 23.3647 42.0112 23.2095 42.0821 23.0387C42.153 22.8678 42.1895 22.6847 42.1895 22.4997C42.1895 22.3147 42.153 22.1316 42.0821 21.9607C42.0112 21.7899 41.9073 21.6347 41.7763 21.5041L30.5263 10.2541C30.3956 10.1233 30.2404 10.0196 30.0695 9.94884C29.8987 9.87808 29.7156 9.84166 29.5307 9.84166C29.3458 9.84166 29.1627 9.87808 28.9919 9.94884C28.821 10.0196 28.6658 10.1233 28.5351 10.2541C28.4043 10.3848 28.3006 10.54 28.2298 10.7109C28.1591 10.8817 28.1227 11.0648 28.1227 11.2497C28.1227 11.4346 28.1591 11.6177 28.2298 11.7885C28.3006 11.9593 28.4043 12.1146 28.5351 12.2453L37.386 21.0934L4.21819 21.0934C3.84524 21.0934 3.48755 21.2416 3.22382 21.5053C2.9601 21.769 2.81194 22.1267 2.81194 22.4997Z" fill="black"/>
</svg>
