<svg width="262" height="568" viewBox="0 0 262 568" fill="none" xmlns="http://www.w3.org/2000/svg">
<path fill-rule="evenodd" clip-rule="evenodd" d="M333.6 50.7435C377.045 62.2775 419.07 83.1963 447.898 116.391C475.233 147.866 486.329 189.294 488.867 229.527C491.083 264.666 474.077 296.482 461.32 329.187C450.223 357.637 436.974 383.993 418.901 408.904C398.536 436.973 379.017 465.652 348.85 484.21C312.915 506.315 272.958 529.223 229.712 525.283C185.407 521.246 148.485 491.197 114.892 462.892C80.9758 434.315 44.1086 403.015 35.0128 361.234C26.0808 320.204 47.8908 279.964 66.9917 242.86C83.0951 211.578 116.522 193.57 136.371 164.344C161.197 127.788 158.723 72.6273 197.949 50.0339C236.813 27.6489 289.021 38.9086 333.6 50.7435Z" fill="#5A64C5"/>
</svg>
