<svg width="283" height="523" viewBox="0 0 283 523" fill="none" xmlns="http://www.w3.org/2000/svg">
<path fill-rule="evenodd" clip-rule="evenodd" d="M260.735 249.811C262.603 283.918 246.899 319.18 222.363 342.945C199.682 364.912 155.33 349.153 134.067 372.494C103.277 406.292 125.877 483.686 82.1096 496.903C42.9601 508.726 24.3263 441.984 -6.30176 414.884C-27.3912 396.225 -46.6262 377.207 -70.338 362.018C-111.19 335.85 -174.769 337.113 -195.893 293.439C-215.249 253.419 -190.504 202.516 -165.146 166.002C-141.146 131.444 -94.8731 123.56 -60.786 98.8946C-26.374 73.9945 -5.66313 15.3326 36.5491 20.0584C82.2911 25.1794 92.3703 91.3189 128.317 120.066C153.042 139.838 189.768 138.514 212.381 160.671C236.945 184.738 258.855 215.473 260.735 249.811Z" fill="#F9B466"/>
</svg>
