<svg width="368" height="392" viewBox="0 0 368 392" fill="none" xmlns="http://www.w3.org/2000/svg">
<path fill-rule="evenodd" clip-rule="evenodd" d="M414.9 168.283C396.456 190.622 388.695 218.326 373.806 243.176C351.492 280.417 348.086 344.258 305.245 351.293C262.52 358.31 240.473 297.179 206.217 270.698C182.515 252.375 149.411 245.166 134.413 219.232C119.864 194.077 135.779 161.578 127.071 133.853C116.202 99.2503 70.9541 74.5532 77.7816 38.9316C84.2591 5.1355 134.02 1.24581 157.338 -24.0604C186.021 -55.1891 190.569 -109.466 229.604 -125.836C267.93 -141.909 314.56 -126.095 350.377 -105.016C384.295 -85.0534 394.446 -41.9372 421.201 -13.0732C450.42 18.4501 516.304 29.4269 514.811 72.3835C513.18 119.318 444.799 132.067 414.9 168.283Z" fill="#92B2C7"/>
</svg>
