<svg width="319" height="352" viewBox="0 0 319 352" fill="none" xmlns="http://www.w3.org/2000/svg">
<path fill-rule="evenodd" clip-rule="evenodd" d="M448.752 217.075C453.986 246.858 443.897 279.508 424.833 302.981C407.211 324.679 366.566 315.498 350.334 338.255C326.83 371.206 354.847 436.854 317.768 453.082C284.601 467.598 261.192 410.895 231.416 390.301C210.913 376.12 192.003 361.43 169.56 350.577C130.896 331.878 75.1434 339.685 51.9755 303.521C30.7459 270.383 47.1355 223.033 65.5789 188.266C83.0347 155.362 122.877 143.558 150.242 118.287C177.867 92.7754 189.893 39.0306 227.495 38.7383C268.241 38.4216 284.067 95.496 318.692 116.978C342.507 131.753 374.65 126.721 396.86 143.815C420.987 162.383 443.482 187.09 448.752 217.075Z" fill="#3B909F"/>
</svg>
