<svg width="476" height="281" viewBox="0 0 476 281" fill="none" xmlns="http://www.w3.org/2000/svg">
<path fill-rule="evenodd" clip-rule="evenodd" d="M321.822 -312.907C365.593 -311.131 408.696 -286.782 436.042 -252.559C461.319 -220.925 435.79 -166.225 462.995 -136.232C502.388 -92.8017 603.948 -112.214 615.484 -54.7256C625.802 -3.30344 538.323 12.3444 499.991 48.14C473.596 72.7877 446.971 95.0242 424.688 123.443C386.298 172.404 380.155 253.727 321.822 275.367C268.37 295.197 206.403 257.396 162.881 220.569C121.689 185.714 117.268 125.679 89.9375 79.1533C62.3463 32.184 -10.0179 -1.41193 1.16427 -54.7256C13.2815 -112.497 98.9477 -117.297 140.032 -159.683C168.29 -188.835 171.08 -235.883 202.124 -262.05C235.846 -290.473 277.756 -314.695 321.822 -312.907Z" fill="#3B909F"/>
</svg>
