<svg width="785" height="954" viewBox="0 0 785 954" fill="none" xmlns="http://www.w3.org/2000/svg">
<path fill-rule="evenodd" clip-rule="evenodd" d="M981.498 439.311C1008.25 496.253 1076.7 529.651 1089.41 591.267C1102.17 653.164 1077.24 717.11 1050.61 774.425C1025.51 828.449 979.135 867 940.297 912.171C899.81 959.261 866.043 1011.14 815.757 1047.58C757.163 1090.04 695.627 1142.36 623.268 1141.91C551.06 1141.46 493.126 1084.37 432.475 1045.18C373.66 1007.18 292.918 981.15 271.352 914.529C248.496 843.921 331.88 773.705 320.84 700.316C309.659 625.99 195.538 580.907 210.071 507.163C223.849 437.253 335.85 439.438 382.814 385.851C432.207 329.493 422.57 227.116 487.816 190.254C550.806 154.668 629.442 200.206 701.576 205.764C774.162 211.357 860.628 176.649 916.529 223.288C974.999 272.071 949.119 370.39 981.498 439.311Z" fill="#193F63"/>
<g clip-path="url(#clip0)">
<path d="M696.127 461.201H517.246C471.365 464.255 471.566 514.805 471.566 514.805V756.36H650.672V514.802C650.672 514.802 651.522 464.084 696.127 461.201Z" fill="#E8913A"/>
<path d="M461.152 517.856H459.086V703.772H461.152V517.856Z" fill="#FFC155"/>
<path d="M665.586 432.856H556.326V372.324H665.586V432.856ZM558.393 430.79H663.519V374.391H558.393V430.79Z" fill="#FFC155"/>
<path d="M461.152 495.99H351.893V419.85H461.152V495.99ZM353.959 493.924H459.086V421.916H353.959V493.924Z" fill="#FFC155"/>
<path d="M770.744 617.388H661.484V556.629H770.744V617.388ZM663.551 615.322H768.678V558.696H663.551V615.322Z" fill="#FFC155"/>
<path d="M688.979 457.92C644.372 460.803 643.524 511.524 643.524 511.524V753.079H464.416V511.524C464.416 511.524 464.212 460.973 510.096 457.92H688.979Z" fill="url(#paint0_linear)"/>
<path d="M610.957 521.023H487.936V531.879H610.957V521.023Z" fill="#FFDC94"/>
<path d="M592.98 546.128H487.936V553.818H592.98V546.128Z" fill="#FFDC94"/>
<path d="M540.739 566.428H487.936V577.849H540.739V566.428Z" fill="#FFDC94"/>
<path d="M610.956 566.428H556.342V577.849H610.956V566.428Z" fill="#FFDC94"/>
<path d="M572.06 588.424H487.936V596.566H572.06V588.424Z" fill="#FFDC94"/>
<path d="M582.718 608.777H487.936V613.301H582.718V608.777Z" fill="#FFDC94"/>
<path d="M601.912 629.134H487.936V633.657H601.912V629.134Z" fill="#FFDC94"/>
<path d="M541.125 674.758H487.547V649.104H541.125V674.758ZM488.322 673.983H540.351V649.879H488.322V673.983Z" fill="#FFDC94"/>
<path d="M601.911 649.491H553.969V655.371H601.911V649.491Z" fill="#FFDC94"/>
<path d="M587.95 661.93H553.969V667.809H587.95V661.93Z" fill="#FFDC94"/>
<path d="M590.436 690.201H487.936V694.725H590.436V690.201Z" fill="#FFDC94"/>
<path d="M541.927 710.558H487.936V715.081H541.927V710.558Z" fill="#FFDC94"/>
<path d="M689.652 594.088L684.37 585.439C683.936 584.728 684.16 583.804 684.868 583.37C685.578 582.936 686.503 583.16 686.937 583.868L690.672 589.985L700.601 584.108C701.316 583.685 702.239 583.922 702.662 584.638C703.086 585.354 702.848 586.276 702.133 586.7L689.652 594.088Z" fill="#FFCA55"/>
<path d="M693.198 607.421C682.724 607.421 674.203 598.899 674.203 588.424C674.203 577.948 682.724 569.426 693.198 569.426C703.672 569.426 712.193 577.948 712.193 588.424C712.196 598.899 703.675 607.421 693.198 607.421ZM693.198 572.138C684.22 572.138 676.915 579.444 676.915 588.424C676.915 597.403 684.22 604.709 693.198 604.709C702.177 604.709 709.481 597.403 709.481 588.424C709.481 579.444 702.177 572.138 693.198 572.138Z" fill="#FFCA55"/>
<path d="M602.138 396.256L602.507 404.241L605.676 404.094L605.054 390.699L591.377 391.335L591.524 394.504L599.792 394.12L585.217 410.118L570.052 396.302L567.916 398.648L585.426 414.603L602.138 396.256Z" fill="#FFCA55"/>
<path d="M391.371 447.819C391.061 447.473 390.606 447.101 390.004 446.703C389.402 446.305 388.705 445.923 387.915 445.558C387.122 445.194 386.254 444.882 385.306 444.618C384.358 444.357 383.387 444.189 382.387 444.117L382.353 454.82L383.335 455.029C385.195 455.483 386.874 455.99 388.369 456.545C389.867 457.101 391.13 457.777 392.164 458.573C393.194 459.369 393.992 460.345 394.558 461.503C395.124 462.66 395.403 464.065 395.397 465.719C395.392 467.545 395.059 469.105 394.4 470.394C393.742 471.686 392.833 472.761 391.675 473.616C390.518 474.473 389.172 475.117 387.636 475.54C386.101 475.967 384.453 476.194 382.697 476.222L382.679 481.65L379.99 481.642L380.008 476.109C377.528 475.928 375.168 475.429 372.931 474.613C370.694 473.797 368.646 472.66 366.791 471.206L369.444 466.251C369.821 466.667 370.371 467.116 371.094 467.599C371.817 468.085 372.66 468.552 373.623 469.005C374.586 469.457 375.645 469.857 376.797 470.203C377.949 470.552 379.148 470.797 380.388 470.939L380.424 460.237C380.217 460.167 380.003 460.105 379.778 460.053C379.553 460.002 379.339 459.94 379.132 459.87C377.306 459.382 375.715 458.868 374.357 458.33C372.995 457.793 371.869 457.142 370.978 456.38C370.084 455.62 369.408 454.729 368.945 453.711C368.483 452.693 368.256 451.459 368.258 450.012C368.263 448.323 368.56 446.824 369.152 445.517C369.741 444.21 370.572 443.084 371.644 442.138C372.716 441.195 373.967 440.456 375.4 439.927C376.831 439.397 378.409 439.066 380.135 438.935L380.153 433.714L382.842 433.722L382.824 438.942C385.063 439.087 387.129 439.542 389.023 440.306C390.916 441.071 392.585 441.991 394.028 443.063L391.371 447.819ZM374.307 449.108C374.302 450.555 374.809 451.642 375.821 452.371C376.834 453.096 378.376 453.74 380.442 454.298L380.476 444.112C378.373 444.207 376.821 444.696 375.818 445.569C374.816 446.447 374.313 447.625 374.307 449.108ZM389.191 466.32C389.196 464.804 388.596 463.655 387.393 462.877C386.189 462.097 384.502 461.394 382.333 460.766L382.299 471.004C384.505 470.978 386.205 470.57 387.395 469.78C388.589 468.992 389.188 467.839 389.191 466.32Z" fill="#FFCA55"/>
<path d="M450.675 441.526H407.764V447.633H450.675V441.526Z" fill="#DED4CE"/>
<path d="M441.492 454.866H407.764V460.973H441.492V454.866Z" fill="#DED4CE"/>
<path d="M445.607 468.207H407.764V474.314H445.607V468.207Z" fill="#DED4CE"/>
<path d="M750.732 577.284H720.072V583.391H750.732V577.284Z" fill="#DED4CE"/>
<path d="M754.475 590.628H720.072V596.735H754.475V590.628Z" fill="#DED4CE"/>
<path d="M653.925 386.194H614.914V392.301H653.925V386.194Z" fill="#DED4CE"/>
<path d="M645.574 399.537H614.914V405.644H645.574V399.537Z" fill="#DED4CE"/>
<path d="M649.317 412.878H614.914V418.985H649.317V412.878Z" fill="#DED4CE"/>
<path d="M690.011 657.76H656.863V655.693H687.944V618.731H690.011V657.76Z" fill="#DED4CE"/>
<path d="M531.029 454.298H528.963V443.546H600.878V435.979H602.944V445.613H531.029V454.298Z" fill="#DED4CE"/>
<path d="M450.675 581.147H412.951V499.763H415.018V579.081H450.675V581.147Z" fill="#DED4CE"/>
<path d="M656.888 548.109H654.822V523.513C654.793 523.105 652.172 475.926 691.975 469.06L692.327 471.095C654.334 477.647 656.855 522.986 656.886 523.444L656.888 548.109Z" fill="#FFC155"/>
<path d="M776.002 595.375H773.936V553.662H729.176V551.596H776.002V595.375Z" fill="#FFC155"/>
<path d="M388.571 502.199H346.07V462.149H348.137V500.132H388.571V502.199Z" fill="#FFC155"/>
<path d="M553.457 399.537H551.391V368H604.132V370.067H553.457V399.537Z" fill="#FFC155"/>
<path d="M657.898 763.469H619.213V761.402H655.832V702.725H657.898V763.469Z" fill="#FFC155"/>
<path d="M628.28 722.481H594.596V688.789H628.283V722.481H628.28ZM597.695 719.381H625.183V691.889H597.695V719.381Z" fill="#FFDC94"/>
<path d="M611.969 712.627L600.139 701.475L603.683 697.714L612.204 705.748L630.801 690.468L634.079 694.459L611.969 712.627Z" fill="#FFDC94"/>
<path opacity="0.24" d="M601.21 625.503C575.938 581.976 520.164 567.177 476.635 592.459C472.265 594.996 468.189 597.841 464.418 600.948V621.852C469.865 615.454 476.473 609.863 484.154 605.397C520.533 584.268 567.148 596.637 588.274 633.02C594.76 644.188 598.084 656.322 598.531 668.386C598.565 669.329 598.585 670.266 598.585 671.209C598.585 697.469 584.996 723.02 560.654 737.156C528.292 755.945 487.825 748.236 464.418 720.688V741.612C469.92 746.159 475.904 749.993 482.212 753.08H562.599C564.48 752.157 566.332 751.16 568.168 750.093C611.691 724.818 626.486 669.037 601.21 625.503Z" fill="#3F444F"/>
<path d="M322.038 840.996L435.18 746.694L419.15 727.457L306.008 821.758L322.038 840.996Z" fill="#FF7E55"/>
<path d="M433.245 744.376L439.289 739.339L427.122 724.737L421.078 729.775L433.245 744.376Z" fill="#E66947"/>
<path d="M420.011 717.048C445.285 760.579 501.059 775.374 544.585 750.096C588.111 724.816 602.903 669.037 577.629 625.505C552.352 581.974 496.581 567.179 453.055 592.457C409.529 617.735 394.737 673.516 420.011 717.048ZM432.952 709.53C421.742 690.223 419.962 668.029 426.2 648.293C431.714 630.842 443.498 615.314 460.569 605.399C496.947 584.27 543.562 596.639 564.686 633.02C571.169 644.188 574.498 656.322 574.948 668.383C575.96 695.619 562.281 722.506 537.071 737.151C500.693 758.28 454.078 745.914 432.952 709.53Z" fill="#494F5C"/>
<path opacity="0.3" d="M426.199 648.293C426.199 648.293 505.525 588.053 574.947 668.384C574.5 656.319 571.171 644.188 564.685 633.02C543.559 596.64 496.947 584.273 460.568 605.4C443.497 615.314 431.714 630.843 426.199 648.293Z" fill="#C2C2C2"/>
<path d="M634.041 707.207C634.041 707.207 632.326 707.861 631.008 707.99C629.691 708.119 627.777 709.498 627.291 710.098C626.803 710.697 622.815 714.983 622.745 715.528C622.676 716.076 623.766 715.892 624.132 715.461C624.499 715.027 627.978 711.578 627.978 711.578C627.978 711.578 624.073 715.926 624.099 716.435C624.125 716.944 624.711 717.38 625.432 716.931C625.432 716.931 626.008 718.111 627.023 717.088L629.056 715.058C629.056 715.058 628.195 716.295 629.324 715.941C629.923 715.753 631.936 713.193 632.499 712.813C633.062 712.433 635.216 709.155 635.216 709.155L634.041 707.207Z" fill="#EEA886"/>
<path d="M647.917 791.432C647.917 791.432 646.432 794.402 645.533 794.986C644.634 795.573 639.592 800.478 638.556 800.928C637.52 801.377 634.191 802.008 634.235 803.584C634.279 805.159 642.831 804.663 644.497 804.08C646.163 803.496 648.953 799.714 650.076 799.758C651.202 799.802 650.797 804.395 650.797 804.395H652.013C652.013 804.395 653.542 799.533 653.499 797.823C653.455 796.113 652.509 791.432 652.509 791.432H647.917Z" fill="#162D40"/>
<path d="M668.76 789.584C668.76 789.584 668.107 792.524 667.032 793.552C665.958 794.58 661.934 798.92 660.911 799.388C659.89 799.855 657.93 800.181 657.323 800.927C656.716 801.674 657.078 803.867 660.911 803.635C664.744 803.402 665.994 803.436 666.903 802.666C667.812 801.896 670.754 799.235 671.63 799.166V803.402H672.681C672.681 803.402 674.536 797.835 673.872 795.489C673.206 793.144 673.242 789.959 673.242 789.959L668.76 789.584Z" fill="#162D40"/>
<path d="M667.24 663.62C667.24 663.62 668.989 668.123 667.628 671.6C667.628 671.6 674.036 671.194 674.279 670.466C674.522 669.737 674.021 662.992 674.904 660.998C675.785 659.006 667.24 663.62 667.24 663.62Z" fill="#EEA886"/>
<path d="M678.845 723.986C678.845 723.986 678.473 724.967 678.53 725.693C678.574 726.267 678.256 727.207 678.134 727.713C678.013 728.22 677.726 730.462 677.799 731.012C677.827 731.237 678.558 732.542 678.566 733.007C678.574 733.472 678.473 734.42 678.881 734.394C679.286 734.368 679.612 733.539 679.612 733.539C679.612 733.539 679.645 733.962 680.007 734.048C680.712 734.216 681.012 733.869 681.012 733.869C681.012 733.869 681.33 734.275 681.642 734.27C682.332 734.262 682.611 733.919 682.611 733.919C682.611 733.919 682.946 734.112 683.406 734.004C683.993 733.864 684.15 733.293 684.15 733.293C684.15 733.293 684.922 733.286 685.077 732.885C685.232 732.485 685.132 732.113 685.165 731.772C685.199 731.431 684.636 728.54 683.311 726.657C681.986 724.774 682.652 722.407 682.652 722.407L678.845 723.986Z" fill="#EEA886"/>
<path d="M676.832 739.794L676.037 734.314C675.908 733.431 676.522 732.609 677.406 732.483L686.095 731.222C686.978 731.093 687.8 731.708 687.926 732.591L688.722 738.071C688.851 738.954 688.236 739.776 687.353 739.902L678.664 741.163C677.783 741.289 676.959 740.677 676.832 739.794ZM677.561 733.555C677.271 733.596 677.067 733.868 677.111 734.157L677.907 739.636C677.948 739.925 678.219 740.129 678.509 740.086L687.198 738.825C687.487 738.784 687.691 738.512 687.647 738.223L686.852 732.744C686.81 732.454 686.539 732.25 686.25 732.294L677.561 733.555Z" fill="#0E1E2B"/>
<path d="M670.248 763.426L702.324 758.774L698.938 735.416L666.861 740.068L670.248 763.426Z" fill="#EDDAD3"/>
<path d="M679.457 733.291C679.457 733.291 678.946 730.7 679.522 730C680.098 729.3 680.336 730.225 680.336 730.225C680.336 730.225 680.085 729.316 680.798 729.031C681.511 728.747 681.73 729.845 681.73 729.845C681.73 729.845 681.728 729.101 682.526 729.083C683.321 729.065 683.296 730.018 683.296 730.018C683.296 730.018 683.879 728.962 684.504 729.721C685.561 731.002 685.075 732.888 685.075 732.888C685.075 732.888 684.915 733.333 684.148 733.296C684.148 733.296 683.83 734.412 682.609 733.924C682.609 733.924 681.591 734.8 681.01 733.875C681.007 733.872 679.871 734.74 679.457 733.291Z" fill="#DB9C7C"/>
<path d="M666.62 670.078C666.62 670.078 662.833 671.39 661.121 671.755C659.408 672.119 655.828 673.77 656.12 679.985C656.412 686.2 657.479 691.592 657.869 694.263C658.256 696.934 658.014 703.733 657.383 707.035C657.383 707.035 666.463 709.27 677.146 707.035C677.146 707.035 675.252 701.401 675.301 699.946C675.351 698.489 681.614 686.495 681.903 684.601C682.195 682.708 683.458 674.356 680.591 672.509C677.727 670.664 675.397 670.907 674.183 670.081C672.969 669.251 668.392 669.486 666.62 670.078Z" fill="#EB4747"/>
<path d="M661.755 671.599C661.755 671.599 657.576 671.485 654.614 678.039C651.651 684.593 650.922 688.432 650.243 689.354C649.564 690.276 647.185 693.87 644.852 695.618C642.523 697.367 632.818 707.215 632.818 707.215L635.481 710.625C635.481 710.625 649.466 700.718 650.922 699.018C652.379 697.318 661.226 684.451 661.755 682.508C662.285 680.565 666.374 673.609 661.755 671.599Z" fill="#EB4747"/>
<path d="M686.829 704.167C686.855 706.789 684.133 724.684 684.133 724.684L678.987 724.903C678.987 724.903 680.638 707.154 681.222 703.074C681.395 701.871 681.248 700 680.958 697.962V697.96C680.775 696.665 680.532 695.301 680.274 693.999C679.563 690.403 678.745 687.267 678.745 687.267C678.745 687.267 674.108 671.989 681.232 673.111C681.232 673.111 683.696 676.05 684.497 680.638C685.298 685.226 686.098 692.075 685.954 694.769C685.812 697.466 686.811 702.237 686.829 704.167Z" fill="#EB4747"/>
<path d="M657.383 707.032C657.383 707.032 655.732 710.935 655.588 711.922C655.443 712.909 650.267 725.795 649.908 729.564C649.544 733.377 648.451 743.55 648.064 745.007C647.676 746.464 648.937 752.971 649.133 754.428C649.327 755.885 649.231 779.68 647.482 791.432C647.482 791.432 651.561 793.18 654.668 791.432C654.668 791.432 659.816 773.075 659.524 762.488C659.232 751.902 657.889 747.435 659.532 743.162C661.175 738.889 670.789 726.068 671.76 724.71C672.731 723.351 678.814 715.836 673.054 707.696C667.286 699.553 657.383 707.032 657.383 707.032Z" fill="#1D3B54"/>
<path d="M677.261 741.801C676.75 745.201 677.287 749.667 678.356 762.101C679.426 774.532 676.486 789.585 676.486 789.585C672.798 790.848 668.549 789.585 668.549 789.585C668.647 788.711 668.549 759.282 668.549 756.66C668.549 754.038 667.795 751.062 667.601 748.053C667.469 746.001 666.514 742.219 665.442 738.36C665.119 737.203 664.788 736.04 664.465 734.914C664.465 734.911 664.465 734.911 664.465 734.911C664.282 734.281 664.106 733.661 663.933 733.059C662.422 727.815 660.387 707.564 660.387 707.564C660.387 707.564 671.656 698.486 677.145 707.032C682.631 715.578 679.816 721.793 679.622 722.863C679.426 723.932 677.773 738.404 677.261 741.801Z" fill="#1D3B54"/>
<path d="M656.502 691.131C656.502 691.131 657.261 706.425 653.619 715.239C653.619 715.239 665.635 719.246 681.148 715.239C681.148 715.239 677.824 704.275 678.09 702.601C678.356 700.927 684.163 681.599 682.375 677.052C680.588 672.506 658.292 676.786 656.502 691.131Z" fill="#EB4747"/>
<path d="M670.831 645.895C668.124 645.588 661.119 646.138 661.654 656.675C662.189 667.213 666.024 666.582 669.86 665.464C673.696 664.348 678.26 656.19 678.26 654.004C678.26 651.819 678.549 646.768 670.831 645.895Z" fill="#EEA886"/>
<path d="M662.043 651.85C662.043 651.85 665.091 655.738 668.157 656.668C668.157 656.668 670.515 660.886 674.633 661.961C674.633 661.961 683.409 653.565 676.03 647.254C668.648 640.94 661.994 648.628 662.043 651.85Z" fill="#FCCCA2"/>
<path d="M667.577 655.218C667.68 654.642 668.956 653.469 669.943 654.782C670.927 656.094 669.132 659.153 668.453 659.153C667.773 659.153 667.19 657.404 667.577 655.218Z" fill="#EEA886"/>
<path d="M677.263 649.153C677.483 648.819 684.136 645.82 685.518 652.085C686.903 658.349 680.161 665.634 678.981 668.765C677.8 671.896 678.981 679.326 678.981 679.326C678.981 679.326 675.457 675.505 674.231 671.597C672.882 667.311 672.43 656.492 677.263 649.153Z" fill="#FCCCA2"/>
<path d="M672.59 723.537C672.502 723.731 666.887 736.198 665.443 738.36C665.12 737.203 664.79 736.04 664.467 734.914C664.467 734.911 664.467 734.911 664.467 734.911C664.467 734.911 672.404 723.811 672.59 723.537Z" fill="#162D40"/>
<path d="M682.133 685.234C682.133 685.234 681.957 693.165 680.96 697.962C680.776 696.668 680.534 695.304 680.275 694.002C680.314 693.821 681.939 686.474 682.133 685.234Z" fill="#AB3434"/>
<path d="M482.877 725.793C482.877 725.793 483.567 726.454 483.807 727.069C483.995 727.557 484.628 728.203 484.925 728.573C485.225 728.942 486.338 730.668 486.498 731.148C486.563 731.345 486.478 732.701 486.653 733.086C486.829 733.471 487.284 734.209 486.94 734.346C486.597 734.486 486.005 733.933 486.005 733.933C486.005 733.933 486.144 734.292 485.881 734.506C485.37 734.92 484.959 734.633 484.959 734.633C484.959 734.633 484.887 735.214 484.628 735.333C484.06 735.597 483.704 735.302 483.704 735.302C483.704 735.302 483.497 735.715 483.076 735.806C482.541 735.922 482.2 735.434 482.2 735.434C482.2 735.434 481.57 735.708 481.283 735.439C480.999 735.17 480.917 734.933 480.754 734.667C480.591 734.401 479.92 731.807 480.266 729.74C480.612 727.674 479 726.126 479 726.126L482.877 725.793Z" fill="#EEA886"/>
<path d="M488.577 741.674H479.658C478.752 741.674 478.016 740.938 478.016 740.031V734.408C478.016 733.501 478.752 732.765 479.658 732.765H488.577C489.484 732.765 490.22 733.501 490.22 734.408V740.031C490.22 740.936 489.481 741.674 488.577 741.674ZM479.658 733.865C479.361 733.865 479.119 734.108 479.119 734.405V740.029C479.119 740.326 479.361 740.569 479.658 740.569H488.577C488.874 740.569 489.117 740.326 489.117 740.029V734.405C489.117 734.108 488.874 733.865 488.577 733.865H479.658Z" fill="#0E1E2B"/>
<path d="M500.846 739.26H467.389V763.236H500.846V739.26Z" fill="#FFCC63"/>
<path d="M469.908 675.105C469.908 675.105 468.193 675.129 467.462 680.254C466.731 685.379 468.115 687.521 468.28 689.655C468.446 691.789 470.946 705.563 471.016 706.17C471.085 706.777 471.419 714.108 472.395 716.054C473.371 717.999 480.542 729.024 480.637 729.575C480.733 730.125 484.119 727.653 484.119 727.653C484.119 727.653 478.486 715.86 478.16 714.514C477.835 713.168 475.567 706.296 475.926 704.199C476.285 702.101 474.921 690.53 475.053 689.244C475.182 687.96 473.191 675.888 469.908 675.105Z" fill="#EEA886"/>
<path d="M469.908 675.105C469.908 675.105 468.193 675.129 467.462 680.254C466.731 685.379 467.392 687.224 467.834 689.445C468.252 691.543 469.673 704.377 469.74 704.987C469.807 705.596 471.509 713.333 472.395 716.054C473.067 718.123 479.462 728.96 479.558 729.51C479.653 730.06 484.527 726.979 484.527 726.979C484.527 726.979 478.277 714.78 477.949 713.434C477.623 712.088 476.564 707.431 476.53 705.302C476.492 702.801 474.919 690.533 475.05 689.247C475.182 687.96 474.689 676.86 469.908 675.105Z" fill="#285173"/>
<path d="M455.569 794.635C455.569 794.635 458.552 799.068 459.756 800.138C459.756 800.138 462.525 801.107 462.695 802.99C462.806 804.219 462.7 806.198 459.536 806.286C456.374 806.374 454.344 805.271 453.766 803.354C453.187 801.437 452.094 800.582 452.094 800.582V804.592H451.382C451.382 804.592 451.203 800.717 451.159 800.004C451.116 799.291 450.648 796.55 452.151 795.335C453.652 794.121 455.569 794.635 455.569 794.635Z" fill="#EDDAD3"/>
<path d="M475.814 791.094C475.814 791.094 476.331 792.315 477.307 793.589C478.022 794.522 480.246 798.355 481.228 798.624C482.207 798.893 485.237 799.425 485.505 801.119C485.771 802.811 485.906 804.015 482.922 804.15C479.939 804.284 477.979 804.462 476.553 802.367C475.127 800.275 472.857 798.758 472.857 798.758V804.222H471.699C471.699 804.222 471.165 798.536 470.852 798.136C470.54 797.735 469.739 793.369 472.5 791.096C475.256 788.82 475.814 791.094 475.814 791.094Z" fill="#EDDAD3"/>
<path d="M453.565 709.078C453.565 709.078 449.796 713.979 448.773 719.791C447.751 725.604 449.378 745.118 449.331 747.991C449.287 750.863 446.614 758.014 447.149 763.426C447.683 768.838 452.149 795.335 452.149 795.335L455.567 794.635C455.567 794.635 455.233 767.169 455.567 764.898C455.9 762.628 456.571 754.346 456.706 753.411C456.84 752.475 465.188 727.908 465.188 723.718C465.191 719.525 462.652 702.238 453.565 709.078Z" fill="#EEA886"/>
<path d="M472.495 710.992C472.495 710.992 478.687 734.627 479.423 737.9C480.159 741.175 481.223 743.875 481.223 745.265C481.223 748.491 480.025 753.671 480.025 753.671L475.814 791.093H472.495C472.495 791.093 470.403 769.241 470.067 764.831C469.734 760.421 472.472 753.604 471.806 751.733C471.139 749.863 461.047 728.277 461.047 728.277C461.047 728.277 453.407 704.131 472.495 710.992Z" fill="#EEA886"/>
<path d="M460.271 800.362C460.271 800.362 457.67 801.698 455.309 799.933C452.949 798.169 452.15 795.335 452.15 795.335L455.568 794.635L460.271 800.362Z" fill="#EEA886"/>
<path d="M481.225 798.621C481.225 798.621 478.552 799.29 477.529 798.621C476.504 797.952 473.022 792.065 471.867 791.713C471.867 791.713 472.986 789.445 475.814 791.093C475.814 791.093 480.468 797.642 481.225 798.621Z" fill="#EEA886"/>
<path d="M480.421 741.669C480.421 741.669 469.046 748.365 447.723 748.365C447.723 748.365 446.517 723.632 449.617 716.673C452.716 709.713 473.295 714.04 473.295 714.04C473.295 714.04 479.688 736.554 480.421 741.669Z" fill="#1D3B54"/>
<path d="M464.879 673.258C464.879 673.258 468.185 674.818 469.334 675.048C470.481 675.278 474.937 681.065 475.717 683.178C476.497 685.291 475.717 688.461 474.11 692.181C472.504 695.901 474.017 697.141 473.284 700.861C472.55 704.581 471.907 712.457 472.044 714.524C472.181 716.591 453.47 716.981 449.197 713.214C449.197 713.214 453.49 706.784 454.04 705.865C454.591 704.945 454.133 699.939 453.627 698.655C453.121 697.368 449.761 686.433 449.761 686.433C449.761 686.433 447.01 678.035 449.494 676.105C451.654 674.428 457.535 673.832 458.592 673.462C459.646 673.098 462.719 672.938 464.879 673.258Z" fill="#EDDAD3"/>
<path d="M465.935 680.631L467.944 678.278L466.201 672.083C466.198 672.083 465.612 675.532 465.935 680.631Z" fill="#D6C5BE"/>
<path d="M460.703 649.789C462.668 649.096 469.888 647.399 471.587 656.632C473.287 665.865 468.188 672.431 463.505 670.688C458.82 668.941 455.927 662.558 455.653 657.688C455.379 652.819 458.223 650.662 460.703 649.789Z" fill="#EEA886"/>
<path d="M471.589 656.631C471.589 656.631 471.943 648.731 464.09 648.455C456.238 648.178 454.125 654.647 454.768 659.359C455.412 664.071 458.661 666.559 458.661 666.559C458.661 666.559 458.379 662.746 459.903 661.756C461.427 660.767 467.536 658.791 470.199 654.198C470.196 654.198 471.431 655.647 471.589 656.631Z" fill="#252E3B"/>
<path d="M461.796 655.795C460.761 658.941 457.695 660.757 454.944 659.853C452.193 658.949 450.803 655.666 451.839 652.519C452.875 649.373 455.941 647.557 458.692 648.461C461.44 649.365 462.832 652.648 461.796 655.795Z" fill="#252E3B"/>
<path d="M466.457 669.442C466.457 669.442 465.798 675.508 465.935 677.484C465.935 677.484 462.5 680.928 458.592 673.464C458.592 673.464 460.237 670.388 458.997 666.197C457.757 662.007 466.457 669.442 466.457 669.442Z" fill="#EEA886"/>
<path d="M465.935 677.484V680.631L461.98 677.676L465.935 677.484Z" fill="#EEA886"/>
<path d="M465.936 680.631L464.293 678.598L458.763 673.085L456.973 674.808L465.936 680.631Z" fill="#D6C5BE"/>
<path d="M457.995 673.614C457.995 673.614 462.637 680.659 462.859 683.759C463.081 686.859 461.133 710.049 459.576 717.505C458.018 724.96 446.754 716.665 446.754 716.665C446.754 716.665 454.322 704.413 451.416 694.604C448.51 684.795 447.454 680.871 447.454 680.871C447.454 680.871 448.453 675.407 451.995 674.64C455.102 673.963 457.995 673.614 457.995 673.614Z" fill="#285173"/>
<path d="M476.022 684.121C476.022 684.121 476.859 687.084 473.6 693.63C473.6 693.63 473.651 702.01 473.744 704.627C473.837 707.244 474.457 717.143 474.457 717.143L471.234 719.032C470.583 719.411 469.779 718.884 469.87 718.138C470.784 710.605 473.755 682.026 467.336 674.343L469.911 675.102C469.909 675.105 474.483 678.851 476.022 684.121Z" fill="#285173"/>
<path d="M460.69 660.086C460.403 659.362 459.45 659.158 458.9 659.572C458.35 659.985 458.027 661.225 458.9 662.832C459.77 664.441 462.849 665.56 460.69 660.086Z" fill="#EEA886"/>
<path d="M467.943 678.278L470.477 678.978L466.199 672.083L467.943 678.278Z" fill="#FAE6DE"/>
<path d="M464.292 678.598L461.981 681.631L457.23 673.715L458.762 673.085L464.292 678.598Z" fill="#FAE6DE"/>
<path d="M466.319 670.778L466.205 671.995C466.205 671.995 463.475 672.506 459.9 668.146C459.9 668.146 462.434 671.238 466.319 670.778Z" fill="#A77860"/>
<path d="M480.371 707.918C480.371 707.918 481.978 708.952 482.9 708.376C483.685 707.885 485.057 707.815 485.478 707.794C486.043 707.766 487.74 707.03 487.784 707.743C487.828 708.453 485.041 709.089 484.483 709.339C483.925 709.59 486.382 710.788 486.658 711.362C486.934 711.935 484.718 715.89 483.127 714.873C481.536 713.855 480.51 711.716 480.195 711.594C479.88 711.47 479.01 710.899 479.01 710.899L480.371 707.918Z" fill="#EEA886"/>
<path d="M449.872 675.741C449.872 675.741 452.101 675.188 454.03 677.255C455.96 679.321 456.923 682.721 457.43 683.822C457.936 684.925 464.318 695.121 464.685 695.351C465.052 695.581 471.54 700.817 474.48 703.618C477.419 706.42 483.148 709.544 483.148 709.544L480.989 712.574C480.989 712.574 463.582 703.295 461.379 699.898C459.176 696.498 450.373 687.082 450.373 687.082C450.373 687.082 445.117 679.166 449.872 675.741Z" fill="#EEA886"/>
<path d="M486.347 711.034C486.347 711.034 491.009 714.475 491.128 714.963C491.247 715.454 491.045 715.694 490.596 715.39C490.146 715.087 485.995 712.197 485.995 712.197C485.995 712.197 490.828 717.195 491.014 717.575C491.123 717.797 490.761 718.288 490.505 718.149C490.249 718.009 485.177 713.328 485.177 713.328C485.177 713.328 489.681 718.004 489.741 718.368C489.792 718.686 489.348 719.053 488.989 718.73C488.63 718.407 484.205 714.302 484.205 714.302C484.205 714.302 487.269 717.911 487.14 718.249C487.06 718.456 486.768 718.895 486.006 717.939C485.244 716.984 483.211 714.917 483.211 714.917L486.347 711.034Z" fill="#EEA886"/>
<path d="M474.367 691.99C474.367 691.99 474.522 702.453 473.882 707.498L473.598 693.633L474.367 691.99Z" fill="#1D3B54"/>
<path d="M451.02 674.973C451.02 674.973 452.289 675.187 454.218 677.254C456.148 679.32 457.111 682.72 457.617 683.821C458.124 684.924 464.506 695.12 464.873 695.35C465.24 695.58 470.555 699.23 473.495 702.033C476.434 704.836 481.905 708.181 481.905 708.181L479.097 712.348C479.097 712.348 463.747 703.846 461.314 700.607C458.713 697.148 449.442 686.993 449.442 686.993C449.442 686.993 443.432 677.747 451.02 674.973Z" fill="#285173"/>
<path d="M486.03 733.666C486.03 733.666 485.431 731.338 484.684 730.99C483.935 730.641 484.103 731.493 484.103 731.493C484.103 731.493 483.951 730.649 483.253 730.695C482.556 730.742 482.809 731.729 482.809 731.729C482.809 731.729 482.52 731.119 481.859 731.416C481.197 731.713 481.595 732.485 481.595 732.485C481.595 732.485 480.701 731.847 480.487 732.715C480.125 734.18 481.262 735.539 481.262 735.539C481.262 735.539 481.567 735.839 482.184 735.51C482.184 735.51 482.884 736.301 483.695 735.42C483.695 735.42 484.873 735.738 484.987 734.751C484.984 734.751 486.26 735.017 486.03 733.666Z" fill="#DB9C7C"/>
<path d="M461.49 703.06L456.236 694.581C456.236 694.581 460.718 699.872 461.183 700.44C461.65 701.008 461.689 701.05 461.689 701.05C461.689 701.05 461.555 702.77 461.49 703.06Z" fill="#1D3B54"/>
<path d="M516.292 723.501C516.292 723.501 516.654 725.144 517.292 726.821C517.602 727.637 517.757 733 517.723 733.695C517.697 734.276 517.31 733.932 517.113 733.55C517 733.331 516.649 731.476 516.305 730.491C516.016 729.665 515.768 729.355 515.623 729.623C515.478 729.892 515.212 733.338 515.528 734.811C515.843 736.283 515.515 739.675 514.74 739.187C513.965 738.696 512.152 732.561 512.304 730.249C512.456 727.937 513.283 725.041 513.283 725.041L516.292 723.501Z" fill="#EEA886"/>
<path d="M515.566 726.609C515.566 726.609 518.095 709.791 518.766 706.596C519.071 705.147 519.906 701.548 520.435 698.59C520.611 697.616 520.758 696.611 520.882 695.63C520.882 695.627 520.882 695.627 520.882 695.627C521.378 691.706 521.507 688.125 521.507 688.125C521.507 688.125 523.7 678.076 517.359 677.456C517.359 677.456 515.659 677.986 515.561 678.683C515.179 681.37 514.303 687.177 514.264 688.551C514.233 689.67 512.593 700.946 512.57 701.344C512.523 702.119 512.144 707.342 511.989 709.634C511.627 714.989 511.49 726.965 511.49 726.965L515.566 726.609Z" fill="#2C5396"/>
<path d="M513.544 798.294C513.544 798.294 511.095 801.027 508.61 801.6C506.126 802.174 504.387 802.902 504.369 804.473C504.351 806.041 511.521 807.074 514.365 805.493C518.609 803.135 519.04 803.845 519.511 802.665C519.981 801.484 518.945 798.33 518.976 797.955C519.012 797.49 513.544 798.294 513.544 798.294Z" fill="#202338"/>
<path d="M538.517 799.007C538.517 799.007 536.716 801.67 534.307 802.282C531.933 802.887 530.393 804.039 530.277 805.566C530.161 807.09 535.877 809.087 539.891 806.408C542.531 804.649 543.512 804.749 544.044 803.631C544.576 802.512 543.765 799.379 543.82 799.017C543.887 798.567 538.517 799.007 538.517 799.007Z" fill="#202338"/>
<path d="M513.818 796.983C513.818 796.983 513.495 798.264 513.542 798.29C513.591 798.316 519.142 798.98 518.974 797.951C518.837 797.117 518.643 796.213 518.643 796.213L513.818 796.983Z" fill="#81807E"/>
<path d="M538.589 797.689C538.589 797.689 538.47 798.975 538.514 799.006C538.558 799.034 543.85 800.032 543.819 799.016C543.793 798.21 543.483 797.208 543.483 797.208L538.589 797.689Z" fill="#81807E"/>
<path d="M518.867 720.334C518.867 720.334 516.847 739.944 515.798 746.658C514.571 754.506 514.156 760.993 513.812 765.054C513.381 770.164 513.298 795.299 512.996 796.795C512.694 798.288 519.683 797.208 519.683 797.208C519.683 797.208 523.121 764.364 524.405 758.924C525.598 753.855 530.031 732.042 531.121 733.424C532.211 734.808 533.561 758.882 534.37 762.879C535.176 766.875 537.632 798.162 537.632 798.162C537.632 798.162 543.196 799.27 544.673 798.017C544.673 798.017 545.348 771.052 544.834 763.561C544.637 760.706 548.178 729.324 543.638 716.689C541.235 710.014 518.867 720.334 518.867 720.334Z" fill="#292C47"/>
<path d="M553.47 723.119C553.47 723.119 550.066 724.152 548.64 723.891C547.212 723.63 547.935 706.133 547.878 702.493C547.834 699.541 546.22 691.744 546.22 691.744C546.22 691.744 546.22 691.749 546.217 691.757C546.215 691.76 546.215 691.765 546.215 691.765C546.215 691.77 546.212 691.773 546.212 691.778C546.052 692.362 543.872 700.453 543.797 704.34C543.717 708.376 544.324 723.806 544.324 723.806L538.905 726.358L520.171 726.898L517.44 726.939C517.44 726.939 517.872 717.792 518.032 714.656C518.13 712.664 518.518 709.096 518.419 705.622C518.419 705.622 518.481 701.959 518.12 700.383C518.081 693.421 517.66 686.528 517.66 686.528C517.428 683.372 517.265 680.421 517.172 677.668C517.934 677.265 518.848 676.795 519.582 676.446C521.85 675.366 525.006 673.912 527.034 672.982C528.222 672.436 529.382 672.039 529.382 672.039C529.382 672.039 537.482 671.261 538.138 671.302C538.344 671.315 539.357 671.669 540.685 672.176C543.557 673.266 549.095 675.485 549.976 676.118C551.27 677.043 554.002 699.047 554.126 700.587C554.349 703.364 553.47 723.119 553.47 723.119Z" fill="#D8D5E0"/>
<path d="M538.094 671.287C537.5 676.746 531.438 676.746 531.438 676.746C531.438 676.746 528.93 674.55 529.01 672.925C529.012 672.892 529.015 672.853 529.017 672.819C529.054 672.52 529.392 672.148 529.428 671.548C529.433 671.466 529.436 671.383 529.436 671.3C529.438 671.22 529.438 671.138 529.438 671.058C529.436 670.642 529.413 670.233 529.389 669.949C529.382 669.849 529.371 669.763 529.366 669.696C529.356 669.595 529.348 669.539 529.348 669.539C529.348 669.539 530.327 668.508 531.567 667.281C533.737 665.137 536.72 662.385 536.725 663.478C536.725 663.535 536.715 663.605 536.699 663.685C536.175 666.149 538.094 671.287 538.094 671.287Z" fill="#EEA886"/>
<path d="M537.529 716.378C537.529 716.378 538.02 719.473 538.061 720.279L539.102 720.072C539.102 720.072 538.816 716.797 538.648 716.249L537.529 716.378Z" fill="#5D676C"/>
<path d="M554.548 734.402C554.548 734.402 554.23 730.062 553.07 729.406C551.911 728.75 552.595 730.083 552.595 730.083C552.595 730.083 553.287 733.224 553.45 734.501C553.458 734.563 554.548 734.402 554.548 734.402Z" fill="#7F827F"/>
<path d="M543.082 737.466L558.373 732.878L558.613 751.793L543.469 761.183L543.082 737.466Z" fill="#7F827F"/>
<path d="M543.469 761.183L545.398 761.509L560.121 752.041L559.651 732.945L558.373 732.878L543.469 761.183Z" fill="#7F827F"/>
<path d="M533.963 674.5L531.439 676.745C531.439 676.745 534.353 676.551 534.895 676.066L533.963 674.5Z" fill="#B4B1BA"/>
<path d="M517.961 723.997C517.961 723.997 529.814 725.007 540.197 723.997V727.404C540.197 727.404 524.607 729.657 517.441 726.753L517.961 723.997Z" fill="#292C47"/>
<path d="M527.029 672.981C526.372 673.284 525.598 673.638 524.776 674.017C523.053 674.813 521.111 675.715 519.577 676.446C518.763 676.833 517.756 677.288 516.978 677.616C517.069 680.414 517.206 683.418 517.443 686.632C517.443 686.632 517.668 694.482 518.12 701.927C518.272 702.994 518.352 704.085 518.265 705.201C518.151 706.657 517.993 708.246 517.805 709.905C517.802 709.925 517.8 709.949 517.797 709.967C517.751 710.359 517.704 710.757 517.658 711.158C517.658 711.163 517.655 711.168 517.655 711.176C516.648 719.471 514.94 728.99 514.049 731.868C513.861 732.47 514.509 733.025 514.974 733.454L518.215 735.498C518.215 735.498 519.553 723.191 519.995 719.013C520.424 714.981 521.772 709.574 522.361 704.309V704.307C523.11 697.624 524.141 691.077 524.696 687.187C526.143 677.06 528.072 672.529 528.072 672.529L527.029 672.981Z" fill="#2C5396"/>
<path d="M547.634 702.659C547.885 706.038 546.457 724.733 547.882 724.994C549.308 725.255 554.549 724.103 554.549 724.103C554.549 724.103 555.205 703.942 554.996 701.829C554.844 700.29 552.395 677.218 551.101 676.291C550.354 675.753 544.822 673.793 542.107 672.723C541.611 672.527 541.131 672.341 540.686 672.173C540.11 672.814 534.002 684.113 533.526 693.297C533.382 696.092 534.035 701.995 534.534 706.815C535.066 711.959 535.655 715.976 536.086 720.277C536.936 728.753 537.53 735.498 537.53 735.498L545.963 731.742C547.327 731.06 549.218 728.257 548.704 726.82C546.754 721.359 544.3 712.026 544.297 707.234C544.297 707.234 545.237 695.498 545.984 692.917C545.984 692.919 547.314 698.362 547.634 702.659Z" fill="#2C5396"/>
<path d="M549.204 724.775C549.204 724.775 548.788 726.658 548.225 728.544C547.665 730.43 547.13 731.037 547.383 732.109C547.574 732.918 548.501 733.515 548.729 733.251C548.956 732.988 549.021 729.828 550.33 729.823C551.637 729.818 549.997 733.737 550.772 733.44C551.547 733.143 554.517 731.456 554.305 729.867C554.093 728.278 552.877 727.147 552.918 724.77C552.954 722.613 552.27 721.722 552.27 721.722L549.204 724.775Z" fill="#EEA886"/>
<path d="M550.199 729.69C550.199 729.69 548.466 730.16 548.657 736.05L550.623 735.691C550.623 735.691 550.538 732.436 551.101 730.654C551.101 730.654 550.982 729.504 550.199 729.69Z" fill="#7F827F"/>
<path d="M547.412 712.108L547.5 726.965C547.5 726.965 550.465 726.833 554.551 725.325L554.836 704.374L547.412 712.108Z" fill="#2C5396"/>
<path d="M528.68 674.895C528.68 674.895 528.463 677.995 531.087 678.068C533.709 678.14 535.791 675.621 535.791 675.621L531.439 676.745L528.789 674.5L528.68 674.895Z" fill="#D8D5E0"/>
<path d="M537.743 670.264C537.743 670.264 535.258 673.454 533.959 674.498L536.085 678.068L539.753 671.827L537.743 670.264Z" fill="#EAE6F2"/>
<path d="M529.193 675.087L531.438 676.748C531.438 676.748 529.467 673.152 529.428 671.553L529.193 675.087Z" fill="#B4B1BA"/>
<path d="M529.426 671.55L527.987 672.568L526.381 677.357L529.194 675.086L529.426 671.55Z" fill="#EAE6F2"/>
<path d="M517.821 696.312C517.821 696.312 518.459 701.84 518.123 706.882C517.788 711.928 516.408 719.993 516.408 719.993C516.408 719.993 516.393 702.294 517.821 696.312Z" fill="#1F3B6B"/>
<path d="M522.29 655.567C522.29 655.567 520.707 659.419 521.743 659.884C522.598 660.269 521.224 664.027 521.058 664.637C520.89 665.247 522.624 665.492 523.021 665.83C523.419 666.169 524.969 670.684 526.371 670.679C527.777 670.672 533.808 667.838 535.324 665.885C536.843 663.932 537.398 655.779 535.905 652.521C534.412 649.264 525.09 648.835 522.29 655.567Z" fill="#EEA886"/>
<path d="M521.981 656.397C521.981 656.397 519.561 652.671 522.898 649.367C526.235 646.063 533.496 650.483 534.273 650.597C535.051 650.713 539.612 651.687 538.096 658.626C536.745 664.805 536.616 664.968 536.616 664.968C536.616 664.968 534.805 661.7 533.955 661.212C532.63 660.447 529.954 660.946 529.954 660.946C529.954 660.946 530.882 657.396 528.821 657.125C526.762 656.854 523.934 655.43 521.981 656.397Z" fill="#323657"/>
<path d="M531.891 658.769C532.02 658.283 532.379 656.209 534.231 657.208C536.083 658.208 533.679 662.297 533.382 662.377C533.087 662.458 530.814 662.866 531.891 658.769Z" fill="#EEA886"/>
<path d="M535.083 666.162C535.042 666.265 533.663 669.613 529.437 671.303C529.44 671.223 529.44 671.14 529.44 671.06C529.437 670.644 529.414 670.236 529.39 669.952C529.383 669.851 529.372 669.766 529.367 669.699C529.365 669.699 533.905 667.562 535.083 666.162Z" fill="#A77860"/>
</g>
<defs>
<linearGradient id="paint0_linear" x1="623.898" y1="716.5" x2="498.36" y2="421.354" gradientUnits="userSpaceOnUse">
<stop stop-color="#FF9F55"/>
<stop offset="1" stop-color="#FFD255"/>
</linearGradient>
<clipPath id="clip0">
<rect width="470" height="473" fill="white" transform="translate(306 368)"/>
</clipPath>
</defs>
</svg>
