<svg width="413" height="363" viewBox="0 0 413 363" fill="none" xmlns="http://www.w3.org/2000/svg">
<path fill-rule="evenodd" clip-rule="evenodd" d="M290.108 27.198C345.778 27.1773 399.461 -8.84279 452.966 6.53157C510.362 23.0241 569.396 58.9668 592.423 114.067C615.419 169.095 596.152 234.604 570.847 288.609C549.737 333.663 494.452 349.722 463.683 388.822C438.743 420.515 438.938 467.46 408.914 494.386C376.363 523.579 332.4 533.387 290.108 544.489C236.663 558.52 181.555 584.519 128.855 567.908C74.0835 550.643 20.2382 509.037 3.42505 454.125C-13.4787 398.918 37.3704 346.037 43.3379 288.609C48.4891 239.036 21.6492 189.593 35.8766 141.828C51.6751 88.7878 76.8693 29.4009 127.321 6.65285C178.044 -16.2176 234.468 27.2187 290.108 27.198Z" fill="#D4C6FF"/>
</svg>
