<svg width="687" height="458" viewBox="0 0 687 458" fill="none" xmlns="http://www.w3.org/2000/svg">
<path fill-rule="evenodd" clip-rule="evenodd" d="M516.07 313.097C537.552 368.551 616.983 394.108 621.247 453.425C625.426 511.553 576.614 560.498 536.923 603.171C499.784 643.099 453.215 672.7 401.421 689.762C352.217 705.97 300.683 697.689 248.88 698.056C189.616 698.476 124.882 722.824 74.2141 692.08C23.4155 661.258 3.94298 596.835 -12.1919 539.649C-27.1007 486.81 -16.9554 432.61 -14.4706 377.764C-11.7894 318.582 -33.1256 250.883 3.01717 203.944C39.192 156.963 112.7 166.945 166.706 142.466C222.142 117.339 264.248 60.517 325.06 57.9754C387.573 55.3627 457.962 78.641 495.461 128.726C533.166 179.087 493.344 254.434 516.07 313.097Z" fill="#3B909F"/>
</svg>
