<svg width="45" height="45" viewBox="0 0 45 45" fill="none" xmlns="http://www.w3.org/2000/svg">
<path fill-rule="evenodd" clip-rule="evenodd" d="M7.03125 33.75C7.03125 33.377 7.17941 33.0194 7.44313 32.7556C7.70685 32.4919 8.06454 32.3438 8.4375 32.3438H36.5625C36.9355 32.3438 37.2931 32.4919 37.5569 32.7556C37.8206 33.0194 37.9688 33.377 37.9688 33.75C37.9688 34.123 37.8206 34.4806 37.5569 34.7444C37.2931 35.0081 36.9355 35.1562 36.5625 35.1562H8.4375C8.06454 35.1562 7.70685 35.0081 7.44313 34.7444C7.17941 34.4806 7.03125 34.123 7.03125 33.75ZM7.03125 22.5C7.03125 22.127 7.17941 21.7694 7.44313 21.5056C7.70685 21.2419 8.06454 21.0938 8.4375 21.0938H36.5625C36.9355 21.0938 37.2931 21.2419 37.5569 21.5056C37.8206 21.7694 37.9688 22.127 37.9688 22.5C37.9688 22.873 37.8206 23.2306 37.5569 23.4944C37.2931 23.7581 36.9355 23.9062 36.5625 23.9062H8.4375C8.06454 23.9062 7.70685 23.7581 7.44313 23.4944C7.17941 23.2306 7.03125 22.873 7.03125 22.5ZM7.03125 11.25C7.03125 10.877 7.17941 10.5194 7.44313 10.2556C7.70685 9.99191 8.06454 9.84375 8.4375 9.84375H36.5625C36.9355 9.84375 37.2931 9.99191 37.5569 10.2556C37.8206 10.5194 37.9688 10.877 37.9688 11.25C37.9688 11.623 37.8206 11.9806 37.5569 12.2444C37.2931 12.5081 36.9355 12.6562 36.5625 12.6562H8.4375C8.06454 12.6562 7.70685 12.5081 7.44313 12.2444C7.17941 11.9806 7.03125 11.623 7.03125 11.25Z" fill="black"/>
</svg>
