<svg width="592" height="836" viewBox="0 0 592 836" fill="none" xmlns="http://www.w3.org/2000/svg">
<path fill-rule="evenodd" clip-rule="evenodd" d="M951.074 537.641C959.505 594.109 978.114 652.481 960.954 707.013C943.712 761.81 895.411 801.363 854.902 843.275C813.711 885.892 777.373 940.597 719.284 957.052C660.315 973.756 599.354 930.321 537.902 933.072C476.775 935.809 418.873 991.891 360.814 973.102C302.622 954.27 294.188 872.096 244.049 837.973C189.423 800.797 103.21 815.966 58.9719 767.679C16.7288 721.569 18.6954 651.006 16.5836 589.686C14.5576 530.859 21.2781 470.537 46.9003 417.162C71.4339 366.055 135.999 341.398 160.346 290.207C190.104 227.64 148.001 133.857 202.717 89.5509C254.847 47.3385 338.663 103.332 405.767 91.4783C468.86 80.3336 518.292 24.0683 582.45 22.4752C646.829 20.8766 709.43 49.1213 763.722 82.5901C817.033 115.454 866.376 158.985 893.275 214.086C919.52 267.849 903.096 331.011 913.545 389.502C922.568 440.012 943.5 486.916 951.074 537.641Z" fill="#F9B466"/>
<g clip-path="url(#clip0)">
<path opacity="0.17" d="M388.966 726.163C526.727 726.163 638.404 614.461 638.404 476.67C638.404 338.878 526.727 227.176 388.966 227.176C251.206 227.176 139.529 338.878 139.529 476.67C139.529 614.461 251.206 726.163 388.966 726.163Z" fill="url(#paint0_linear)"/>
<path opacity="0.17" d="M388.966 726.163C526.727 726.163 638.404 614.461 638.404 476.67C638.404 338.878 526.727 227.176 388.966 227.176C251.206 227.176 139.529 338.878 139.529 476.67C139.529 614.461 251.206 726.163 388.966 726.163Z" fill="url(#paint1_radial)"/>
<path d="M690 586.182H507.459V603.133H690V586.182Z" fill="#946AFF"/>
<path opacity="0.5" d="M690 586.182H507.459V603.133H690V586.182Z" fill="#F5BAC0"/>
<path d="M680.658 603.12H516.799V733.201H680.658V603.12Z" fill="#946AFF"/>
<path opacity="0.5" d="M680.658 603.12H516.799V733.201H680.658V603.12Z" fill="#F5BAC0"/>
<path d="M664.875 609.266H532.594V641.532H664.875V609.266Z" stroke="white" stroke-miterlimit="10"/>
<path d="M664.875 650.404H532.594V682.671H664.875V650.404Z" stroke="white" stroke-miterlimit="10"/>
<path d="M664.875 691.53H532.594V723.797H664.875V691.53Z" stroke="white" stroke-miterlimit="10"/>
<path opacity="0.12" d="M680.658 603.12L516.799 650.404V603.12H680.658Z" fill="#2A1447"/>
<path d="M555.996 501.886C558.498 483.088 580.016 467.29 597.893 460.958L610.293 494.947H610.281C604.582 496.966 598.425 496.83 592.665 495.009C589.679 494.067 586.979 495.009 586.979 495.009C575.433 499.754 574.615 520.311 580.115 533.644C583.869 542.751 594.882 541.103 594.882 541.103L611.644 537.882V562.428C601.683 568.153 593.532 568.884 593.532 568.884C580.784 563.829 567.467 550.285 560.108 541.958C556.219 537.559 554.125 531.86 554.187 525.986C554.274 517.585 555.005 509.345 555.996 501.886Z" stroke="white" stroke-miterlimit="10"/>
<path d="M609.278 424.646L589.777 432.233L595.35 446.565L614.851 438.978L609.278 424.646Z" fill="white"/>
<path d="M606.636 414.993L585.195 423.334L588.806 432.619L610.246 424.278L606.636 414.993Z" fill="#2A1447"/>
<path d="M585.195 423.351L606.627 415.012L601.808 409.795L585.22 416.239L585.195 423.351Z" fill="white"/>
<path d="M606.378 425.783L589.775 432.242L595.348 446.573L611.951 440.114L606.378 425.783Z" fill="#FF47F3"/>
<path d="M603.746 416.125L585.203 423.338L588.814 432.623L607.356 425.41L603.746 416.125Z" fill="#2A1447"/>
<path d="M585.195 423.351L603.728 416.139L598.909 410.923L585.22 416.239L585.195 423.351Z" fill="#FF47F3"/>
<path d="M583.623 554.659C584.688 550.26 588.616 547.175 593.137 547.175C596.94 547.175 600.409 549.393 602.007 552.838L613.801 578.289H577.912L583.623 554.659Z" fill="white"/>
<path d="M556.096 578.301H631.676C636.025 578.301 639.543 581.82 639.543 586.17H548.217C548.229 581.82 551.747 578.301 556.096 578.301Z" fill="white"/>
<path d="M588.23 556.406C588.23 559.293 590.572 561.623 593.446 561.623C596.332 561.623 598.661 559.281 598.661 556.406C598.661 553.519 596.32 551.189 593.446 551.189C590.559 551.189 588.23 553.531 588.23 556.406Z" fill="#FF47F3"/>
<path d="M590.77 556.406C590.77 557.881 591.971 559.083 593.445 559.083C594.92 559.083 596.121 557.881 596.121 556.406C596.121 554.932 594.92 553.73 593.445 553.73C591.971 553.73 590.77 554.932 590.77 556.406Z" fill="#2A1447"/>
<path opacity="0.17" d="M566.365 398.618H512.972C510.309 398.618 508.141 396.45 508.141 393.786V371.903C508.141 369.239 510.309 367.071 512.972 367.071H566.365C569.029 367.071 571.197 369.239 571.197 371.903V393.786C571.184 396.45 569.029 398.618 566.365 398.618Z" fill="url(#paint2_linear)"/>
<path opacity="0.17" d="M618.085 344.693H554.583C551.92 344.693 549.752 342.524 549.752 339.86V318.597C549.752 315.933 551.92 313.765 554.583 313.765H618.085C620.749 313.765 622.917 315.933 622.917 318.597V339.86C622.917 342.537 620.749 344.693 618.085 344.693Z" fill="url(#paint3_linear)"/>
<path d="M167.588 713.76H115.619V709.447H167.588C168.467 709.447 169.285 709.101 169.904 708.481C170.524 707.861 170.858 707.044 170.846 706.164C170.809 700.551 170.834 691.976 170.858 685.781C170.883 680.737 174.996 676.636 180.038 676.636H276.567C281.039 676.636 284.669 673.005 284.669 668.532V649.921H288.98V668.532C288.98 675.372 283.418 680.948 276.567 680.948H180.038C177.362 680.948 175.169 683.129 175.157 685.805C175.132 692.001 175.107 700.551 175.145 706.139C175.157 708.171 174.377 710.079 172.952 711.517C171.527 712.967 169.619 713.76 167.588 713.76Z" stroke="white" stroke-miterlimit="10"/>
<path opacity="0.5" d="M115.619 617.519H321.623V599.341H115.619" fill="#F5BAC0"/>
<path opacity="0.17" d="M265.554 715.247H194.991C192.414 715.247 190.32 717.638 190.32 720.587V741.144C190.32 744.093 192.414 746.484 194.991 746.484H265.554C268.131 746.484 270.224 744.093 270.224 741.144V720.587C270.224 717.626 268.143 715.247 265.554 715.247Z" fill="url(#paint4_linear)"/>
<path d="M291.074 629.773H257.34C254.503 629.773 252.199 632.078 252.199 634.916C252.199 637.753 254.503 640.058 257.34 640.058H291.061C293.898 640.058 296.202 637.753 296.202 634.916C296.202 632.078 293.91 629.773 291.074 629.773Z" fill="white"/>
<path d="M257.241 637.431C258.63 637.431 259.756 636.305 259.756 634.916C259.756 633.527 258.63 632.4 257.241 632.4C255.852 632.4 254.727 633.527 254.727 634.916C254.727 636.305 255.852 637.431 257.241 637.431Z" fill="#2A1447"/>
<path d="M268.217 634.916C268.217 636.304 267.09 637.431 265.702 637.431C264.315 637.431 263.188 636.304 263.188 634.916C263.188 633.528 264.315 632.4 265.702 632.4C267.09 632.4 268.217 633.528 268.217 634.916Z" fill="#2A1447"/>
<path d="M276.655 634.916C276.655 636.304 275.527 637.431 274.14 637.431C272.752 637.431 271.625 636.304 271.625 634.916C271.625 633.528 272.752 632.4 274.14 632.4C275.527 632.4 276.655 633.528 276.655 634.916Z" fill="#2A1447"/>
<path d="M291.334 631.855H282.278C281.052 631.855 280.061 632.846 280.061 634.073V644.481C280.061 648.211 283.083 651.222 286.8 651.222C290.529 651.222 293.539 648.199 293.539 644.481V634.073C293.551 632.846 292.56 631.855 291.334 631.855Z" fill="#2A1447"/>
<path opacity="0.12" d="M309.384 617.519L115.619 659.809V617.519H309.384Z" fill="#2A1447"/>
<path d="M263.398 399.015C263.398 399.015 257.799 419.101 269.394 417.527C281.002 415.966 286.465 405.657 284.904 399.015C283.344 392.361 266.396 391.977 263.398 399.015Z" fill="#FFADBF"/>
<path d="M283.084 365.683L258.246 414.565C257.515 416.015 258.085 417.775 259.534 418.506C260.984 419.237 262.743 418.667 263.474 417.217L288.312 368.334L283.084 365.683Z" fill="#2A1447"/>
<path d="M321.549 344.147C331.199 325.139 331.497 305.859 322.317 300.679L322.329 300.654L316.755 297.817L315.937 299.415C306.658 300.295 294.852 310.914 286.912 326.527C278.983 342.14 277.36 357.938 282.117 365.955L281.3 367.554L286.874 370.391L286.887 370.366C296.5 374.753 311.899 363.155 321.549 344.147Z" fill="#2A1447"/>
<path d="M316.992 341.825C326.778 322.565 326.959 303.01 317.395 298.148C307.831 293.286 292.144 304.958 282.357 324.219C272.571 343.479 272.39 363.034 281.954 367.896C291.518 372.758 307.205 361.086 316.992 341.825Z" fill="#D4C6FF"/>
<path d="M283.89 364.097C277.498 360.85 276.853 344.469 286.169 326.155C295.473 307.841 309.075 298.709 315.468 301.956C321.86 305.202 322.504 321.583 313.188 339.897C303.885 358.211 290.282 367.343 283.89 364.097Z" fill="#D4C6FF"/>
<path opacity="0.17" d="M317.19 303.306C310.252 302.526 298.347 311.571 289.948 328.101C281.573 344.593 281.251 359.512 285.946 364.692C292.884 365.472 304.789 356.427 313.176 339.897C321.575 323.405 321.885 308.486 317.19 303.306Z" fill="url(#paint5_linear)"/>
<path d="M285.611 371.358L281.894 369.462C280.742 368.88 279.33 369.338 278.735 370.491L272.294 383.167C271.711 384.319 272.17 385.731 273.322 386.326L277.038 388.222C278.19 388.804 279.603 388.346 280.197 387.194L286.639 374.518C287.221 373.365 286.763 371.953 285.611 371.358Z" fill="#D4C6FF"/>
<path d="M273.112 403.315C273.174 402.137 269.135 395.236 274.091 389.499C279.046 383.762 281.263 379.982 281.263 379.586C281.263 379.189 273.174 372.201 277.349 367.071C277.349 367.071 285.686 376.463 290.257 378.024C294.816 379.586 291.954 402.534 285.302 406.45C278.649 410.353 273.112 403.315 273.112 403.315Z" fill="#FFADBF"/>
<path d="M273.112 403.315C273.174 402.137 269.135 395.236 274.091 389.499C279.046 383.762 281.263 379.982 281.263 379.586C281.263 379.189 273.174 372.201 277.349 367.071" stroke="#2A1447" stroke-miterlimit="10"/>
<path d="M268.615 372.151C268.615 372.151 270.448 368.235 273.112 370.453C275.775 372.671 282.23 380.589 279.467 382.621C276.692 384.666 278.761 389.635 274.375 390.527C269.99 391.419 274.091 395.483 270.312 397.961C266.534 400.44 270.709 404.355 265.233 404.355C259.757 404.355 254.542 394.616 256.103 388.47C257.664 382.324 266.534 378.408 268.615 372.151Z" fill="#FFADBF"/>
<path d="M268.614 372.151C268.614 372.151 270.448 368.235 273.111 370.453C275.775 372.671 282.229 380.589 279.467 382.621C276.692 384.666 278.76 389.635 274.375 390.527C269.99 391.419 274.09 395.483 270.312 397.961C266.533 400.44 270.708 404.355 265.232 404.355" stroke="#2A1447" stroke-miterlimit="10"/>
<path d="M269.531 375.806C271.08 377.219 272.467 378.656 273.904 380.056L276.047 382.175C276.766 382.894 277.497 383.588 278.203 384.381C276.233 383.65 274.511 382.386 273.037 380.936C272.306 380.193 271.612 379.412 271.018 378.557C270.423 377.702 269.891 376.797 269.531 375.806Z" fill="#2A1447"/>
<path d="M266.396 383.241C267.437 384.679 268.453 386.004 269.531 387.293C270.051 387.95 270.621 388.569 271.178 389.201C271.736 389.846 272.343 390.44 272.913 391.147C271.191 390.601 269.717 389.449 268.577 388.086C268.019 387.392 267.511 386.636 267.127 385.819C266.756 385.013 266.434 384.158 266.396 383.241Z" fill="#2A1447"/>
<path d="M262.049 390.279C263.213 391.878 264.229 393.439 265.406 394.876C265.988 395.595 266.608 396.264 267.264 396.909C267.946 397.528 268.677 398.073 269.519 398.618C268.528 398.569 267.537 398.21 266.67 397.677C265.815 397.132 265.072 396.425 264.427 395.657C263.808 394.876 263.275 394.021 262.866 393.117C262.482 392.212 262.16 391.271 262.049 390.279Z" fill="#2A1447"/>
<path d="M355.717 671.791L359.334 776H511.363L507.745 662.275L355.717 671.791Z" fill="#2A1447"/>
<path d="M424.111 690.477C424.111 690.477 425.263 727.316 425.263 764.167" stroke="white" stroke-miterlimit="10"/>
<path d="M512.935 418.295C512.935 418.295 530.093 420.526 542.357 443.734C554.609 466.943 580.946 559.516 574.17 569.689C567.394 579.862 522.028 570.21 507.162 499.283L512.935 418.295Z" fill="white"/>
<path d="M375.302 413.512C375.302 413.512 358.095 414.268 351.814 426.523C345.521 438.778 330.407 469.024 330.407 469.024C330.407 469.024 297.814 415.049 289.216 403.302C289.216 403.302 263.672 415.037 254.281 425.47C254.281 425.47 302.781 537.088 327.285 533.693C351.789 530.298 379.687 476.843 379.687 476.843L375.302 413.512Z" fill="white"/>
<path opacity="0.31" d="M379.688 476.855L379.118 468.59C361.502 479.11 354.156 503.112 335.289 511.451C332.811 512.541 330.135 513.334 327.435 513.099C321.352 512.579 316.991 507.226 313.312 502.356C301.952 487.338 290.022 472.741 277.547 458.64C275.032 455.79 269.805 450.685 264.168 446.918C279.653 479.16 309.658 536.146 327.274 533.705C351.79 530.31 379.688 476.855 379.688 476.855Z" fill="#D4C6FF"/>
<path d="M367.175 430.315C367.175 430.315 364.041 412.992 382.821 412.707C401.589 412.422 475.089 415.507 501.686 416.895C528.284 418.295 521.768 431.43 522.028 445.68C522.288 459.929 507.682 615.709 520.987 695.768C520.987 695.768 415.774 715.829 337.158 683.129C337.146 683.129 361.303 492.629 367.175 430.315Z" fill="white"/>
<path opacity="0.31" d="M520.975 695.768C513.381 650.045 514.892 579.639 517.531 524.995C510.445 530.335 509.392 542.639 504.027 552.552C494.773 569.664 484.429 586.12 473.144 601.77C450.547 633.069 424.111 661.185 394.726 685.149C389.325 689.548 376.59 689.758 370.99 693.885C445.976 710.798 520.975 695.768 520.975 695.768Z" fill="#D4C6FF"/>
<path d="M429.562 546.221C429.562 546.221 421.101 664.84 425.796 701.295" stroke="#2A1447" stroke-miterlimit="10"/>
<path d="M415.675 413.512C415.315 459.062 429.574 546.22 429.574 546.22C458.972 503.31 473.255 430.736 476.005 415.532C457.931 414.85 435.421 414.082 415.675 413.512Z" fill="#FF47F3"/>
<path d="M482.399 415.78L493.598 450.772L479.785 464.068L488.915 479.854C488.915 479.854 464.969 517.547 430.27 545.18" stroke="#2A1447" stroke-miterlimit="10"/>
<path d="M410.151 413.364L394.269 436.696L406.781 455.469L389.834 471.887C389.834 471.887 409.903 522.256 427.383 545.192" stroke="#2A1447" stroke-miterlimit="10"/>
<path d="M501.687 582.885L394.652 572.526L468.548 466.224L575.583 476.583L501.687 582.885Z" fill="#D4C6FF"/>
<path d="M390.75 565.228C390.75 565.228 396.176 567.458 394.665 572.526L468.56 466.224C468.56 466.224 470.443 462.556 464.646 458.925L390.75 565.228Z" fill="#D4C6FF"/>
<path d="M390.75 565.228C390.75 565.228 396.176 567.458 394.665 572.526L468.56 466.224C468.56 466.224 470.443 462.556 464.646 458.925L390.75 565.228Z" fill="#D4C6FF"/>
<path d="M571.667 469.284C571.667 469.284 580.983 471.019 575.582 476.583L468.548 466.224L464.633 458.925L571.667 469.284Z" fill="#D4C6FF"/>
<path d="M571.667 469.284C571.667 469.284 580.983 471.019 575.582 476.583L468.548 466.224L464.633 458.925L571.667 469.284Z" fill="#D4C6FF"/>
<path opacity="0.24" d="M425.153 528.092C428.337 533.867 435.745 535.502 441.146 539.282C448.79 544.647 452.382 554.436 459.989 559.863C463.247 562.18 467.062 563.58 470.903 564.683C481.916 567.843 493.437 568.785 504.859 569.714C507.671 569.937 510.805 570.061 512.936 568.227C515.488 566.021 515.376 562.032 514.484 558.785C511.375 547.509 501.737 539.232 491.64 533.334C482.151 527.795 471.819 523.706 461.116 521.265C453.633 519.555 445.965 518.638 438.569 516.569C434.704 515.491 428.014 513.075 424.645 516.656C422.13 519.295 423.641 525.329 425.153 528.092Z" fill="#2A1447"/>
<path d="M480.887 510.063C480.887 510.063 475.411 500.349 470.332 498.255C465.253 496.173 458.997 489.519 458.997 489.519C458.997 489.519 455.888 495.194 461.933 501.253C467.991 507.313 464.658 508.353 464.658 508.353C464.658 508.353 449.793 506.135 440.613 502.815C431.421 499.494 424.582 500.473 424.967 503.595C424.967 503.595 417.794 503.992 421.25 510.051C421.25 510.051 418.388 514.351 423.468 517.61C423.468 517.61 420.99 521.785 428.026 526.085C435.063 530.385 450.189 541.995 473.392 537.423L480.887 510.063Z" fill="#FFADBF"/>
<path d="M424.967 503.608C424.967 503.608 438.458 509.32 452.01 511.798" stroke="#FFADBF" stroke-miterlimit="10"/>
<path d="M421.25 510.063C421.25 510.063 428.435 515.181 445.828 518.056" stroke="#FFADBF" stroke-miterlimit="10"/>
<path d="M423.467 517.634C423.467 517.634 429.686 522.318 440.538 524.189" stroke="#FFADBF" stroke-miterlimit="10"/>
<path d="M479.783 505.801C478.768 505.454 463.877 535.527 470.133 552.738C470.133 552.738 537.661 586.12 556.169 582.985C574.677 579.85 576.461 571.511 575.161 560.557C573.872 549.616 538.442 525.651 479.783 505.801Z" fill="white"/>
<path d="M407.734 281.399C407.734 281.399 369.021 282.576 377.036 291.176C385.051 299.788 397.377 301.547 397.377 301.547C397.377 301.547 371.957 316.218 382.128 319.155C392.298 322.091 412.442 317.197 412.442 317.197C412.442 317.197 421.435 298.524 417.335 286.343C413.21 274.163 407.734 281.399 407.734 281.399Z" fill="#2A1447"/>
<path d="M465.167 361.172C465.167 361.172 462.305 405.136 465.167 420.005C465.167 420.005 461.24 441.392 436.092 440.611C436.092 440.611 420.978 437.253 421.114 414.528L425.153 372.287L465.167 361.172Z" fill="#FFADBF"/>
<path d="M425.139 372.287L421.844 406.735C430.838 404.579 451.216 397.875 464.261 379.499C464.633 369.177 465.153 361.185 465.153 361.185L425.139 372.287Z" fill="#FFADBF"/>
<path d="M423.702 289.875C423.702 289.875 403.101 303.17 403.893 323.516C404.674 343.862 400.499 378.285 423.702 389.499C423.702 389.499 462.031 384.802 470.109 353.515C478.198 322.215 465.166 272.663 423.702 289.875Z" fill="#FFADBF"/>
<path d="M412.428 292.749C412.428 292.749 417.706 316.416 439.212 317.197C439.212 317.197 442.111 315.635 438.122 306.243C438.122 306.243 445.864 323.256 464.632 325.796C464.632 325.796 446.843 350.442 459.157 358.657C459.157 358.657 463.257 376.265 469.712 373.911C476.166 371.569 472.375 365.299 472.375 365.299C472.375 365.299 486.721 382.906 486.337 348.484C486.337 348.484 516.254 366.476 491.032 315.041C491.032 315.041 517.233 325.214 494.166 299.391C494.166 299.391 499.443 286.975 494.562 286.331C489.669 285.699 489.285 290.779 489.285 290.779C489.285 290.779 461.436 226.631 458.054 261.834C458.054 261.834 392.682 225.255 419.279 261.635C419.279 261.635 365.7 254.436 402.852 281.981L412.428 292.749Z" fill="#2A1447"/>
<path d="M433.936 338.559C435.12 338.559 436.079 337.033 436.079 335.151C436.079 333.269 435.12 331.744 433.936 331.744C432.753 331.744 431.793 333.269 431.793 335.151C431.793 337.033 432.753 338.559 433.936 338.559Z" fill="#2A1447"/>
<path d="M409.693 333.764C409.693 335.647 408.726 337.171 407.549 337.171C406.36 337.171 405.406 335.647 405.406 333.764C405.406 331.88 406.373 330.356 407.549 330.356C408.726 330.344 409.693 331.868 409.693 333.764Z" fill="#2A1447"/>
<path d="M434.368 348.286C440.485 348.286 445.443 342.916 445.443 336.291C445.443 329.667 440.485 324.297 434.368 324.297C428.251 324.297 423.293 329.667 423.293 336.291C423.293 342.916 428.251 348.286 434.368 348.286Z" stroke="white" stroke-miterlimit="10"/>
<path d="M404.996 347.109C409.641 347.109 413.407 341.739 413.407 335.114C413.407 328.49 409.641 323.12 404.996 323.12C400.35 323.12 396.584 328.49 396.584 335.114C396.584 341.739 400.35 347.109 404.996 347.109Z" stroke="white" stroke-miterlimit="10"/>
<path d="M413.406 335.114C413.406 335.114 419.39 329.588 423.292 336.291" stroke="white" stroke-miterlimit="10"/>
<path d="M445.455 336.292L467.506 342.289" stroke="white" stroke-miterlimit="10"/>
<path d="M458.514 361.172C458.514 361.172 461.251 345.547 464.646 341.632C468.04 337.716 480.812 327.667 481.853 337.902C482.894 348.137 471.806 365.584 458.514 361.172Z" fill="#FFADBF"/>
<path d="M417.323 374.89C417.323 374.89 412.429 385.162 416.344 393.278C420.259 401.394 421.237 391.816 421.237 391.816C421.237 391.816 421.919 400.031 426.032 400.812C430.132 401.592 429.847 393.476 429.847 393.476C429.847 393.476 442.855 404.529 436.686 383.799C436.686 383.799 427.01 389.474 422.513 386.141C418.004 382.808 417.323 374.89 417.323 374.89Z" fill="#2A1447"/>
<path d="M430.354 323.652C430.812 322.153 431.89 320.852 433.265 319.96C434.652 319.055 436.387 318.634 438.059 318.746C439.756 318.845 441.292 319.514 442.63 320.344C443.274 320.79 443.869 321.323 444.439 321.831C444.947 322.426 445.455 323.008 445.864 323.665C445.095 323.429 444.427 323.132 443.758 322.835L441.763 322.079C440.438 321.67 439.174 321.286 437.898 321.211C435.371 321.026 432.893 321.881 430.354 323.652Z" fill="#2A1447"/>
<path d="M413.284 320.084C411.537 319.229 410.248 318.448 409.059 318.213C408.477 318.089 407.895 318.039 407.189 318.163C406.829 318.176 406.458 318.312 406.049 318.386C405.64 318.485 405.231 318.647 404.711 318.721C404.847 318.25 405.07 317.816 405.343 317.395C405.665 317.048 405.975 316.614 406.433 316.367C407.275 315.759 408.502 315.536 409.58 315.797C410.67 316.032 411.574 316.664 412.193 317.42C412.813 318.188 413.246 319.08 413.284 320.084Z" fill="#2A1447"/>
<path d="M416.542 338.559C416.17 340.839 415.179 343.069 413.519 344.891C412.702 345.808 411.624 346.576 410.398 347.084C410.088 347.196 409.766 347.295 409.444 347.394L408.453 347.543L408.056 347.592C407.945 347.605 407.833 347.617 407.734 347.629C407.523 347.654 407.362 347.728 407.3 347.753C407.239 347.803 407.4 347.691 407.424 347.481C407.437 347.295 407.387 347.332 407.462 347.456C407.598 347.704 407.945 348.038 408.304 348.336C409.047 348.955 409.989 349.426 410.943 349.885C412.888 350.727 415.006 351.26 417.31 351.433C415.142 352.288 412.64 352.313 410.323 351.706C409.146 351.421 408.019 350.925 406.929 350.231C406.384 349.86 405.863 349.451 405.38 348.745C405.157 348.385 404.897 347.865 404.984 347.121C405.083 346.341 405.69 345.795 406.124 345.572C406.978 345.151 407.722 345.164 408.267 345.102L408.948 345.04C409.171 344.978 409.394 344.916 409.617 344.879C410.521 344.631 411.364 344.098 412.194 343.491C413.829 342.202 415.229 340.443 416.542 338.559Z" fill="#2A1447"/>
<path d="M419.924 360.293C421.051 360.218 421.906 360.318 422.736 360.181C423.554 360.082 424.309 359.884 425.102 359.648C425.895 359.425 426.675 359.091 427.543 358.806C427.964 358.632 428.41 358.496 428.868 358.347C429.326 358.199 429.797 358.038 430.355 357.938C430.156 358.447 429.884 358.88 429.599 359.314C429.277 359.71 428.942 360.107 428.558 360.454C427.766 361.111 426.874 361.705 425.821 362.003C424.78 362.312 423.616 362.387 422.538 362.089C421.993 361.953 421.497 361.681 421.051 361.396C420.605 361.086 420.258 360.677 419.924 360.293Z" fill="#2A1447"/>
<path d="M367.064 448.467C367.064 448.467 359.346 484.835 359.904 503.607" stroke="#2A1447" stroke-miterlimit="10"/>
<path d="M538.158 530.422C538.158 530.422 560.692 538.773 568.014 553.531" stroke="#2A1447" stroke-miterlimit="10"/>
<path d="M562.575 539.219C562.575 539.219 547.474 529.282 539.285 530.533" stroke="#2A1447" stroke-miterlimit="10"/>
<path d="M330.406 469.037C330.406 469.037 341.494 483.695 339.66 503.62" stroke="#2A1447" stroke-miterlimit="10"/>
<path opacity="0.31" d="M556.17 582.997C571.147 580.469 575.161 574.521 575.47 566.542C575.148 566.603 574.826 566.678 574.492 566.74C558.585 569.701 542.171 565.129 527.478 558.363C512.786 551.598 499.159 542.664 484.38 536.097C479.722 534.027 474.89 532.367 469.848 531.723C468.349 539.071 467.928 546.703 470.121 552.75C470.133 552.738 537.661 586.119 556.17 582.997Z" fill="#D4C6FF"/>
<path opacity="0.31" d="M431.47 636.192C436.351 628.113 440.278 619.365 443.127 610.245C439.609 615.152 436.091 620.071 431.965 624.396C428.422 628.113 423.393 633.057 418.413 634.321C413.767 635.498 408.143 632.351 404.686 629.302C400.165 625.325 396.894 619.972 393.686 614.718C391.01 610.319 388.334 605.92 385.658 601.534C381.533 594.769 377.395 587.953 374.422 580.531C375.871 586.144 377.866 591.584 380.046 596.925C382.078 601.918 384.456 606.652 386.438 611.67C391.419 624.284 399.099 635.907 409.518 643.825C411.698 645.473 414.114 647.009 416.777 647.17C423.083 647.53 428.348 641.359 431.47 636.192Z" fill="#D4C6FF"/>
<path d="M415.156 292.142C417.2 296.801 420 301.014 423.518 304.546C427.024 308.102 431.199 310.927 435.845 313.021C430.865 311.856 426.269 309.068 422.639 305.425C419.021 301.745 416.271 297.136 415.156 292.142Z" fill="white"/>
<path d="M431.297 254.659C432.61 254.845 433.886 255.341 435.063 255.948C436.252 256.555 437.342 257.311 438.395 258.092C440.489 259.69 442.372 261.4 444.379 263.11C441.852 262.242 439.708 260.607 437.64 259.07C435.583 257.509 433.589 255.973 431.297 254.659Z" fill="white"/>
<path d="M441.357 302.291C443.191 305.178 445.322 307.842 447.75 310.196C450.178 312.538 452.854 314.62 455.753 316.33C458.639 318.064 461.736 319.44 464.945 320.481L467.385 321.174L469.863 321.707L472.378 322.116C473.22 322.191 474.075 322.277 474.93 322.376C474.075 322.414 473.22 322.438 472.353 322.451L469.776 322.314L467.212 321.943L464.672 321.398C461.315 320.555 458.094 319.167 455.108 317.395C452.135 315.599 449.397 313.418 447.068 310.853L445.384 308.883L443.847 306.801L442.51 304.595C442.113 303.839 441.729 303.071 441.357 302.291Z" fill="white"/>
<path d="M379.539 288.413C382.525 290.767 385.609 292.861 388.942 294.509C392.262 296.194 395.78 297.421 399.447 298.412C395.619 298.4 391.816 297.334 388.384 295.612C384.965 293.877 381.831 291.473 379.539 288.413Z" fill="white"/>
<path d="M391.16 265.204C392.956 268.104 394.951 270.755 397.329 273.072C399.683 275.402 402.371 277.347 405.307 279.094C401.975 278.264 398.94 276.368 396.462 273.952C393.997 271.524 392.052 268.513 391.16 265.204Z" fill="white"/>
<path d="M384.779 316.875C387.653 316.478 390.466 316.28 393.278 315.983C396.102 315.722 398.902 315.388 401.788 315.214C399.113 316.33 396.263 316.912 393.402 317.209C390.527 317.47 387.629 317.457 384.779 316.875Z" fill="white"/>
<path d="M488.531 321.335C491.195 324.446 493.598 327.828 495.295 331.632C496.125 333.541 496.769 335.536 497.079 337.605C497.414 339.662 497.389 341.781 496.93 343.788C496.868 339.674 495.778 335.796 494.155 332.128C492.57 328.46 490.402 325.003 488.531 321.335Z" fill="white"/>
<path d="M188.61 559.157L148.695 316.775H286.019L246.116 559.157H188.61Z" fill="url(#paint6_linear)"/>
<path d="M238.373 550.037H196.352L159.447 325.908H275.277L238.373 550.037Z" fill="url(#paint7_linear)"/>
<path d="M262.369 598.573H172.344L189.873 563.841H244.84L262.369 598.573Z" fill="#2A1447"/>
<path d="M253.252 550.037H181.475L189.874 563.841H244.84L253.252 550.037Z" fill="#2A1447"/>
<path d="M217.362 570.123C213.608 570.123 210.561 573.171 210.561 576.926V598.573H224.15V576.926C224.163 573.159 221.115 570.123 217.362 570.123Z" stroke="white" stroke-miterlimit="10"/>
<path d="M239.847 586.851C242.85 586.851 245.285 584.416 245.285 581.411C245.285 578.407 242.85 575.972 239.847 575.972C236.843 575.972 234.408 578.407 234.408 581.411C234.408 584.416 236.843 586.851 239.847 586.851Z" fill="white"/>
<path d="M194.878 586.851C197.881 586.851 200.316 584.416 200.316 581.411C200.316 578.407 197.881 575.972 194.878 575.972C191.874 575.972 189.439 578.407 189.439 581.411C189.439 584.416 191.874 586.851 194.878 586.851Z" fill="white"/>
<path d="M224.052 553.953H210.673C209.719 553.953 208.951 554.721 208.951 555.675C208.951 556.629 209.719 557.397 210.673 557.397H224.065C225.019 557.397 225.787 556.629 225.787 555.675C225.774 554.733 225.006 553.953 224.052 553.953Z" fill="white"/>
<path d="M189.873 563.841H244.84" stroke="white" stroke-miterlimit="10"/>
<path d="M217.289 528.08C215.79 528.08 214.576 526.878 214.551 525.378L214.377 511.984C214.353 510.472 215.567 509.233 217.078 509.208C217.09 509.208 217.103 509.208 217.115 509.208C218.614 509.208 219.828 510.41 219.853 511.909L220.026 525.304C220.051 526.816 218.837 528.055 217.326 528.08C217.313 528.08 217.301 528.08 217.289 528.08Z" fill="url(#paint8_linear)"/>
<path d="M243.476 518.204C243.327 518.204 243.179 518.192 243.03 518.167C241.544 517.919 240.528 516.507 240.776 515.02L244.864 490.3C245.111 488.813 246.524 487.809 248.01 488.044C249.497 488.292 250.513 489.705 250.265 491.192L246.177 515.912C245.941 517.263 244.789 518.204 243.476 518.204Z" fill="url(#paint9_linear)"/>
<path d="M232.377 499.593C232.241 499.593 232.092 499.58 231.956 499.555C230.457 499.32 229.441 497.92 229.676 496.433L234.334 466.385C234.57 464.885 235.957 463.869 237.456 464.092C238.955 464.328 239.971 465.728 239.736 467.215L235.078 497.263C234.867 498.626 233.703 499.593 232.377 499.593Z" fill="url(#paint10_linear)"/>
<path d="M199.288 489.407C197.913 489.407 196.736 488.379 196.575 486.978C195.77 479.977 194.444 468.541 194.295 467.673C194.048 466.186 195.051 464.774 196.55 464.526C198.049 464.278 199.449 465.282 199.697 466.769C199.907 468.057 201.803 484.488 202.013 486.359C202.187 487.858 201.109 489.221 199.61 489.395C199.498 489.407 199.399 489.407 199.288 489.407Z" fill="url(#paint11_linear)"/>
<path d="M218.825 476.347C218.75 476.347 218.664 476.347 218.589 476.335C217.078 476.198 215.975 474.873 216.099 473.373L217.747 454.477C217.883 452.965 219.209 451.85 220.708 451.986C222.219 452.123 223.322 453.449 223.198 454.948L221.55 473.844C221.426 475.269 220.237 476.347 218.825 476.347Z" fill="url(#paint12_linear)"/>
<path d="M191.583 537.286C190.27 537.286 189.118 536.345 188.882 535.006C182.676 498.589 182.676 498.032 182.676 497.722C182.676 496.21 183.902 494.983 185.414 494.983C186.851 494.983 188.027 496.099 188.139 497.511C188.337 499.11 191.905 520.187 194.284 534.09C194.531 535.576 193.54 536.989 192.041 537.249C191.893 537.274 191.732 537.286 191.583 537.286Z" fill="url(#paint13_linear)"/>
<path d="M226.766 545.452C226.679 545.452 226.593 545.452 226.494 545.44C224.995 545.291 223.892 543.953 224.041 542.453L225.119 531.363C225.267 529.864 226.593 528.774 228.104 528.91C229.603 529.059 230.706 530.397 230.557 531.896L229.479 542.986C229.343 544.386 228.154 545.452 226.766 545.452Z" fill="url(#paint14_linear)"/>
<path d="M230.26 225.193H198.67V226.928H230.26V225.193Z" fill="#FF47F3"/>
<path d="M237.506 241.847H191.855V243.594H237.506V241.847Z" fill="#FF47F3"/>
<path d="M237.506 258.872H191.855V260.619H237.506V258.872Z" fill="#FF47F3"/>
<path d="M237.506 276.517H191.855V278.264H237.506V276.517Z" fill="#FF47F3"/>
<path d="M229.59 291.622H201.605V293.369H229.59V291.622Z" fill="#FF47F3"/>
<path d="M225.167 319.204H204.652V320.951H225.167V319.204Z" fill="white"/>
<path d="M229.591 335.102H197.221V336.837H229.591V335.102Z" fill="white"/>
<path d="M229.591 353.317H198.062V355.064H229.591V353.317Z" fill="white"/>
<path d="M225.465 369.834H204.207V371.581H225.465V369.834Z" fill="white"/>
<path d="M225.465 398.135H204.207V399.87H225.465V398.135Z" fill="#FF47F3"/>
<path d="M234.955 415.582H194.482V417.329H234.955V415.582Z" fill="#FF47F3"/>
<path d="M238.82 431.12H190.295V432.867H238.82V431.12Z" fill="#FF47F3"/>
<path d="M237.333 448.641H192.289V450.376H237.333V448.641Z" fill="#FF47F3"/>
<path d="M227.893 463.957H200.094V465.704H227.893V463.957Z" fill="#FF47F3"/>
<path d="M225.169 319.204H214.553V320.951H225.169V319.204Z" fill="#FF47F3"/>
<path d="M225.467 369.834H214.553V371.581H225.467V369.834Z" fill="#FF47F3"/>
<path d="M225.467 398.135H214.553V399.87H225.467V398.135Z" fill="white"/>
<path d="M227.907 463.957H214.553V465.704H227.907V463.957Z" fill="white"/>
<path d="M229.592 291.622H214.553V293.369H229.592V291.622Z" fill="white"/>
<path d="M229.592 335.102H214.553V336.837H229.592V335.102Z" fill="#FF47F3"/>
<path d="M229.592 353.317H214.553V355.064H229.592V353.317Z" fill="#FF47F3"/>
<path d="M230.261 225.193H214.553V226.928H230.261V225.193Z" fill="white"/>
<path d="M234.956 415.582H214.553V417.329H234.956V415.582Z" fill="white"/>
<path d="M237.335 448.641H214.553V450.376H237.335V448.641Z" fill="white"/>
<path d="M237.508 241.847H214.553V243.594H237.508V241.847Z" fill="white"/>
<path d="M237.508 258.872H214.553V260.619H237.508V258.872Z" fill="white"/>
<path d="M237.508 276.517H214.553V278.264H237.508V276.517Z" fill="white"/>
<path d="M238.821 431.12H214.553V432.867H238.821V431.12Z" fill="white"/>
<path d="M228.018 225.887C228.018 227.473 229.306 228.762 230.892 228.762C232.477 228.762 233.766 227.473 233.766 225.887C233.766 224.301 232.477 223 230.892 223C229.306 223 228.018 224.289 228.018 225.887Z" fill="#FF47F3"/>
<path d="M234.484 241.859C234.484 244.077 236.281 245.874 238.498 245.874C240.716 245.874 242.512 244.077 242.512 241.859C242.512 239.641 240.716 237.844 238.498 237.844C236.281 237.844 234.484 239.641 234.484 241.859Z" fill="#FF47F3"/>
<path d="M235.178 259.752C235.178 262.503 237.408 264.733 240.158 264.733C242.908 264.733 245.138 262.503 245.138 259.752C245.138 257.001 242.908 254.771 240.158 254.771C237.408 254.771 235.178 257.001 235.178 259.752Z" fill="#FF47F3"/>
<path d="M236.058 284.1C239.622 284.1 242.512 281.21 242.512 277.645C242.512 274.079 239.622 271.189 236.058 271.189C232.493 271.189 229.604 274.079 229.604 277.645C229.604 281.21 232.493 284.1 236.058 284.1Z" fill="#FF47F3"/>
<path d="M222.146 292.662C222.146 296.07 224.909 298.833 228.316 298.833C231.723 298.833 234.485 296.07 234.485 292.662C234.485 289.255 231.723 286.492 228.316 286.492C224.909 286.492 222.146 289.255 222.146 292.662Z" fill="#FF47F3"/>
<path d="M213.3 310.592C216.324 310.592 218.775 308.14 218.775 305.116C218.775 302.091 216.324 299.639 213.3 299.639C210.276 299.639 207.824 302.091 207.824 305.116C207.824 308.14 210.276 310.592 213.3 310.592Z" fill="#FF47F3"/>
<path d="M204.343 323.975C206.594 323.975 208.419 322.149 208.419 319.898C208.419 317.646 206.594 315.821 204.343 315.821C202.092 315.821 200.268 317.646 200.268 319.898C200.268 322.149 202.092 323.975 204.343 323.975Z" fill="#FF47F3"/>
<path d="M193.752 335.969C193.752 337.766 195.214 339.228 197.01 339.228C198.806 339.228 200.268 337.766 200.268 335.969C200.268 334.173 198.806 332.71 197.01 332.71C195.214 332.71 193.752 334.173 193.752 335.969Z" fill="#FF47F3"/>
<path d="M194.793 354.184C194.793 355.696 196.019 356.923 197.531 356.923C199.042 356.923 200.269 355.696 200.269 354.184C200.269 352.673 199.042 351.446 197.531 351.446C196.019 351.446 194.793 352.673 194.793 354.184Z" fill="#FF47F3"/>
<path d="M201.891 370.602C201.891 371.99 203.006 373.105 204.393 373.105C205.781 373.105 206.895 371.99 206.895 370.602C206.895 369.214 205.781 368.099 204.393 368.099C203.018 368.099 201.891 369.214 201.891 370.602Z" fill="#FF47F3"/>
<path d="M216.15 386.711C217.724 386.711 218.999 385.435 218.999 383.861C218.999 382.287 217.724 381.011 216.15 381.011C214.576 381.011 213.301 382.287 213.301 383.861C213.301 385.435 214.576 386.711 216.15 386.711Z" fill="#FF47F3"/>
<path d="M224.995 403.129C227.342 403.129 229.244 401.226 229.244 398.879C229.244 396.531 227.342 394.628 224.995 394.628C222.649 394.628 220.746 396.531 220.746 398.879C220.746 401.226 222.649 403.129 224.995 403.129Z" fill="#FF47F3"/>
<path d="M231.227 416.114C231.227 419.163 233.704 421.641 236.752 421.641C239.799 421.641 242.277 419.163 242.277 416.114C242.277 413.066 239.799 410.588 236.752 410.588C233.692 410.576 231.227 413.054 231.227 416.114Z" fill="#FF47F3"/>
<path d="M241.582 438.282C244.86 438.282 247.516 435.625 247.516 432.347C247.516 429.069 244.86 426.412 241.582 426.412C238.305 426.412 235.648 429.069 235.648 432.347C235.648 435.625 238.305 438.282 241.582 438.282Z" fill="#FF47F3"/>
<path d="M240.939 455.976C244.251 455.976 246.935 453.291 246.935 449.979C246.935 446.667 244.251 443.982 240.939 443.982C237.628 443.982 234.943 446.667 234.943 449.979C234.943 453.291 237.628 455.976 240.939 455.976Z" fill="#FF47F3"/>
<path d="M225.875 465.406C225.875 469.198 228.947 472.271 232.738 472.271C236.529 472.271 239.601 469.198 239.601 465.406C239.601 461.614 236.529 458.542 232.738 458.542C228.947 458.542 225.875 461.614 225.875 465.406Z" fill="#FF47F3"/>
<path d="M201.024 225.887C201.024 227.473 199.735 228.762 198.149 228.762C196.564 228.762 195.275 227.473 195.275 225.887C195.275 224.301 196.564 223 198.149 223C199.735 223 201.024 224.289 201.024 225.887Z" fill="white"/>
<path d="M194.569 241.859C194.569 244.077 192.772 245.874 190.555 245.874C188.337 245.874 186.541 244.077 186.541 241.859C186.541 239.641 188.337 237.844 190.555 237.844C192.772 237.844 194.569 239.641 194.569 241.859Z" fill="white"/>
<path d="M193.862 259.752C193.862 262.503 191.633 264.733 188.882 264.733C186.132 264.733 183.902 262.503 183.902 259.752C183.902 257.001 186.132 254.771 188.882 254.771C191.633 254.783 193.862 257.001 193.862 259.752Z" fill="white"/>
<path d="M192.995 284.1C196.56 284.1 199.45 281.21 199.45 277.645C199.45 274.079 196.56 271.189 192.995 271.189C189.431 271.189 186.541 274.079 186.541 277.645C186.541 281.21 189.431 284.1 192.995 284.1Z" fill="white"/>
<path d="M206.895 292.662C206.895 296.07 204.133 298.833 200.726 298.833C197.319 298.833 194.557 296.07 194.557 292.662C194.557 289.255 197.319 286.492 200.726 286.492C204.133 286.492 206.895 289.255 206.895 292.662Z" fill="white"/>
<path d="M215.741 310.592C218.765 310.592 221.217 308.14 221.217 305.116C221.217 302.091 218.765 299.639 215.741 299.639C212.717 299.639 210.266 302.091 210.266 305.116C210.266 308.14 212.717 310.592 215.741 310.592Z" fill="white"/>
<path d="M224.71 323.975C226.961 323.975 228.786 322.149 228.786 319.898C228.786 317.646 226.961 315.821 224.71 315.821C222.46 315.821 220.635 317.646 220.635 319.898C220.635 322.149 222.46 323.975 224.71 323.975Z" fill="white"/>
<path d="M235.29 335.969C235.29 337.766 233.828 339.228 232.032 339.228C230.235 339.228 228.773 337.766 228.773 335.969C228.773 334.173 230.235 332.71 232.032 332.71C233.828 332.71 235.29 334.173 235.29 335.969Z" fill="white"/>
<path d="M234.249 354.184C234.249 355.696 233.023 356.923 231.511 356.923C230 356.923 228.773 355.696 228.773 354.184C228.773 352.673 230 351.446 231.511 351.446C233.023 351.446 234.249 352.673 234.249 354.184Z" fill="white"/>
<path d="M227.151 370.602C227.151 371.99 226.036 373.105 224.649 373.105C223.261 373.105 222.146 371.99 222.146 370.602C222.146 369.214 223.261 368.099 224.649 368.099C226.024 368.099 227.151 369.214 227.151 370.602Z" fill="white"/>
<path d="M215.742 383.861C215.742 385.434 214.466 386.711 212.892 386.711C211.319 386.711 210.043 385.434 210.043 383.861C210.043 382.287 211.319 381.011 212.892 381.011C214.466 381.011 215.742 382.287 215.742 383.861Z" fill="white"/>
<path d="M208.295 398.879C208.295 401.22 206.387 403.129 204.046 403.129C201.705 403.129 199.797 401.22 199.797 398.879C199.797 396.537 201.705 394.628 204.046 394.628C206.4 394.628 208.295 396.537 208.295 398.879Z" fill="white"/>
<path d="M192.291 421.641C195.342 421.641 197.816 419.166 197.816 416.114C197.816 413.062 195.342 410.588 192.291 410.588C189.239 410.588 186.766 413.062 186.766 416.114C186.766 419.166 189.239 421.641 192.291 421.641Z" fill="white"/>
<path d="M187.471 438.282C190.748 438.282 193.405 435.625 193.405 432.347C193.405 429.069 190.748 426.412 187.471 426.412C184.194 426.412 181.537 429.069 181.537 432.347C181.537 435.625 184.194 438.282 187.471 438.282Z" fill="white"/>
<path d="M194.099 449.979C194.099 453.288 191.411 455.976 188.103 455.976C184.796 455.976 182.107 453.288 182.107 449.979C182.107 446.671 184.796 443.982 188.103 443.982C191.411 443.982 194.099 446.671 194.099 449.979Z" fill="white"/>
<path d="M196.304 472.271C200.095 472.271 203.168 469.197 203.168 465.406C203.168 461.615 200.095 458.542 196.304 458.542C192.514 458.542 189.441 461.615 189.441 465.406C189.441 469.197 192.514 472.271 196.304 472.271Z" fill="white"/>
</g>
<defs>
<linearGradient id="paint0_linear" x1="192.567" y1="178.632" x2="519.946" y2="675.196" gradientUnits="userSpaceOnUse">
<stop stop-color="white"/>
<stop offset="0.0849" stop-color="#F6F6F6"/>
<stop offset="0.2231" stop-color="#DEDEDE"/>
<stop offset="0.3974" stop-color="#B6B6B6"/>
<stop offset="0.6011" stop-color="#7F7F7F"/>
<stop offset="0.8265" stop-color="#3A3A3A"/>
<stop offset="1"/>
</linearGradient>
<radialGradient id="paint1_radial" cx="0" cy="0" r="1" gradientUnits="userSpaceOnUse" gradientTransform="translate(388.97 476.669) scale(296.254 296.321)">
<stop stop-color="white"/>
<stop offset="0.3301" stop-color="#FDFDFD"/>
<stop offset="0.4668" stop-color="#F6F6F6"/>
<stop offset="0.5676" stop-color="#EAEAEA"/>
<stop offset="0.651" stop-color="#D8D8D8"/>
<stop offset="0.7234" stop-color="#C1C1C1"/>
<stop offset="0.7884" stop-color="#A5A5A5"/>
<stop offset="0.8478" stop-color="#838383"/>
<stop offset="0.9028" stop-color="#5C5C5C"/>
<stop offset="0.9521" stop-color="#313131"/>
<stop offset="0.9984" stop-color="#020202"/>
<stop offset="1"/>
</radialGradient>
<linearGradient id="paint2_linear" x1="514.55" y1="325.869" x2="557.918" y2="424.22" gradientUnits="userSpaceOnUse">
<stop stop-color="white"/>
<stop offset="0.0849" stop-color="#F6F6F6"/>
<stop offset="0.2231" stop-color="#DEDEDE"/>
<stop offset="0.3974" stop-color="#B6B6B6"/>
<stop offset="0.6011" stop-color="#7F7F7F"/>
<stop offset="0.8265" stop-color="#3A3A3A"/>
<stop offset="1"/>
</linearGradient>
<linearGradient id="paint3_linear" x1="536.891" y1="295.673" x2="625.723" y2="355.938" gradientUnits="userSpaceOnUse">
<stop stop-color="white"/>
<stop offset="0.0849" stop-color="#F6F6F6"/>
<stop offset="0.2231" stop-color="#DEDEDE"/>
<stop offset="0.3974" stop-color="#B6B6B6"/>
<stop offset="0.6011" stop-color="#7F7F7F"/>
<stop offset="0.8265" stop-color="#3A3A3A"/>
<stop offset="1"/>
</linearGradient>
<linearGradient id="paint4_linear" x1="164.592" y1="675.098" x2="281.391" y2="774.202" gradientUnits="userSpaceOnUse">
<stop stop-color="white"/>
<stop offset="0.0849" stop-color="#F6F6F6"/>
<stop offset="0.2231" stop-color="#DEDEDE"/>
<stop offset="0.3974" stop-color="#B6B6B6"/>
<stop offset="0.6011" stop-color="#7F7F7F"/>
<stop offset="0.8265" stop-color="#3A3A3A"/>
<stop offset="1"/>
</linearGradient>
<linearGradient id="paint5_linear" x1="302.524" y1="264.71" x2="301.023" y2="374.274" gradientUnits="userSpaceOnUse">
<stop stop-color="white"/>
<stop offset="0.1868" stop-color="#D4D4D4"/>
<stop offset="0.6046" stop-color="#6A6A6A"/>
<stop offset="1"/>
</linearGradient>
<linearGradient id="paint6_linear" x1="217.362" y1="564.082" x2="217.362" y2="445.918" gradientUnits="userSpaceOnUse">
<stop offset="0.00372462" stop-color="#0090D3"/>
<stop offset="1" stop-color="#0090D3" stop-opacity="0"/>
</linearGradient>
<linearGradient id="paint7_linear" x1="217.361" y1="588.985" x2="217.361" y2="507.668" gradientUnits="userSpaceOnUse">
<stop stop-color="white"/>
<stop offset="1" stop-color="white" stop-opacity="0"/>
</linearGradient>
<linearGradient id="paint8_linear" x1="217.205" y1="568.308" x2="217.205" y2="305.337" gradientUnits="userSpaceOnUse">
<stop stop-color="white"/>
<stop offset="1" stop-color="white" stop-opacity="0"/>
</linearGradient>
<linearGradient id="paint9_linear" x1="245.511" y1="568.309" x2="245.511" y2="305.337" gradientUnits="userSpaceOnUse">
<stop stop-color="white"/>
<stop offset="1" stop-color="white" stop-opacity="0"/>
</linearGradient>
<linearGradient id="paint10_linear" x1="234.7" y1="679.779" x2="234.7" y2="416.807" gradientUnits="userSpaceOnUse">
<stop stop-color="white"/>
<stop offset="1" stop-color="white" stop-opacity="0"/>
</linearGradient>
<linearGradient id="paint11_linear" x1="198.146" y1="697.048" x2="198.146" y2="434.077" gradientUnits="userSpaceOnUse">
<stop stop-color="white"/>
<stop offset="1" stop-color="white" stop-opacity="0"/>
</linearGradient>
<linearGradient id="paint12_linear" x1="219.653" y1="686.583" x2="219.653" y2="423.611" gradientUnits="userSpaceOnUse">
<stop stop-color="white"/>
<stop offset="1" stop-color="white" stop-opacity="0"/>
</linearGradient>
<linearGradient id="paint13_linear" x1="188.499" y1="568.308" x2="188.499" y2="305.337" gradientUnits="userSpaceOnUse">
<stop stop-color="white"/>
<stop offset="1" stop-color="white" stop-opacity="0"/>
</linearGradient>
<linearGradient id="paint14_linear" x1="227.298" y1="568.308" x2="227.298" y2="305.336" gradientUnits="userSpaceOnUse">
<stop stop-color="white"/>
<stop offset="1" stop-color="white" stop-opacity="0"/>
</linearGradient>
<clipPath id="clip0">
<rect width="575" height="553" fill="white" transform="translate(115 223)"/>
</clipPath>
</defs>
</svg>
