<svg width="783" height="1016" viewBox="0 0 783 1016" fill="none" xmlns="http://www.w3.org/2000/svg">
<path fill-rule="evenodd" clip-rule="evenodd" d="M799.364 264.672C869.754 287.776 950.171 199.794 1017.21 231.328C1077.96 259.904 1072.62 352.106 1107.38 409.561C1142.24 467.19 1234.8 506.21 1223.7 572.663C1210.34 652.655 1075.14 664.244 1051.88 741.937C1031.56 809.817 1122.7 873.586 1112.61 943.719C1103.22 1008.97 1062.31 1083.27 999.783 1104.09C928.836 1127.7 857.593 1045.16 783.274 1053.35C723.105 1059.97 688.772 1143.73 628.255 1145.01C569.887 1146.24 518.942 1100.36 476.952 1059.8C437.641 1021.82 433.457 958.112 394.801 919.466C353.252 877.93 264.501 884.158 245.604 828.515C226.424 772.037 321.276 720.204 307.425 662.186C287.534 578.863 161.587 542.243 156.843 456.704C153.049 388.29 229.585 337 287.348 300.167C343.426 264.408 420.969 283.755 479.005 251.273C541.509 216.29 563.128 102.779 634.676 105.772C711.54 108.986 726.272 240.681 799.364 264.672Z" fill="#3B909F"/>
<g clip-path="url(#clip0)">
<path d="M535.242 395.009C535.201 395.02 535.205 395.016 535.242 395.009V395.009Z" fill="#EBF3FA"/>
<path d="M623.065 828.958L516.92 828.916H515.54L471.01 828.902C469.749 812.816 468.463 796.603 467.233 781.157C463.864 738.813 460.9 702.21 459.884 689.656C459.639 686.649 459.506 685.022 459.506 685.022L504.033 682.306L577.904 661.691C577.904 661.691 578.489 666.686 579.291 674.07C580.787 687.851 583.032 709.962 583.603 723.466C584.479 744.2 603.196 803.5 619.124 823.26C620.465 824.924 621.779 826.831 623.065 828.958Z" fill="#1C468A"/>
<path d="M559.968 446.543C559.968 446.543 516.65 467.456 491.674 459.696C491.674 459.696 497.822 451.937 508.579 446.164C507.714 441.149 507.041 436.796 506.66 433.106C505.602 424.589 505.602 419.763 505.602 419.763L522.315 406.61L538.162 394.024C536.915 429.415 559.968 446.543 559.968 446.543Z" fill="#FFB27D"/>
<path d="M538.453 407.557C538.453 407.557 527.502 427.523 506.659 433.106C505.602 424.59 505.602 419.764 505.602 419.764L522.314 406.61L538.453 407.557Z" fill="#ED985F"/>
<path d="M497.983 419.185C497.983 419.185 539.308 425.949 543.186 400.53C547.064 375.113 555.012 358.865 528.792 353.475C502.572 348.081 495.951 357.018 492.564 365.195C489.173 373.368 487.334 416.77 497.983 419.185Z" fill="#FFB27D"/>
<path d="M558.208 350.433C558.583 350.001 559.448 349.654 561.374 349.549C561.374 349.549 559.837 348.586 557.777 348.536C557.374 345.859 555.948 341.117 551.342 339.964C551.342 339.964 553.818 341.285 554.141 344.135C548.802 338.65 537.365 334.658 505.694 337.16C463.956 340.458 477.712 367.192 483.114 370.381C488.519 373.567 502.118 364.83 512.185 365.629C522.253 366.428 523.836 381.716 527.584 382.981C529.707 383.696 531.333 382.385 535.953 380.296C540.574 378.208 539.337 384.926 538.002 389.91C536.668 394.89 543.019 401.461 543.019 401.461C543.019 401.461 543.019 401.461 549.436 394.547C555.854 387.632 561.9 358.35 558.982 352.108C558.726 351.551 558.47 350.993 558.208 350.433Z" fill="#A9453D"/>
<path d="M631.783 615.309C631.367 605.342 608.825 497.684 589.38 468.142C576.842 449.097 550.815 436.081 550.815 436.081C549.088 434.756 538.229 440.802 528.238 445.624C519.113 450.068 513.617 449.97 504.971 448.27C504.971 448.27 495.604 454.144 492.704 456.408C481.529 465.135 470.701 479.123 465.615 498.994C461.39 515.835 458.889 546.305 457.544 577.91C456.872 592.294 456.392 606.681 456.199 620.398V620.871C456.104 622.291 456.104 623.71 456.104 625.126C455.624 660.233 456.104 688.148 456.777 688.621C457.544 689.287 458.409 689.662 459.369 689.662C468.782 689.47 496.161 694.678 519.309 692.312C538.905 690.419 556.196 684.745 574.73 676.604C577.231 675.472 582.896 672.447 582.801 669.791C582.706 666.766 582.416 662.504 582.034 657.019C581.813 653.911 581.561 650.434 581.312 646.621C580.307 631.249 579.287 610.448 579.886 586.809C588.224 598.925 594.441 607.589 595.068 608.934C597.233 613.582 593.818 685.898 593.818 685.898C598.232 694.537 615.34 695.666 615.34 695.666C615.34 695.666 632.2 625.28 631.783 615.309Z" fill="#1C468A"/>
<path d="M489.919 389.107C489.919 389.107 506.337 391.816 525.411 384.901L527.268 405.944C527.268 405.944 522.742 413.206 514.538 416.966C505.321 421.193 494.644 423.089 491.197 412.571C489.386 407.048 489.919 389.107 489.919 389.107Z" fill="#D2E4FF"/>
<path d="M525.177 407.423L524.924 406.641C525.117 406.578 534.989 398.633 539.013 388.964C540.099 386.356 541.203 382.214 539.865 381.793C533.409 379.764 523.341 387.818 524.473 386.542L524.644 385.343C525.184 385.052 533.864 379.245 540.649 381.379C542.208 381.87 540.923 386.822 539.739 389.661C537.98 393.884 537.353 395.065 534.439 398.952C530.806 403.799 525.226 407.409 525.177 407.423Z" fill="#D2E4FF"/>
<path d="M530.025 387.755C530.725 380.356 537.938 377.892 540.302 380.184C541.578 381.422 541.84 384.67 541.889 385.992C542.212 395.241 533.591 395.206 533.591 395.206C533.591 395.206 529.783 390.303 530.025 387.755Z" fill="#FFB27D"/>
<path d="M702.842 306.872C700.659 302.585 684.332 273.23 653.337 288.234C609.606 309.402 606.19 365.411 591.131 374.671C564.329 391.15 592.399 439.039 618.811 440.167C645.224 441.296 672.558 400.588 672.558 400.588L688.9 350.705L701.714 349.805L704.281 341.52C712.296 321.658 708.012 312.02 702.842 306.872Z" fill="#071E42"/>
<path d="M721.072 568.42C704.296 568.227 658.648 567.354 647.677 563.695C634.162 559.181 631.062 545.947 631.062 544.538C631.062 544.233 632.169 538.023 633.924 528.406C637.43 521.036 639.178 516.599 639.287 511.909C639.346 509.617 639.007 507.269 638.299 504.497C636.845 498.844 633.84 491.414 629.387 479.101C627.815 474.773 626.743 470.322 626.077 465.825C620.816 430.407 641.291 392.124 654.01 389.52C657.548 388.581 663.545 375.789 663.472 355.185L665.069 355.496L691.853 360.803C691.853 360.803 691.243 369.239 691.226 377.18C691.208 383.797 691.604 390.078 693.111 390.87C695.037 391.038 696.176 391.157 696.176 391.157C696.176 391.157 696.2 391.192 696.253 391.259C701.353 391.588 714.896 392.797 716.686 396.456L711.736 411.499L710.3 415.876C714.094 424.025 717.625 433.456 719.373 442.978C719.863 445.673 720.21 448.368 720.385 451.057C720.536 453.345 720.546 455.529 720.445 457.638C719.373 482.189 703.931 497.028 720.539 550.135C722.921 557.755 722.904 563.765 721.072 568.42Z" fill="#FFB27D"/>
<path d="M691.857 360.799C691.857 360.799 691.248 369.235 691.23 377.18C676.241 376.756 666.818 367.139 663.57 359.559L691.857 360.799Z" fill="#E8945B"/>
<path d="M695.33 370.314C695.33 370.314 659.863 370.9 659.842 348.795C659.817 326.691 655.225 311.883 677.868 310.573C700.511 309.265 704.922 317.694 706.722 325.068C708.519 332.446 704.557 369.592 695.33 370.314Z" fill="#FFB27D"/>
<path d="M723.492 669.696C723.492 669.696 755.558 592.118 753.87 535.776C753.681 529.422 754.007 512.61 753.183 505.699C753.246 466.652 726.935 400.448 716.016 394.462C710.338 391.35 693.012 390.789 693.114 390.869C693.114 390.869 697.352 398.776 701.321 408.043C704.288 414.968 700.467 422.924 693.219 424.974C693.072 425.016 692.925 425.055 692.774 425.097C689.117 426.085 685.008 425.654 680.899 424.448C670.856 421.501 662.977 413.661 659.706 403.714C656.248 393.207 655.187 388.844 655.187 388.844L636.747 392.198V392.201C636.747 392.198 636.743 392.198 636.743 392.194C636.743 392.194 623.712 394.963 617.547 404.251C609.371 416.566 585.288 479.7 575.588 541.24C572.912 558.235 723.492 669.696 723.492 669.696Z" fill="#A9453D"/>
<path d="M706.113 344.457C706.113 344.457 687.326 347.576 670.438 342.774L670.123 361.052C670.123 361.052 699.447 379.43 703.566 364.413C704.897 359.562 706.113 344.457 706.113 344.457Z" fill="#B6D7FF"/>
<path d="M672.018 362.201L672.19 361.511C672.018 361.469 663.012 355.216 658.949 347.113C657.852 344.93 656.157 338.32 657.285 337.875C662.732 335.726 672.404 345.165 671.349 344.131L671.129 343.107C670.645 342.89 663.016 335.614 657.288 337.871C655.975 338.39 657.169 345.378 658.364 347.758C660.14 351.294 660.753 352.276 663.509 355.454C666.935 359.418 671.973 362.191 672.018 362.201Z" fill="#B6D7FF"/>
<path d="M664.88 342.834C663.822 336.491 657.447 334.805 655.545 336.932C654.522 338.078 654.49 340.9 654.532 342.042C654.82 350.047 662.26 349.486 662.26 349.486C662.26 349.486 665.245 345.021 664.88 342.834Z" fill="#FFB27D"/>
<path d="M707.195 310.79C701.306 303.651 696.963 305.862 694.763 308.049C695.393 306.581 695.726 305.697 695.726 305.697C687.897 292.506 661.337 310.678 661.337 310.678C658.801 327.626 646.586 337.338 646.586 337.338C646.586 337.338 653.494 341.607 669.422 337.51C675.899 335.842 681.462 330.269 685.777 324.244C679.92 336.981 668.77 346.874 668.77 346.874C686.573 338.642 693.719 313.87 694.43 311.252C696.595 313.197 700.861 317.424 702.165 321.563C703.934 327.192 704.729 338.779 708.102 338.386C708.102 338.386 715.416 320.761 707.195 310.79Z" fill="#071E42"/>
<path d="M753.87 567.686C753.87 567.686 734.211 591.021 709.178 581.257C709.178 581.257 703.794 568.226 703.717 558.619C703.707 557.438 703.693 556.292 703.675 555.202C703.542 544.387 703.178 538.317 703.178 538.317C703.178 538.317 703.185 538.313 703.202 538.31C704.341 537.833 741.473 522.584 741.441 523.849C740.803 553.106 753.87 567.686 753.87 567.686Z" fill="#FFB27D"/>
<path d="M737.71 530.827C734.13 537.469 721.845 550.457 703.671 555.203C703.538 544.387 703.174 538.317 703.174 538.317C703.174 538.317 703.181 538.313 703.198 538.31C704.228 538.036 738.775 528.872 737.71 530.827Z" fill="#ED975D"/>
<path d="M695.402 537.192C695.402 537.192 737.158 547.012 742.871 520.902C748.584 494.792 757.822 478.474 731.402 471.1C704.982 463.726 697.605 472.551 693.58 480.801C689.555 489.054 684.686 533.964 695.402 537.192Z" fill="#FFB27D"/>
<path d="M741.442 528.017C742.013 528.381 750.998 531.143 768.012 497.231C770.685 491.907 772.503 480.391 766.274 470.213C760.05 460.039 737.97 452.037 719.628 448.554C701.287 445.074 696.883 455.398 692.564 465.776C688.031 476.669 674.934 485.641 674.934 485.641C690.75 494.48 709.802 481.838 716.402 483.916C723.002 485.995 725.335 496.404 725.829 499.737C726.323 503.073 727.86 507.079 737.735 502.274C745.666 498.416 739.137 514.632 737.809 517.453C737.809 517.453 736.681 524.967 741.442 528.017Z" fill="#2A4E96"/>
<path d="M672.88 664.095C673.132 677.932 673.934 693.486 675.017 709.282C675.083 710.218 675.15 711.157 675.216 712.093C675.91 721.878 676.663 731.688 677.525 741.255C677.872 745.09 678.24 748.882 678.625 752.607L678.684 753.108C678.712 754.503 678.884 756.014 679.038 757.395C682.562 793.224 686.254 821.528 686.941 821.962C687.761 822.509 688.682 822.779 689.691 822.663C699.082 821.482 727.099 823.613 750.041 818.622C769.398 814.536 786.066 806.794 803.728 796.35C806.071 794.962 811.417 791.289 810.982 788.548C810.555 785.531 800.134 632.241 795.902 616.988C788.038 588.652 766.715 563.814 752.216 555.326C750.321 554.264 740.127 560.755 730.764 566.765C722.118 572.313 713.014 573.845 704.162 573.07L696.371 581.692C686.938 592.665 676.887 607.277 674.145 628.046C673.938 629.581 673.763 631.21 673.616 632.942C672.848 641.395 672.666 652.106 672.88 664.095Z" fill="#2A4E96"/>
<path d="M688.906 508.05C688.906 508.05 707.812 511.482 727.236 505.618L727.944 526.731C727.944 526.731 723.029 533.737 714.632 537.045C705.199 540.764 692.031 540.385 689.365 531.245C687.733 525.665 688.906 508.05 688.906 508.05Z" fill="#D2E4FF"/>
<path d="M725.773 528.094L725.562 527.298C725.759 527.246 736.047 519.854 740.594 510.412C741.82 507.868 743.148 503.792 741.834 503.298C735.501 500.918 725.009 508.411 726.207 507.199L726.445 506.014C727.002 505.751 735.984 500.428 742.643 502.93C744.17 503.505 742.619 508.38 741.284 511.148C739.298 515.27 738.608 516.413 735.483 520.138C731.591 524.782 725.825 528.083 725.773 528.094Z" fill="#D2E4FF"/>
<path d="M731.685 508.719C732.788 501.37 740.123 499.302 742.362 501.724C743.567 503.027 743.654 506.287 743.626 507.608C743.444 516.86 734.837 516.356 734.837 516.356C734.837 516.356 731.306 511.253 731.685 508.719Z" fill="#FFB27D"/>
<path d="M378.492 530.253C378.492 530.253 398.151 553.587 423.184 543.827C423.184 543.827 428.568 530.796 428.645 521.19C428.652 520.009 428.669 518.863 428.687 517.773C428.82 506.957 429.184 500.887 429.184 500.887C429.184 500.887 429.177 500.883 429.16 500.88C428.021 500.403 390.889 485.154 390.921 486.419C391.562 515.673 378.492 530.253 378.492 530.253Z" fill="#FFB27D"/>
<path d="M394.651 493.394C398.231 500.035 410.516 513.024 428.686 517.769C428.819 506.953 429.184 500.883 429.184 500.883C429.184 500.883 429.177 500.88 429.159 500.876C428.133 500.603 393.586 491.438 394.651 493.394Z" fill="#ED975D"/>
<path d="M436.963 499.758C436.963 499.758 395.208 509.579 389.494 483.468C383.781 457.358 374.543 441.04 400.963 433.666C427.383 426.292 434.76 435.117 438.785 443.367C442.81 451.621 447.676 496.53 436.963 499.758Z" fill="#FFB27D"/>
<path d="M390.921 490.583C390.35 490.948 381.365 493.709 364.351 459.797C361.678 454.474 359.86 442.957 366.085 432.783C372.309 422.609 396.189 402.46 412.731 411.124C428.462 419.367 441.283 420.418 441.283 420.418C448.899 444.075 422.556 444.405 415.957 446.486C409.357 448.565 407.024 458.974 406.53 462.307C406.036 465.643 405.273 468.416 396.974 465.437C388.675 462.458 393.222 477.202 394.55 480.023C394.553 480.023 395.681 487.534 390.921 490.583Z" fill="#071E42"/>
<path d="M445.863 755.047C445.863 755.047 444.932 766.693 443.457 785.243C442.501 797.303 441.313 812.289 440.01 828.888C417.762 828.881 412.42 829.116 401.722 827.812C388.306 826.182 375.516 822.702 363.49 817.645C358.635 815.601 353.903 813.302 349.303 810.758C348.361 794.153 347.552 779.629 346.956 768.831C346.266 756.358 345.863 748.857 345.863 748.857L401.001 752.271L445.863 755.047Z" fill="#2B478B"/>
<path d="M429.52 760.353C429.52 760.353 425.841 769.585 419.655 784.68C414.951 796.161 408.796 811.035 401.72 827.816C373.429 824.378 345.444 812.363 321 790.683C321.564 780.509 322.797 767.054 323.953 755.506C325.305 742.041 326.563 731.173 326.563 731.173L400.998 752.268L429.52 760.353Z" fill="#2B478B"/>
<path d="M459.481 626.665C459.229 640.502 458.426 656.056 457.344 671.852C457.278 672.787 457.211 673.727 457.144 674.662C456.451 684.448 455.701 694.257 454.836 703.825C454.489 707.66 454.121 711.452 453.736 715.177L453.676 715.678C453.648 717.073 453.477 718.584 453.323 719.965C449.799 755.794 446.106 784.098 445.42 784.532C444.6 785.079 443.679 785.352 442.67 785.233C433.278 784.052 405.261 786.183 382.32 781.192C362.963 777.106 346.295 769.364 328.633 758.92C326.29 757.532 320.944 753.859 321.378 751.118C321.806 748.101 330.896 599.714 334.953 584.416C345.854 543.277 371.671 524.776 386.17 516.287C386.17 516.287 392.234 523.325 401.594 529.335C410.239 534.88 418.096 533.071 426.949 532.297L435.99 544.262C445.423 555.235 455.473 569.846 458.216 590.615C458.423 592.151 458.598 593.78 458.749 595.512C459.512 603.961 459.695 614.672 459.481 626.665Z" fill="#A9453D"/>
<path d="M443.275 470.428C443.275 470.428 424.142 473.803 404.717 467.939L404.01 489.052C404.01 489.052 408.924 496.054 417.321 499.366C426.755 503.085 439.923 502.706 442.588 493.566C444.221 487.983 443.275 470.428 443.275 470.428Z" fill="#D2E4FF"/>
<path d="M406.179 490.414L406.389 489.619C406.193 489.566 395.904 482.175 391.357 472.733C390.131 470.188 388.804 466.112 390.117 465.618C396.451 463.238 406.942 470.732 405.744 469.519L405.506 468.334C404.949 468.072 395.967 462.748 389.308 465.25C387.781 465.825 389.333 470.7 390.667 473.469C392.654 477.59 393.344 478.733 396.468 482.458C400.36 487.099 406.13 490.4 406.179 490.414Z" fill="#D2E4FF"/>
<path d="M400.266 471.037C399.163 463.688 391.827 461.62 389.589 464.042C388.384 465.346 388.296 468.605 388.324 469.926C388.506 479.179 397.113 478.674 397.113 478.674C397.113 478.674 400.648 473.571 400.266 471.037Z" fill="#FFB27D"/>
<path d="M490.307 534.676C491.193 532.959 501.411 514.78 530.521 527.309C530.521 527.309 515.641 522.343 510.288 527.394C510.288 527.394 523.487 524.264 530.139 530.411C536.792 536.558 534.925 552.414 532.851 556.942C530.774 561.467 519.592 573.94 514.054 572.832C511.955 572.415 509.85 571.269 508.046 570.008C508.393 572.689 508.617 575.573 508.656 578.696C509.023 607.564 486.422 624.948 477.938 617.847C472.498 613.295 465.747 623.062 465.747 623.062L428.465 545.779C428.465 545.779 472.221 510.375 490.307 534.676Z" fill="#071E42"/>
<path d="M419.314 828.878C389.28 828.878 361.557 819.716 337.975 803.833C350.417 766.255 382.133 672.742 391.805 666.076C398.475 661.478 413.923 659.841 427.55 659.347C440.844 658.867 452.404 659.469 452.404 659.469C452.404 659.469 462.314 659.487 474.97 660.917H474.974C475.114 660.934 475.254 660.952 475.397 660.966C475.422 660.966 475.443 660.969 475.46 660.973C489.728 662.61 507.334 666.041 518.204 673.215C527.785 679.538 561.641 807.72 567.187 828.93L419.314 828.878Z" fill="#F99746"/>
<path d="M475.398 660.931C470.777 653.322 467.502 635.525 469.061 611.767L466.115 616.743L430.941 621.471C430.941 621.471 431.053 632.466 430.437 642.769C429.957 650.827 428.99 655.646 427.259 660.125C427.13 660.135 427.126 660.146 427.238 660.16C426.702 661.071 415.297 680.813 430.437 684.43C471.548 694.261 475.24 662.526 475.394 660.991C475.524 660.977 475.531 660.956 475.398 660.931Z" fill="#FFB27D"/>
<path d="M430.938 621.471C430.938 621.471 431.051 632.462 430.438 642.769C449.914 643.428 461.292 626.318 466.116 616.743L430.938 621.471Z" fill="#ED975D"/>
<path d="M420.939 625.032C420.939 625.032 465.995 634.79 471.635 606.622C477.275 578.455 486.89 560.745 458.362 553.326C429.833 545.906 422.074 555.53 417.906 564.474C413.741 573.415 409.365 621.769 420.939 625.032Z" fill="#FFB27D"/>
<path d="M413.674 591.713C413.674 591.713 435.186 595.652 457.206 589L458.008 612.934C458.008 612.934 452.435 620.876 442.913 624.626C432.219 628.842 417.289 628.411 414.266 618.051C412.42 611.728 413.674 591.713 413.674 591.713Z" fill="#D2E4FF"/>
<path d="M455.553 614.486L455.314 613.586C455.539 613.526 467.204 605.143 472.357 594.443C473.747 591.558 475.254 586.936 473.765 586.375C466.584 583.676 454.687 592.172 456.047 590.798L456.316 589.452C456.947 589.154 467.13 583.115 474.683 585.954C476.417 586.606 474.655 592.133 473.141 595.273C470.892 599.945 470.108 601.242 466.566 605.465C462.149 610.729 455.609 614.472 455.553 614.486Z" fill="#D2E4FF"/>
<path d="M422.372 549.077C431.046 541.998 435.957 544.91 438.409 548.047C465.823 539.38 477.744 562.647 477.744 562.647C476.742 583.466 489.006 597.947 489.006 597.947C489.006 597.947 479.751 601.396 461.732 592.725C456.229 590.075 451.867 584.917 448.462 579.036C453.584 593.458 462.194 604.834 462.194 604.834C441.597 589.82 438.77 556.43 438.528 552.911C435.274 554.839 428.762 559.143 426.054 564.091C422.372 570.817 418.417 585.383 414.214 584.023C414.214 584.019 409.362 559.696 422.372 549.077Z" fill="#071E42"/>
<path d="M577.086 552.148C577.086 552.498 578.193 567.183 577.846 579.253C577.787 581.388 577.678 583.417 577.51 585.215H622.327C620.365 581.847 618.393 576.737 616.901 570.116C616.186 566.955 615.584 563.447 615.146 559.62C614.624 555.106 614.326 550.146 614.347 544.784L577.086 552.148Z" fill="#FFB27D"/>
<path d="M603.932 470.035C599.498 468.97 594.331 468.718 588.319 469.58C588.319 469.58 571.12 469.829 559.966 483.423C553.808 490.931 563.609 545.184 555.006 562.031C554.239 563.531 559.318 564.158 561.402 564.158C561.402 564.158 564.447 562.998 565.046 561.313C565.046 561.313 564.447 563.955 563.665 564.796C563.665 564.796 580.403 566.38 588.761 560.061C593.304 556.623 598.282 548.559 601.494 540.34L614.151 541.23C614.287 546.677 612.336 552.908 606.251 559.42C606.251 559.42 621.868 560.952 627.154 556.627C627.154 556.627 626.113 558.737 625.15 559.683C625.15 559.683 642.609 560.31 649.815 554.864C657.017 549.411 652.386 460.043 603.932 470.035Z" fill="#071E42"/>
<path d="M577.086 552.148C577.086 552.148 577.885 563.22 577.909 573.653C597.589 573.099 607.989 555.138 612.253 545.181L577.086 552.148Z" fill="#ED975D"/>
<path d="M570.513 562.024C570.513 562.024 617.072 562.791 617.107 533.776C617.138 504.76 623.17 485.316 593.444 483.599C563.717 481.881 557.93 492.946 555.566 502.629C553.198 512.313 558.4 561.078 570.513 562.024Z" fill="#FFB27D"/>
<path d="M575.395 485.653C575.395 485.653 565.874 493.254 563.555 500.642C561.232 508.03 560.188 523.241 555.757 522.726C555.757 522.726 546.152 499.587 556.948 486.497C568.392 472.615 575.395 485.653 575.395 485.653Z" fill="#071E42"/>
<path d="M678.673 828.98L646.218 828.966L623.063 828.955L540.914 828.924L529.68 828.92C530.748 818.557 532.384 808.617 534.854 800.532C542.364 775.922 546.837 761.065 548.554 755.346C548.782 754.585 548.96 753.986 549.093 753.548V753.544C549.272 752.941 549.363 752.643 549.363 752.643C549.363 752.643 585.02 761.595 623.031 755.934C628.468 755.125 633.95 754.017 639.383 752.542H639.387C641.632 751.932 643.867 751.259 646.084 750.523C646.088 750.52 646.088 750.52 646.091 750.52C646.091 750.52 646.235 750.828 646.508 751.41C649.787 758.416 671.432 804.966 677.738 825.833C678.042 826.835 678.354 827.886 678.673 828.98Z" fill="#031530"/>
<path d="M693.959 828.986C687.181 821.721 681.685 813.082 680.434 808.936C677.898 800.5 660.838 741.119 657.36 724.524C656.733 721.513 656.379 719.751 656.379 719.751C656.379 719.751 656.379 719.754 656.376 719.761C656.369 719.772 656.362 719.789 656.351 719.817C656.347 719.831 656.34 719.838 656.333 719.856C656.319 719.898 656.295 719.947 656.27 720.01C656.246 720.07 656.218 720.136 656.183 720.217C656.158 720.276 656.134 720.339 656.102 720.413C656.088 720.452 656.067 720.494 656.05 720.539C654.305 724.706 648.259 739.346 647.029 743.043C646.62 744.228 646.599 744.406 646.55 744.757C646.287 746.793 646.168 749.106 646.094 750.407V750.42C646.091 750.487 646.087 750.526 646.087 750.526C646.087 750.526 594.512 776.569 549.362 752.649C549.362 752.649 549.222 751.532 548.977 749.492V749.488C548.714 747.322 548.329 744.115 547.856 740.106C545.943 723.746 542.616 693.959 540.381 666.461C540.377 666.454 540.377 666.451 540.377 666.447C539.768 658.936 539.239 651.594 538.846 644.746C538.846 644.742 538.846 644.742 538.846 644.742C538.843 644.739 538.843 644.735 538.846 644.732C537.795 626.577 537.683 611.885 539.456 606.618C542.087 598.809 563.448 593.91 571.957 592.252C573.691 590.401 573.505 586.89 572.804 583.669C572.209 580.89 574.707 578.45 577.453 579.158C577.579 579.193 577.709 579.221 577.842 579.253C583.226 580.529 592.575 580.224 602.573 576.936C608.444 574.995 613.579 572.422 617.93 569.429C619.38 568.437 621.349 569.352 621.57 571.09C622.351 577.42 624.26 588.975 627.749 588.975C632.552 588.947 665.34 592.974 667.746 597.032C668.583 598.448 677.106 617.742 687.868 643.305C687.868 643.305 687.878 643.323 687.885 643.372C688.085 643.849 688.288 644.329 688.498 644.816C708.9 693.016 749.275 776.541 749.275 791.857C749.275 799.9 740.244 817.228 730.303 828.997L693.959 828.986Z" fill="#D2E4FF"/>
<path d="M656.38 719.755C656.38 719.755 646.876 742.444 646.578 744.561C646.445 745.514 646.329 746.822 646.242 747.975C641.649 751.725 636.094 754.571 630.433 756.291C614.354 761.166 607.369 730.332 608.329 714.95C609.289 699.567 632.027 655.656 639.6 654.742C647.167 653.834 656.38 719.755 656.38 719.755Z" fill="#B6DBFF"/>
<path d="M657.362 724.521C656.738 721.51 656.381 719.751 656.381 719.751C656.882 721.377 657.208 722.965 657.362 724.521Z" fill="#E58638"/>
<path d="M591.116 764.162C561.768 764.162 549.991 754.237 549.098 753.546L547.199 739.717C547.479 739.924 586.86 763.584 647.805 740.926L646.513 751.402C623.074 760.121 606.358 764.162 591.116 764.162Z" fill="#A9453D"/>
<path d="M749.279 791.861C749.279 799.904 740.248 817.231 730.307 829L720.757 828.997C722.642 777.88 688.761 646.253 687.889 643.372C688.088 643.849 688.292 644.329 688.502 644.816C708.907 693.017 749.279 776.541 749.279 791.861Z" fill="#B6DBFF"/>
<path d="M627.753 588.975C627.753 588.975 603.201 604.533 584.624 600.85C584.624 600.85 580.165 598.032 586.316 595.196C592.093 592.543 605.527 584.689 602.577 576.937C607.681 575.272 612.946 572.833 617.934 569.426C619.385 568.434 621.357 569.349 621.577 571.091C622.352 577.417 624.264 588.975 627.753 588.975Z" fill="#B6DBFF"/>
<path d="M556.887 532.314C556.887 532.314 580.896 533.99 601.567 525.929L604.149 548.885C604.149 548.885 569.452 575.517 562.474 557.117C560.222 551.177 556.887 532.314 556.887 532.314Z" fill="#EEF6FF"/>
<path d="M601.906 550.56L601.608 549.712C601.818 549.639 612.401 540.695 616.548 530.016C617.666 527.138 618.766 522.579 617.291 522.151C610.18 520.101 599.387 529.171 600.588 527.748L600.746 526.434C601.331 526.101 610.667 519.523 618.142 521.678C619.858 522.172 618.583 527.622 617.364 530.755C615.553 535.417 614.898 536.724 611.812 541.052C607.966 546.449 601.962 550.543 601.906 550.56Z" fill="#EEF6FF"/>
<path d="M608.573 525.337C609.144 517.227 616.966 514.346 619.611 516.792C621.037 518.11 621.412 521.657 621.496 523.1C622.091 533.205 612.665 533.394 612.665 533.394C612.665 533.394 608.373 528.133 608.573 525.337Z" fill="#FFB27D"/>
<path d="M573.627 486.803C573.627 486.803 582.71 522.453 607.396 533.868C607.396 533.868 582.71 511.966 580.615 488.432C578.517 464.901 573.627 486.803 573.627 486.803Z" fill="#071E42"/>
<path d="M572.238 482.888C572.238 482.888 584.986 516.929 604.55 521.965C624.114 526.998 632.602 521.755 632.602 521.755C632.602 521.755 617.595 509.828 614.481 489.007C614.478 489.007 581.854 466.685 572.238 482.888Z" fill="#071E42"/>
</g>
<defs>
<clipPath id="clip0">
<rect width="490" height="545" fill="white" transform="translate(321 284)"/>
</clipPath>
</defs>
</svg>
