<svg width="205" height="68" viewBox="0 0 205 68" fill="none" xmlns="http://www.w3.org/2000/svg">
<rect width="205" height="68" rx="9" fill="#5A64C5"/>
<path d="M41.892 37.444H36.654L35.754 40H33.612L38.094 27.472H40.47L44.952 40H42.792L41.892 37.444ZM41.316 35.77L39.282 29.956L37.23 35.77H41.316ZM51.0588 31.756H49.2228V40H47.1528V31.756H45.9828V30.082H47.1528V29.38C47.1528 28.24 47.4528 27.412 48.0528 26.896C48.6648 26.368 49.6188 26.104 50.9148 26.104V27.814C50.2908 27.814 49.8528 27.934 49.6008 28.174C49.3488 28.402 49.2228 28.804 49.2228 29.38V30.082H51.0588V31.756ZM54.9293 26.68V40H52.8773V26.68H54.9293ZM56.9394 34.996C56.9394 34 57.1434 33.118 57.5514 32.35C57.9714 31.582 58.5354 30.988 59.2434 30.568C59.9634 30.136 60.7554 29.92 61.6194 29.92C62.3994 29.92 63.0774 30.076 63.6534 30.388C64.2414 30.688 64.7094 31.066 65.0574 31.522V30.082H67.1274V40H65.0574V38.524C64.7094 38.992 64.2354 39.382 63.6354 39.694C63.0354 40.006 62.3514 40.162 61.5834 40.162C60.7314 40.162 59.9514 39.946 59.2434 39.514C58.5354 39.07 57.9714 38.458 57.5514 37.678C57.1434 36.886 56.9394 35.992 56.9394 34.996ZM65.0574 35.032C65.0574 34.348 64.9134 33.754 64.6254 33.25C64.3494 32.746 63.9834 32.362 63.5274 32.098C63.0714 31.834 62.5794 31.702 62.0514 31.702C61.5234 31.702 61.0314 31.834 60.5754 32.098C60.1194 32.35 59.7474 32.728 59.4594 33.232C59.1834 33.724 59.0454 34.312 59.0454 34.996C59.0454 35.68 59.1834 36.28 59.4594 36.796C59.7474 37.312 60.1194 37.708 60.5754 37.984C61.0434 38.248 61.5354 38.38 62.0514 38.38C62.5794 38.38 63.0714 38.248 63.5274 37.984C63.9834 37.72 64.3494 37.336 64.6254 36.832C64.9134 36.316 65.0574 35.716 65.0574 35.032ZM65.0934 26.752C65.0934 27.508 64.8474 28.114 64.3554 28.57C63.8754 29.026 63.2154 29.254 62.3754 29.254C61.5354 29.254 60.8754 29.026 60.3954 28.57C59.9154 28.102 59.6754 27.49 59.6754 26.734V26.356H60.8454C60.8454 26.788 60.9594 27.112 61.1874 27.328C61.4154 27.544 61.8114 27.652 62.3754 27.652C62.9394 27.652 63.3354 27.544 63.5634 27.328C63.7914 27.112 63.9054 26.788 63.9054 26.356H65.0934V26.752ZM86.5044 29.92C87.2844 29.92 87.9804 30.082 88.5924 30.406C89.2164 30.73 89.7024 31.21 90.0504 31.846C90.4104 32.482 90.5904 33.25 90.5904 34.15V40H88.5564V34.456C88.5564 33.568 88.3344 32.89 87.8904 32.422C87.4464 31.942 86.8404 31.702 86.0724 31.702C85.3044 31.702 84.6924 31.942 84.2364 32.422C83.7924 32.89 83.5704 33.568 83.5704 34.456V40H81.5364V34.456C81.5364 33.568 81.3144 32.89 80.8704 32.422C80.4264 31.942 79.8204 31.702 79.0524 31.702C78.2844 31.702 77.6724 31.942 77.2164 32.422C76.7724 32.89 76.5504 33.568 76.5504 34.456V40H74.4984V30.082H76.5504V31.216C76.8864 30.808 77.3124 30.49 77.8284 30.262C78.3444 30.034 78.8964 29.92 79.4844 29.92C80.2764 29.92 80.9844 30.088 81.6084 30.424C82.2324 30.76 82.7124 31.246 83.0484 31.882C83.3484 31.282 83.8164 30.808 84.4524 30.46C85.0884 30.1 85.7724 29.92 86.5044 29.92ZM92.5176 34.996C92.5176 34 92.7216 33.118 93.1296 32.35C93.5496 31.582 94.1136 30.988 94.8216 30.568C95.5416 30.136 96.3336 29.92 97.1976 29.92C97.9776 29.92 98.6556 30.076 99.2316 30.388C99.8196 30.688 100.288 31.066 100.636 31.522V30.082H102.706V40H100.636V38.524C100.288 38.992 99.8136 39.382 99.2136 39.694C98.6136 40.006 97.9296 40.162 97.1616 40.162C96.3096 40.162 95.5296 39.946 94.8216 39.514C94.1136 39.07 93.5496 38.458 93.1296 37.678C92.7216 36.886 92.5176 35.992 92.5176 34.996ZM100.636 35.032C100.636 34.348 100.492 33.754 100.204 33.25C99.9276 32.746 99.5616 32.362 99.1056 32.098C98.6496 31.834 98.1576 31.702 97.6296 31.702C97.1016 31.702 96.6096 31.834 96.1536 32.098C95.6976 32.35 95.3256 32.728 95.0376 33.232C94.7616 33.724 94.6236 34.312 94.6236 34.996C94.6236 35.68 94.7616 36.28 95.0376 36.796C95.3256 37.312 95.6976 37.708 96.1536 37.984C96.6216 38.248 97.1136 38.38 97.6296 38.38C98.1576 38.38 98.6496 38.248 99.1056 37.984C99.5616 37.72 99.9276 37.336 100.204 36.832C100.492 36.316 100.636 35.716 100.636 35.032ZM106.445 28.768C106.073 28.768 105.761 28.642 105.509 28.39C105.257 28.138 105.131 27.826 105.131 27.454C105.131 27.082 105.257 26.77 105.509 26.518C105.761 26.266 106.073 26.14 106.445 26.14C106.805 26.14 107.111 26.266 107.363 26.518C107.615 26.77 107.741 27.082 107.741 27.454C107.741 27.826 107.615 28.138 107.363 28.39C107.111 28.642 106.805 28.768 106.445 28.768ZM107.453 30.082V40H105.401V30.082H107.453ZM126.829 29.92C127.609 29.92 128.305 30.082 128.917 30.406C129.541 30.73 130.027 31.21 130.375 31.846C130.735 32.482 130.915 33.25 130.915 34.15V40H128.881V34.456C128.881 33.568 128.659 32.89 128.215 32.422C127.771 31.942 127.165 31.702 126.397 31.702C125.629 31.702 125.017 31.942 124.561 32.422C124.117 32.89 123.895 33.568 123.895 34.456V40H121.861V34.456C121.861 33.568 121.639 32.89 121.195 32.422C120.751 31.942 120.145 31.702 119.377 31.702C118.609 31.702 117.997 31.942 117.541 32.422C117.097 32.89 116.875 33.568 116.875 34.456V40H114.823V30.082H116.875V31.216C117.211 30.808 117.637 30.49 118.153 30.262C118.669 30.034 119.221 29.92 119.809 29.92C120.601 29.92 121.309 30.088 121.933 30.424C122.557 30.76 123.037 31.246 123.373 31.882C123.673 31.282 124.141 30.808 124.777 30.46C125.413 30.1 126.097 29.92 126.829 29.92ZM142.508 30.082V40H140.456V38.83C140.132 39.238 139.706 39.562 139.178 39.802C138.662 40.03 138.11 40.144 137.522 40.144C136.742 40.144 136.04 39.982 135.416 39.658C134.804 39.334 134.318 38.854 133.958 38.218C133.61 37.582 133.436 36.814 133.436 35.914V30.082H135.47V35.608C135.47 36.496 135.692 37.18 136.136 37.66C136.58 38.128 137.186 38.362 137.954 38.362C138.722 38.362 139.328 38.128 139.772 37.66C140.228 37.18 140.456 36.496 140.456 35.608V30.082H142.508ZM147.267 26.68V40H145.215V26.68H147.267ZM152.355 31.756V37.246C152.355 37.618 152.439 37.888 152.607 38.056C152.787 38.212 153.087 38.29 153.507 38.29H154.767V40H153.147C152.223 40 151.515 39.784 151.023 39.352C150.531 38.92 150.285 38.218 150.285 37.246V31.756H149.115V30.082H150.285V27.616H152.355V30.082H154.767V31.756H152.355ZM165.749 34.798C165.749 35.17 165.725 35.506 165.677 35.806H158.099C158.159 36.598 158.453 37.234 158.981 37.714C159.509 38.194 160.157 38.434 160.925 38.434C162.029 38.434 162.809 37.972 163.265 37.048H165.479C165.179 37.96 164.633 38.71 163.841 39.298C163.061 39.874 162.089 40.162 160.925 40.162C159.977 40.162 159.125 39.952 158.369 39.532C157.625 39.1 157.037 38.5 156.605 37.732C156.185 36.952 155.975 36.052 155.975 35.032C155.975 34.012 156.179 33.118 156.587 32.35C157.007 31.57 157.589 30.97 158.333 30.55C159.089 30.13 159.953 29.92 160.925 29.92C161.861 29.92 162.695 30.124 163.427 30.532C164.159 30.94 164.729 31.516 165.137 32.26C165.545 32.992 165.749 33.838 165.749 34.798ZM163.607 34.15C163.595 33.394 163.325 32.788 162.797 32.332C162.269 31.876 161.615 31.648 160.835 31.648C160.127 31.648 159.521 31.876 159.017 32.332C158.513 32.776 158.213 33.382 158.117 34.15H163.607Z" fill="white"/>
</svg>
