<svg width="699" height="953" viewBox="0 0 699 953" fill="none" xmlns="http://www.w3.org/2000/svg">
<path fill-rule="evenodd" clip-rule="evenodd" d="M712.755 108.601C805.738 133.286 895.679 178.057 957.377 249.099C1015.88 316.462 1039.63 405.127 1045.06 491.233C1049.8 566.437 1013.4 634.529 986.102 704.526C962.353 765.413 933.996 821.821 895.317 875.134C851.732 935.209 809.958 996.588 745.393 1036.31C668.486 1083.61 582.97 1132.64 490.415 1124.21C395.593 1115.57 316.573 1051.26 244.678 990.68C172.09 929.52 93.1871 862.533 73.7204 773.112C54.6041 685.3 101.282 599.178 142.161 519.768C176.626 452.82 248.165 414.278 290.646 351.729C343.78 273.492 338.486 155.437 422.437 107.083C505.613 59.1742 617.347 83.2721 712.755 108.601Z" fill="#5A64C5"/>
<g clip-path="url(#clip0)">
<path d="M518.461 766.81C518.141 766.73 517.841 766.64 517.561 766.58C515.241 766.03 512.951 765.33 510.711 764.52C509.041 763.91 500.751 761.24 502.261 758.23C503.481 755.8 515.211 757.85 517.621 758.09C520.361 758.36 523.081 758.73 525.791 759.19C527.321 759.45 531.981 761.26 533.291 760.71C530.471 761.89 527.771 763.32 525.041 764.67C523.621 765.37 521.761 766.69 520.221 766.99C519.691 767.09 519.061 766.96 518.461 766.81Z" fill="#FFA58D"/>
<path d="M549.291 785.24C535.281 785.48 521.351 789.14 509.031 795.81C506.191 797.35 503.361 799.05 500.221 799.93C499.241 800.21 496.931 800.98 496.191 799.84C495.471 798.74 497.461 796.81 498.081 796.05C499.221 794.64 500.491 793.34 501.871 792.16C504.521 789.89 507.611 788.05 510.971 787.05C502.461 789.9 493.951 792.76 485.431 795.61C484.671 795.86 483.891 796.12 483.101 796.06C482.301 796 481.481 795.53 481.261 794.76C480.891 793.48 482.241 792.42 483.411 791.78C491.271 787.48 498.731 782.36 507.031 778.98C497.211 782.51 487.391 786.04 477.571 789.57C476.021 790.13 473.921 790.51 473.061 789.11C472.531 788.26 472.821 787.09 473.461 786.32C474.101 785.55 475.031 785.09 475.931 784.65C485.231 780.1 494.911 775 504.461 771.01C496.301 773.33 488.141 775.65 479.981 777.98C478.791 778.32 477.191 778.5 476.601 777.41C475.931 776.16 477.361 774.85 478.601 774.17C498.521 763.27 521.591 758.2 544.251 759.76C545.111 767.6 547.961 777.47 549.291 785.24Z" fill="#FFA58D"/>
<path d="M502.009 646.48C493.389 677.85 481.969 709.18 469.169 739.09H425.859C437.949 695.42 451.299 652.1 465.879 609.2C466.489 607.4 470.329 607.03 472.159 607.58C473.989 608.13 475.489 609.41 476.899 610.69C488.039 620.78 495.659 632.86 502.009 646.48Z" fill="#FFA58D"/>
<path d="M551.58 566.86C552.78 565.57 553.69 564.07 553.93 562.47C554.56 558.2 554.29 553.28 554.44 548.9C554.79 538.88 554.59 528.84 553.85 518.84C558.38 534.41 571.25 547.23 586.48 552.81C585.9 555.29 585.37 557.8 585 560.32C584.45 564.11 585.83 567.1 589.04 569.41C591.55 571.22 594.57 572.15 597.55 573.01C595.8 577.84 593.77 582.68 591.11 587.07C588.45 591.46 584.81 595.41 580.16 597.59C574.93 600.04 568.81 600.06 563.19 598.74C551.84 596.09 541.89 587.99 537 577.4C535.56 574.29 534.91 573.55 538.62 572.88C541.44 572.36 544.25 571.68 546.82 570.38C548.37 569.6 550.17 568.37 551.58 566.86Z" fill="#FFA58D"/>
<path d="M591.67 570.19C591.82 570.22 591.99 570.27 592.18 570.31C593.37 570.6 594.57 570.82 595.77 571.08C598.16 571.61 600.54 572.16 602.91 572.73C607.66 573.87 612.39 575.1 617.1 576.42C621.81 577.74 626.49 579.15 631.14 580.64C631.68 580.81 632.21 580.98 632.74 581.16C641.26 583.94 650.09 587.26 655.96 594.04C662.05 601.07 663.99 610.68 665.72 619.82C672.23 654.3 678.73 688.78 685.24 723.26C687.11 733.18 680.12 736.08 672.8 743.03C665.48 749.98 656.11 754.29 646.92 758.48C619.65 770.92 596.8 776.13 545.44 787.39C539.45 781.46 534.55 766.49 533.31 759.11C559 744.51 563.11 742.66 572.22 739.13H490.42C491.6 710.8 491.94 699.02 495.06 679.89C496.88 668.74 498.66 662.72 501.95 651.91C507.91 632.34 485.56 613.37 467.99 602.89C490.57 589.42 515.83 576.39 541.76 572.04C544.59 583.32 555.56 591.66 567.17 591.08C570.69 590.9 574.16 589.95 577.3 588.36C580.42 586.78 583.23 584.57 585.49 581.89C587.74 579.21 589.44 576.07 590.35 572.68C590.52 572.06 590.65 571.44 590.77 570.81C590.89 570.14 591.21 570.09 591.67 570.19Z" fill="#FFE8E2"/>
<path d="M613.01 520.189C612.46 528.049 610.54 535.919 606.51 542.679C602.48 549.449 596.21 555.049 588.69 557.389C581.17 559.729 572.42 558.519 566.36 553.479C561.63 549.549 558.87 543.749 556.85 537.939C554.59 531.409 553.08 524.569 553.11 517.659C553.14 510.749 554.75 503.769 558.37 497.889C563.79 489.079 573.74 483.229 584.07 482.789C591.26 482.479 598.48 484.799 604.28 489.029C606.68 490.779 609.5 493.059 611.02 495.669C612.57 498.329 612.44 502.139 612.71 505.109C613.17 510.119 613.36 515.169 613.01 520.189Z" fill="#FFA58D"/>
<path d="M552.771 505.65C556.621 506.49 561.561 503.54 564.241 501.11C567.361 498.28 570.351 494.86 574.471 493.96C577.391 493.32 580.461 494.07 583.201 495.28C585.941 496.48 588.471 498.13 591.191 499.39C599.891 503.43 610.491 503.2 618.921 498.61C627.341 494.02 633.311 485.13 634.181 475.58C634.491 472.11 634.141 468.49 632.481 465.43C630.821 462.37 627.711 459.97 624.241 459.8C618.821 459.54 614.071 464.47 608.671 463.94C604.741 463.55 601.751 460.41 598.711 457.9C593.591 453.68 586.901 450.74 580.371 451.96C573.011 453.33 567.581 459.52 563.441 465.76C562.551 467.1 561.521 463.88 560.251 462.89C558.981 461.9 557.781 460.63 556.181 460.41C548.601 459.37 545.771 475.9 545.301 480.83C544.651 487.82 545.301 497.12 549.271 503.18C550.191 504.59 551.411 505.35 552.771 505.65Z" fill="#193F63"/>
<path d="M555.921 500.54C554.931 499.13 553.761 497.79 552.251 496.96C550.741 496.13 548.821 495.9 547.291 496.68C545.091 497.81 544.321 500.57 544.161 503.04C543.681 510.53 546.871 518.17 552.541 523.08C553.291 523.73 554.211 524.37 555.191 524.22C556.271 524.06 556.971 523.01 557.471 522.03C561.261 514.59 560.711 507.4 555.921 500.54Z" fill="#FFA58D"/>
<path d="M557.509 503.109C562.089 509.389 567.159 514.869 573.009 519.989C578.859 525.119 586.099 528.999 593.859 529.449C601.619 529.899 609.849 526.419 613.749 519.689C614.059 519.729 614.369 519.769 614.679 519.809C614.349 533.909 607.379 547.589 596.529 556.599C592.629 559.839 588.119 562.509 583.129 563.399C571.069 565.539 562.179 554.629 557.909 544.669C554.859 537.549 552.759 529.589 551.359 521.969C552.299 523.209 554.909 523.829 556.379 523.419C557.849 523.009 558.959 521.719 559.499 520.279C560.039 518.849 560.089 517.279 560.049 515.749C559.949 511.259 558.959 507.369 557.509 503.109Z" fill="#FFE8E2"/>
<path d="M547.051 503.63C547.441 502.21 548.931 501.26 550.391 501.27C551.861 501.28 553.241 502.11 554.151 503.26C555.061 504.41 555.541 505.85 555.801 507.29" stroke="#CB7C5E" stroke-width="0.75" stroke-miterlimit="10"/>
<path d="M551.789 501.58C550.379 503.04 549.699 505.07 549.519 507.09C549.339 509.11 549.609 511.13 549.889 513.14" stroke="#CB7C5E" stroke-width="0.75" stroke-miterlimit="10"/>
<path d="M575.43 579.3C578.58 577.78 581.89 576.59 585.28 575.76" stroke="#CB7C5E" stroke-width="0.75" stroke-miterlimit="10"/>
<path d="M565.209 579.55C560.849 577.66 556.229 576.35 551.529 575.66" stroke="#CB7C5E" stroke-width="0.75" stroke-miterlimit="10"/>
<path d="M501.22 625.28C497.57 614.74 490.88 605.53 483.77 596.93C482.51 595.41 480.93 593.76 478.96 593.86C476.56 593.99 475.15 596.57 473.14 597.88C471.44 598.98 469.34 599.14 467.36 599.57C465.38 599.99 463.27 600.87 462.44 602.71C461.44 604.92 462.69 607.46 462.71 609.89C462.76 615.22 456.99 619.09 456.53 624.4C456.45 625.34 456.62 626.44 457.43 626.94C457.95 627.26 458.6 627.25 459.22 627.24C467.68 627.2 475.64 631.74 481.51 637.83C487.37 643.92 491.43 651.49 495.27 659.02C496 660.45 497.56 661.06 499.02 660.18C500.01 659.58 500.63 658.54 501.17 657.51C503.81 652.43 505.13 646.69 505.09 640.96C505.07 638.05 504.7 635.14 503.97 632.32C503.32 629.92 502.05 627.66 501.22 625.28Z" fill="#FFE8E2"/>
<path d="M464.76 613.25C472.97 617.1 480 623.45 484.67 631.23" stroke="#193F63" stroke-width="0.75" stroke-miterlimit="10"/>
<path d="M484.279 617.83C489.489 626.52 492.979 636.23 494.499 646.24" stroke="#193F63" stroke-width="0.75" stroke-miterlimit="10"/>
<path d="M475.631 599.149C478.311 601.439 480.601 604.169 482.401 607.199" stroke="#193F63" stroke-width="0.75" stroke-miterlimit="10"/>
<path d="M482.869 598.279C487.729 606.179 491.539 614.739 494.149 623.639" stroke="#193F63" stroke-width="0.75" stroke-miterlimit="10"/>
<path d="M501.711 638.819C501.621 643.299 501.151 647.779 500.311 652.189" stroke="#193F63" stroke-width="0.75" stroke-miterlimit="10"/>
<path d="M511.019 644.979C507.189 647.179 504.039 650.55 502.109 654.52" stroke="#193F63" stroke-width="0.75" stroke-miterlimit="10"/>
<path d="M621.721 646.21C623.701 665.52 627.741 688.21 629.721 707.52C611.841 714.95 599.081 723.37 574.811 737.46" stroke="#193F63" stroke-width="0.75" stroke-miterlimit="10"/>
<path d="M597.55 573.01C597.55 573.01 593.11 598.04 566.7 597.53C540.29 597.01 536.99 577.41 536.99 577.41" stroke="#193F63" stroke-width="0.75" stroke-miterlimit="10"/>
<path d="M578.56 595.75L566.7 610.96L556.09 596.19" stroke="#193F63" stroke-width="0.75" stroke-miterlimit="10"/>
<path d="M629.811 711.489C632.581 714.729 635.341 717.969 638.111 721.209" stroke="#193F63" stroke-width="0.75" stroke-miterlimit="10"/>
<path d="M634.16 706.41C640.93 706.94 647.58 709.03 653.43 712.48" stroke="#193F63" stroke-width="0.75" stroke-miterlimit="10"/>
<path d="M338.231 511.77C339.261 515.26 340.331 518.8 340.391 522.44C340.441 526.08 339.331 529.91 336.611 532.33C334.951 533.8 332.781 534.71 331.451 536.48C330.401 537.88 330.021 539.65 329.431 541.29C328.841 542.94 327.881 544.62 326.261 545.26C324.001 546.15 321.361 544.69 319.071 545.48C317.101 546.16 316.041 548.24 314.521 549.67C311.301 552.71 305.991 552.54 302.131 550.38C298.571 548.4 295.861 544.87 295.081 540.87C294.301 536.87 295.551 532.49 298.471 529.66C302.071 526.18 307.411 525.41 311.961 523.32C316.531 521.23 320.351 517.74 323.411 513.75C325.121 511.52 326.601 509.13 327.951 506.67C329.231 504.33 330.131 501.57 331.641 499.38C334.831 494.74 336.041 500.64 336.361 503.21C336.701 506.14 337.391 508.95 338.231 511.77Z" fill="#193F63"/>
<path d="M299.191 534.96C295.731 545.13 295.251 556.28 297.801 566.71C293.921 573.5 289.811 579.92 284.791 585.92C276.381 580.59 269.271 573.1 264.351 564.44C259.811 556.45 255.171 545.91 259.981 537.31C262.111 533.51 263.921 529.5 265.611 525.48C269.061 517.28 271.851 508.82 274.561 500.35C279.391 513.7 288.171 526.02 299.191 534.96Z" fill="#FFA58D"/>
<path d="M335.46 509.07C333.31 516.26 329.79 523.14 324.55 528.51C319.32 533.89 312.27 537.67 304.79 538.22C297.31 538.77 289.47 535.85 284.77 530C281.23 525.59 279.66 519.96 278.38 514.45C277 508.54 275.85 502.43 276.78 496.43C277.69 490.55 280.61 485.08 284.63 480.7C288.65 476.32 293.73 472.99 299.17 470.59C305.08 467.98 311.54 466.42 318 466.78C323.28 467.07 332.89 468.89 334.97 474.69C335.88 477.22 336.21 480.24 336.79 482.86C337.67 486.88 337.99 491.02 337.82 495.13C337.63 499.85 336.81 504.54 335.46 509.07Z" fill="#FFA58D"/>
<path d="M380.529 669.5C382.169 669.55 384.369 666.55 385.259 665.4C386.599 663.67 387.709 661.77 388.919 659.94C390.439 657.65 392.219 655.18 394.829 654.09C397.609 652.94 400.699 652.75 403.669 652.9C407.119 653.07 410.549 653.69 413.999 653.71C415.379 653.72 416.779 653.64 418.069 653.15C419.359 652.66 420.529 651.73 421.039 650.45C421.519 649.22 420.849 648.24 420.679 647.04C420.409 645.19 421.799 645.36 423.259 644.92C424.829 644.44 426.489 643.67 426.449 641.83C426.409 640.09 425.499 638.35 424.019 637.4C424.629 637.79 426.909 635.87 427.309 635.48C428.289 634.54 428.949 633.42 429.419 632.16C429.929 630.8 429.979 629.83 429.429 628.42C428.879 627.01 427.919 625.79 427.029 624.58C428.919 623.61 431.679 622.58 433.819 622.7C435.099 622.77 436.359 623.03 437.639 623.03C438.719 623.03 439.949 622.75 440.459 621.8C440.829 621.1 440.689 620.22 440.269 619.55C439.859 618.88 439.209 618.39 438.539 617.97C433.579 614.87 428.259 616.16 422.819 616.84C417.179 617.55 411.559 618.41 406.029 619.73C410.349 615.39 414.659 611.04 418.979 606.7C419.439 606.24 419.939 605.62 419.719 605.01C419.469 604.32 418.549 604.22 417.819 604.3C410.349 605.05 404.329 610.52 398.909 615.71C386.509 627.58 374.099 639.45 361.699 651.32C366.299 658.22 372.589 664.4 379.429 669.07C379.839 669.37 380.199 669.49 380.529 669.5Z" fill="#57BAB2"/>
<path d="M387.87 742.069C397.73 738.389 408.34 736.379 418.87 736.669C423.97 736.809 428.74 738.129 433.73 738.679C439.4 739.309 445.13 739.449 450.83 739.109C453.54 738.949 456.25 739.299 458.92 738.909C462.14 738.429 465.33 737.769 468.47 736.939C469.46 736.679 470.51 736.369 471.27 735.569C472.04 734.769 472.38 733.329 471.73 732.519C471.27 731.949 470.51 731.869 469.81 731.819C464.12 731.419 457.74 730.029 452.05 729.629C461 729.589 470.07 727.719 478.67 724.119C479.7 723.689 480.9 722.979 481 721.769C481.07 720.939 480.52 720.219 479.86 719.909C479.2 719.599 478.44 719.609 477.71 719.619C470.44 719.759 462 719.809 454.73 719.939C464.55 718.789 474.07 715.979 483.82 712.979C485.16 712.569 486.65 711.039 486.2 709.619C485.9 708.669 484.87 708.339 483.96 708.279C475.02 707.679 465.4 708.579 456.63 710.179C456.23 710.249 455.77 710.319 455.44 710.079C455.01 709.779 455.02 709.099 455.31 708.669C455.6 708.239 456.08 707.979 456.55 707.739C462.11 704.869 467.82 702.199 473.01 698.769C474.03 698.089 475.23 697.019 474.99 695.769C474.71 694.349 472.94 694.369 471.64 694.689C462.63 696.939 453.66 699.489 444.69 702.029C441.64 702.899 438.13 702.289 437.94 698.319C437.87 696.839 438.48 695.419 439.05 694.039C439.61 692.709 445.12 680.389 443.8 679.609C442.47 678.829 438.64 682.869 437.85 683.679C435.84 685.739 434.13 688.059 432.27 690.239C427.16 696.219 420.82 701.119 413.77 704.599C406.86 708.009 397.77 708.719 390.09 708.539C389.15 708.519 388.21 708.469 387.27 708.409C383.95 719.449 383.85 731.979 387.87 742.069Z" fill="#57BAB2"/>
<path d="M125 739.15C135.87 697.57 140.2 673.64 154.55 635.78C163.74 611.53 173.22 586.79 189.82 566.86C206.42 546.93 234.57 530.89 260.32 534.01C261.08 551.33 271.63 568.31 285.82 578.27C290.78 572.57 294.52 566.59 296.48 559.29C308.51 568.93 312.81 585.08 315.9 600.19C322.27 631.37 326.44 662.99 328.38 694.75C338.27 677.41 349.75 662.3 363.18 647.53C371.32 652.95 379.2 659.79 385.79 667.02C380.76 678.02 376.68 690.36 373.83 702.12C384.72 704.15 396.51 704.12 407.55 705.06C407.17 716.75 407.85 728.16 407.47 739.85C365.37 756.85 293.37 752.68 250.02 739.17L125 739.15Z" fill="#6CBBD9"/>
<path d="M182.051 607.34C195.081 635.8 208.101 664.26 221.131 692.72C225.461 702.17 229.811 711.68 235.691 720.25C241.571 728.82 249.111 736.5 258.461 741.05" stroke="#193F63" stroke-width="0.75" stroke-miterlimit="10"/>
<path d="M296.92 692.979C296.92 692.979 330.76 696.539 370.84 702.179" stroke="#193F63" stroke-width="0.75" stroke-miterlimit="10"/>
<path d="M359.721 654.34L380.571 672.06" stroke="#193F63" stroke-width="0.75" stroke-miterlimit="10"/>
<path d="M399.971 706.27L401.011 739.84" stroke="#193F63" stroke-width="0.75" stroke-miterlimit="10"/>
<path d="M298.151 600.109C302.791 620.899 295.801 643.899 280.381 658.599" stroke="#193F63" stroke-width="0.75" stroke-miterlimit="10"/>
<path d="M312.09 481.44C317.75 483.62 323.84 487.55 329.33 484.99C331.59 483.94 333.43 481.85 335.91 481.57C338.16 481.31 340.25 482.63 342.38 483.4C348.26 485.52 355.22 483.27 359.41 478.62C363.59 473.97 365.14 467.32 364.36 461.11C363.57 454.9 360.63 449.12 356.8 444.18C351.68 437.57 344.15 432 335.82 432.34C327.17 432.69 319.79 439.24 311.18 440.04C305.35 440.59 299.62 438.44 294.27 436.04C288.92 433.64 283.59 430.91 277.78 430.17C268.76 429.03 260.97 433.76 256.81 441.58C254.61 445.71 253.16 450.21 250.96 454.34C248.57 458.83 245.15 462.29 240.68 464.7C236.09 467.17 230.92 468.48 228.5 473.63C224.4 482.33 233.01 492.76 230.01 501.9C227.96 508.17 220.8 512.38 220.56 518.98C220.23 528.28 231.39 534.35 238.71 537.18C244.56 539.44 251.18 540.15 257.12 538.15C263.87 535.88 269.24 530 271.06 523.14C272.11 519.18 273.78 515.48 274.56 511.38C275.42 506.87 275.87 502.29 277.14 497.87C281.44 482.86 297.93 475.99 312.09 481.44Z" fill="#193F63"/>
<path d="M282.57 488.63C282.07 486.36 280.97 484.15 279.11 482.76C277.25 481.37 274.56 480.98 272.58 482.19C269.98 483.78 269.44 487.34 269.69 490.38C270.11 495.65 272.06 500.8 275.24 505.02C276.04 506.08 277.24 507.2 278.52 506.82C279.47 506.54 279.99 505.54 280.38 504.62C282.61 499.37 283.81 494.33 282.57 488.63Z" fill="#FFA58D"/>
<path d="M271.539 485.42C272.379 484.23 274.099 483.87 275.479 484.35C276.859 484.84 277.899 486.02 278.539 487.33C279.179 488.64 279.469 490.09 279.759 491.53" stroke="#CB7C5E" stroke-width="0.75" stroke-miterlimit="10"/>
<path d="M276.45 485.069C274.15 488.069 273.28 492.109 274.13 495.789" stroke="#CB7C5E" stroke-width="0.75" stroke-miterlimit="10"/>
<path d="M282.409 487.439C289.539 497.629 299.889 505.529 311.589 509.729C319.129 512.439 327.619 513.579 335.079 510.659C332.799 518.529 328.879 525.819 323.089 531.619C317.869 536.839 310.859 540.919 303.419 541.479C300.199 541.719 296.919 541.419 293.879 540.309C289.559 538.729 286.009 535.579 283.379 531.859C282.069 530.009 281.119 527.989 280.029 526.019C278.719 523.649 277.669 521.129 276.859 518.549C276.159 516.309 275.639 514.009 275.319 511.679C275.009 509.449 274.479 507.039 275.669 505.009C276.969 505.949 278.219 507.029 279.779 507.379C281.339 507.729 283.119 507.459 284.249 506.319C285.129 505.429 285.499 504.139 285.579 502.889C285.939 497.619 282.199 492.739 282.409 487.439Z" fill="#FFE8E2"/>
<path d="M279.8 592.249C277.68 581.799 267.32 575.469 260.9 566.939C253.24 556.759 251.38 542.499 256.17 530.689C256.89 530.709 257.61 530.719 258.34 530.739" stroke="#193F63" stroke-miterlimit="10"/>
<path d="M310.719 630.84L303.119 605.17C300.219 595.36 289.909 589.76 280.099 592.67C270.289 595.57 264.689 605.88 267.599 615.69L275.199 641.36" stroke="#FFE8E2" stroke-width="2" stroke-miterlimit="10"/>
<path d="M313.73 627.089C313.33 625.849 312.38 624.809 311.1 624.459C309.51 624.019 307.67 624.749 306.85 626.189C306.68 626.479 306.49 626.899 306.42 627.229C306.21 628.119 306.27 629.209 306.78 629.999C307.27 630.759 308.02 631.459 308.93 631.649C308.96 631.659 308.98 631.659 309.01 631.669C308.99 631.659 308.96 631.649 308.94 631.639C310.11 631.999 311.38 631.819 312.38 631.039C313.52 630.169 314.19 628.529 313.73 627.089Z" fill="#193F63"/>
<path d="M278.67 638.99C278.27 637.75 277.32 636.71 276.04 636.36C274.45 635.92 272.61 636.65 271.79 638.09C271.62 638.38 271.43 638.8 271.36 639.13C271.15 640.02 271.21 641.11 271.72 641.9C272.21 642.66 272.96 643.36 273.87 643.55C273.9 643.56 273.92 643.56 273.95 643.57C273.93 643.56 273.9 643.55 273.88 643.54C275.05 643.9 276.32 643.72 277.32 642.94C278.47 642.06 279.14 640.42 278.67 638.99Z" fill="#193F63"/>
<path d="M243.41 591.89C263.99 622.58 280.57 655.94 292.56 690.89" stroke="#193F63" stroke-width="0.75" stroke-miterlimit="10"/>
<path d="M307.991 669.68C312.746 669.68 316.601 665.825 316.601 661.07C316.601 656.315 312.746 652.46 307.991 652.46C303.236 652.46 299.381 656.315 299.381 661.07C299.381 665.825 303.236 669.68 307.991 669.68Z" fill="#FFE8E2"/>
<path d="M307.99 664.899C310.105 664.899 311.82 663.185 311.82 661.069C311.82 658.954 310.105 657.239 307.99 657.239C305.875 657.239 304.16 658.954 304.16 661.069C304.16 663.185 305.875 664.899 307.99 664.899Z" stroke="#193F63" stroke-width="0.75" stroke-miterlimit="10"/>
<path d="M296 553.14C306.27 560.5 310.27 574.12 310.02 586.75C309.77 599.38 306.04 611.65 303.99 624.12C301.94 636.59 301.74 650.08 307.98 661.06" stroke="#193F63" stroke-miterlimit="10"/>
<path d="M421.31 612.668L414.797 619.474L449.918 653.083L456.431 646.277L421.31 612.668Z" fill="#FFE8E2"/>
<path d="M415.699 605.404L407.285 614.197L408.795 615.642L417.21 606.849L415.699 605.404Z" fill="#F4D2CB"/>
<path d="M435.771 628.104L430.855 633.241L432.366 634.686L437.281 629.549L435.771 628.104Z" fill="#F4D2CB"/>
<path d="M437.281 629.552L432.365 634.689L449.879 651.449L454.795 646.312L437.281 629.552Z" fill="#FFCD5E"/>
<path d="M413.572 610.612L412.396 611.84L432.72 631.289L433.896 630.061L413.572 610.612Z" fill="#F4D2CB"/>
<path d="M422.264 611.677L413.85 620.47L415.36 621.915L423.774 613.122L422.264 611.677Z" fill="#FFE8E2"/>
<path d="M456.841 651.68L455.661 652.9L451.961 650.96L454.741 648.06L456.841 651.68Z" fill="#7EABA7"/>
<path d="M456.25 652.289L466.17 661.789" stroke="#193F63" stroke-width="0.75" stroke-miterlimit="10"/>
<path d="M419.81 637.07C417.24 636.93 414.71 636.24 412.41 635.09C411.42 634.59 409.95 633.94 409.25 633.05C408.69 632.34 409.02 631.06 409.48 630.37C409.99 629.6 410.83 629.09 411.71 628.8C413.3 628.28 415.18 628.16 416.83 627.95C418.67 627.72 420.52 627.62 422.37 627.55" stroke="#193F63" stroke-width="0.75" stroke-miterlimit="10"/>
<path d="M406.719 651.85C405.709 651.75 404.969 650.69 405.009 649.67C405.059 648.65 405.739 647.75 406.589 647.19C407.439 646.63 408.449 646.37 409.449 646.15C412.359 645.53 415.349 645.25 418.319 645.34C414.819 644.87 410.579 644.16 407.639 642.2C406.769 641.62 405.899 640.68 406.159 639.67C406.399 638.76 407.419 638.33 408.319 638.07C410.229 637.52 412.199 637.17 414.179 637.02C415.939 636.89 418.079 636.62 419.799 637.08" stroke="#193F63" stroke-width="0.75" stroke-miterlimit="10"/>
<path d="M285.871 696.56C280.921 699.57 276.301 703.14 272.141 707.19" stroke="#193F63" stroke-width="0.75" stroke-miterlimit="10"/>
<path d="M291.619 698.33C289.079 702.14 287.139 706.33 285.859 710.73" stroke="#193F63" stroke-width="0.75" stroke-miterlimit="10"/>
<path d="M411.94 715.229C412.18 720.039 412.11 724.869 411.73 729.679" stroke="#193F63" stroke-width="0.75" stroke-miterlimit="10"/>
<path d="M415.01 708.75C416.57 715.81 417.12 723.09 416.62 730.31" stroke="#193F63" stroke-width="0.75" stroke-miterlimit="10"/>
</g>
<defs>
<clipPath id="clip0">
<rect width="560.54" height="370.45" fill="white" transform="translate(125 430)"/>
</clipPath>
</defs>
</svg>
