<svg width="71" height="72" viewBox="0 0 71 72" fill="none" xmlns="http://www.w3.org/2000/svg">
<g filter="url(#filter0_f)">
<g filter="url(#filter1_d)">
<circle cx="35.5" cy="32.5" r="31.5" fill="#2931B9" fill-opacity="0.78"/>
</g>
<path d="M39.5419 22C39.9312 22 40.2773 22.1694 40.4937 22.5504C40.71 23.0162 40.5369 23.6089 40.1475 23.9053L28.8558 32.6698L28.8558 32.7122L40.1043 41.519C40.5369 41.8577 40.71 42.4505 40.4071 42.9162C40.1043 43.4666 39.3688 43.5937 38.8496 43.2126L26.3897 33.559C26.1302 33.3473 26.0004 33.0509 26.0004 32.7545C26.0004 32.4158 26.1302 32.1194 26.3897 31.95L38.8496 22.254C39.066 22.0847 39.2823 22 39.5419 22Z" fill="black" stroke="white" stroke-width="3" stroke-miterlimit="10"/>
</g>
<defs>
<filter id="filter0_f" x="3" y="0" width="65" height="65" filterUnits="userSpaceOnUse" color-interpolation-filters="sRGB">
<feFlood flood-opacity="0" result="BackgroundImageFix"/>
<feBlend mode="normal" in="SourceGraphic" in2="BackgroundImageFix" result="shape"/>
<feGaussianBlur stdDeviation="0.5" result="effect1_foregroundBlur"/>
</filter>
<filter id="filter1_d" x="0" y="1" width="71" height="71" filterUnits="userSpaceOnUse" color-interpolation-filters="sRGB">
<feFlood flood-opacity="0" result="BackgroundImageFix"/>
<feColorMatrix in="SourceAlpha" type="matrix" values="0 0 0 0 0 0 0 0 0 0 0 0 0 0 0 0 0 0 127 0"/>
<feOffset dy="4"/>
<feGaussianBlur stdDeviation="2"/>
<feColorMatrix type="matrix" values="0 0 0 0 0 0 0 0 0 0 0 0 0 0 0 0 0 0 0.25 0"/>
<feBlend mode="normal" in2="BackgroundImageFix" result="effect1_dropShadow"/>
<feBlend mode="normal" in="SourceGraphic" in2="effect1_dropShadow" result="shape"/>
</filter>
</defs>
</svg>
