<svg width="327" height="76" viewBox="0 0 327 76" fill="none" xmlns="http://www.w3.org/2000/svg">
<g filter="url(#filter0_df)">
<path d="M4 30C4 13.9837 16.9837 1 33 1L294 1C310.016 1 323 13.9837 323 30V39C323 55.0163 310.016 68 294 68L33 68C16.9837 68 4 55.0163 4 39L4 30Z" fill="#2931B9" fill-opacity="0.78"/>
</g>
<path d="M45.5724 47.4141L38.6691 40.2366C40.4458 38.1241 41.4182 35.472 41.4182 32.7079C41.4182 26.2533 36.1644 21 29.7091 21C23.2538 21 18 26.2533 18 32.7079C18 39.1625 23.2538 44.4158 29.7091 44.4158C32.1324 44.4158 34.4436 43.6828 36.4189 42.2982L43.3731 49.5317C43.6633 49.832 44.0553 50 44.4727 50C44.8698 50 45.2465 49.8473 45.5316 49.5724C46.1375 48.987 46.1578 48.0198 45.5724 47.4141ZM29.7091 24.0542C34.4793 24.0542 38.3636 27.9382 38.3636 32.7079C38.3636 37.4776 34.4793 41.3616 29.7091 41.3616C24.9389 41.3616 21.0545 37.4776 21.0545 32.7079C21.0545 27.9382 24.9389 24.0542 29.7091 24.0542Z" fill="white"/>
<defs>
<filter id="filter0_df" x="0" y="0" width="327" height="76" filterUnits="userSpaceOnUse" color-interpolation-filters="sRGB">
<feFlood flood-opacity="0" result="BackgroundImageFix"/>
<feColorMatrix in="SourceAlpha" type="matrix" values="0 0 0 0 0 0 0 0 0 0 0 0 0 0 0 0 0 0 127 0"/>
<feOffset dy="4"/>
<feGaussianBlur stdDeviation="2"/>
<feColorMatrix type="matrix" values="0 0 0 0 0 0 0 0 0 0 0 0 0 0 0 0 0 0 0.25 0"/>
<feBlend mode="normal" in2="BackgroundImageFix" result="effect1_dropShadow"/>
<feBlend mode="normal" in="SourceGraphic" in2="effect1_dropShadow" result="shape"/>
<feGaussianBlur stdDeviation="0.5" result="effect2_foregroundBlur"/>
</filter>
</defs>
</svg>
