<svg width="453" height="329" viewBox="0 0 453 329" fill="none" xmlns="http://www.w3.org/2000/svg">
<path fill-rule="evenodd" clip-rule="evenodd" d="M418.982 74.7796C446.863 108.568 457.484 156.92 450.238 200.123C443.539 240.058 385.762 257.538 381.572 297.814C375.505 356.133 457.726 418.832 422.601 465.78C391.183 507.775 321.161 453.055 268.922 448.385C232.952 445.169 198.624 440.173 162.588 442.536C100.504 446.607 35.8309 496.29 -19.2085 467.278C-69.6431 440.694 -82.8311 369.315 -84.4377 312.326C-85.9582 258.388 -44.1892 215.039 -27.7684 163.638C-11.1911 111.748 -34.448 35.4308 12.7248 8.189C63.8421 -21.3307 124.574 39.2773 183.557 41.6002C224.127 43.1979 261.033 13.8854 301.236 19.5514C344.908 25.7062 390.912 40.7625 418.982 74.7796Z" fill="#3B909F"/>
</svg>
