<svg width="422" height="523" viewBox="0 0 422 523" fill="none" xmlns="http://www.w3.org/2000/svg">
<path fill-rule="evenodd" clip-rule="evenodd" d="M127.084 7.08278C163.931 27.1686 205.469 30.5858 244.909 44.926C304.015 66.4169 395.752 53.6986 417.545 112.694C439.279 171.532 358.398 219.707 330.159 275.714C310.619 314.465 309.472 363.532 276.714 391.999C244.939 419.612 194.337 405.917 157.301 425.929C111.075 450.908 88.397 522.058 35.8546 522.147C-13.9952 522.232 -33.2172 452.528 -75.6249 426.325C-127.79 394.094 -206.238 402.557 -240.26 351.541C-273.664 301.453 -264.001 230.781 -243.874 174.04C-224.813 120.307 -166.282 94.0071 -132.59 48.0138C-95.7931 -2.21711 -98.3062 -98.942 -36.7989 -108.637C30.404 -119.23 67.3498 -25.4792 127.084 7.08278Z" fill="#92B2C7"/>
</svg>
