<svg width="600" height="424" viewBox="0 0 600 424" fill="none" xmlns="http://www.w3.org/2000/svg">
<path fill-rule="evenodd" clip-rule="evenodd" d="M289.513 -185.513C315.446 -152.519 352.265 -132.99 382.847 -104.251C428.679 -61.1833 517.992 -36.6739 514.739 26.1338C511.495 88.7731 418.168 101.128 370.122 141.449C336.878 169.347 316.464 213.98 275.132 227.213C235.039 240.048 193.947 207.499 152.019 211.275C99.6881 215.988 50.7769 272.418 2.462 251.769C-43.3769 232.178 -33.5372 160.545 -62.1659 119.736C-97.3814 69.5368 -172.804 46.3609 -183.938 -13.9393C-194.869 -73.1438 -158.106 -134.27 -117.223 -178.466C-78.5081 -220.319 -14.349 -221.391 34.757 -250.359C88.3874 -281.997 124.242 -371.866 184.584 -356.506C250.515 -339.724 247.473 -239.002 289.513 -185.513Z" fill="#92B2C7"/>
</svg>
