<svg width="501" height="467" viewBox="0 0 501 467" fill="none" xmlns="http://www.w3.org/2000/svg">
<path fill-rule="evenodd" clip-rule="evenodd" d="M177.088 -103.917C213.935 -83.8314 255.473 -80.4142 294.912 -66.074C354.018 -44.5831 445.756 -57.3014 467.549 1.69416C489.282 60.5317 408.402 108.707 380.163 164.714C360.623 203.465 359.476 252.532 326.718 280.999C294.942 308.612 244.341 294.917 207.305 314.929C161.079 339.907 138.401 411.058 85.8585 411.147C36.0087 411.232 16.7867 341.528 -25.621 315.325C-77.786 283.094 -156.234 291.557 -190.256 240.541C-223.66 190.453 -213.998 119.781 -193.87 63.0399C-174.809 9.30677 -116.278 -16.9929 -82.5858 -62.9862C-45.7892 -113.217 -48.3023 -209.942 13.205 -219.637C80.4079 -230.23 117.354 -136.479 177.088 -103.917Z" fill="#92B2C7"/>
</svg>
