<svg width="407" height="602" viewBox="0 0 407 602" fill="none" xmlns="http://www.w3.org/2000/svg">
<path fill-rule="evenodd" clip-rule="evenodd" d="M356.319 49.3102C404.281 42.2683 446.944 -9.73313 494.367 1.61238C540.743 12.7075 581.423 57.7896 604.701 108.734C627.714 159.1 616.841 221.634 621.232 279.261C624.875 327.056 629.989 373.45 628.529 421.424C627.001 471.656 636.039 528.384 612.408 569.235C588.478 610.601 531.445 599.853 503.641 637.312C466.84 686.892 483.342 802.79 429.906 815.107C375.601 827.624 357.747 704.798 305.382 683.011C261.244 664.648 213.666 720.489 168.526 706.36C121.828 691.743 81.2365 651.207 52.05 603.716C21.8934 554.646 2.30263 493.992 0.136365 432.364C-2.00224 371.523 21.4489 314.955 39.9162 258.523C57.5364 204.679 71.9983 146.452 106.55 107.186C140.512 68.5905 186.811 50.6125 232.101 40.1181C273.325 30.5658 314.672 55.4247 356.319 49.3102Z" fill="#FFC155"/>
<g clip-path="url(#clip0)">
<path d="M227.219 209.314L235.676 190.276L244.952 195.896L258.251 176.053L246.957 207.684L237.867 200.283L227.219 209.314Z" fill="url(#paint0_linear)"/>
<path d="M236.504 268.215L256.919 272.195L253.535 282.511L275.822 291.042L242.519 287.118L247.678 276.581L236.504 268.215Z" fill="url(#paint1_linear)"/>
<path d="M237.771 238.013C236.099 237.438 236.34 234.992 238.09 234.764C246.08 233.727 257.787 230.591 261.622 221.202C267.641 206.465 255.177 149.656 312.43 139.491C365.244 130.116 394.656 146.858 393.989 195.749C393.339 243.141 317.321 265.362 237.771 238.013Z" fill="url(#paint2_linear)"/>
<path d="M333.08 152.003C332.159 150.801 330.869 150.205 329.569 150.377L314.945 152.324C313.745 152.482 312.651 153.285 311.925 154.536C311.2 155.787 310.907 157.375 311.117 158.915L316.875 200.815C317.081 202.327 317.758 203.668 318.745 204.519C319.733 205.37 320.943 205.659 322.099 205.321L327.547 203.726C329.359 203.196 330.711 201.221 330.907 198.82L334.325 156.572C334.46 154.884 334.002 153.206 333.08 152.003Z" fill="white"/>
<path d="M332.499 217.798C332.097 215.158 330.315 213.377 328.245 213.377H322.625C320.231 213.377 318.381 215.658 318.381 218.766V225.899C318.381 228.769 319.994 231.177 322.192 231.498L329.025 232.49C330.398 232.69 331.753 232.025 332.688 230.705C333.624 229.382 334.012 227.621 333.744 225.861L332.499 217.798Z" fill="white"/>
<path d="M68.4344 602C69.6003 602 70.6287 601.249 70.8281 600.184L108.66 399.553C108.884 398.367 107.989 397.244 106.665 397.044C105.341 396.844 104.086 397.644 103.862 398.829L66.0303 599.46C65.8068 600.646 66.701 601.769 68.0251 601.969C68.1627 601.989 68.3003 602 68.4344 602Z" fill="#91B3FA"/>
<path d="M196.061 602C196.22 602 196.381 601.986 196.543 601.955C197.86 601.717 198.713 600.57 198.445 599.391L153.848 401.369C153.583 400.19 152.304 399.422 150.983 399.667C149.666 399.904 148.813 401.052 149.078 402.23L193.675 600.253C193.912 601.283 194.926 602 196.061 602Z" fill="#91B3FA"/>
<path d="M97.3007 449.133H161.949C163.293 449.133 164.38 448.158 164.38 446.955C164.38 445.752 163.29 444.777 161.949 444.777H97.3007C95.956 444.777 94.8691 445.752 94.8691 446.955C94.8691 448.158 95.9594 449.133 97.3007 449.133Z" fill="#91B3FA"/>
<path d="M98.473 449.133H160.775C162.069 449.133 163.118 448.158 163.118 446.955C163.118 445.752 162.069 444.777 160.775 444.777H98.473C97.1798 444.777 96.1309 445.752 96.1309 446.955C96.1309 448.158 97.1798 449.133 98.473 449.133Z" fill="#91B3FA"/>
<path d="M97.3007 485.412H161.949C163.293 485.412 164.38 484.437 164.38 483.234C164.38 482.032 163.29 481.057 161.949 481.057H97.3007C95.956 481.057 94.8691 482.032 94.8691 483.234C94.8691 484.437 95.9594 485.412 97.3007 485.412Z" fill="#91B3FA"/>
<path d="M91.4296 485.412H169.807C171.152 485.412 172.239 484.437 172.239 483.234C172.239 482.032 171.149 481.057 169.807 481.057H91.4296C90.0849 481.057 88.998 482.032 88.998 483.234C88.998 484.437 90.0883 485.412 91.4296 485.412Z" fill="#91B3FA"/>
<path d="M97.3007 521.688H161.949C163.293 521.688 164.38 520.713 164.38 519.511C164.38 518.308 163.29 517.333 161.949 517.333H97.3007C95.956 517.333 94.8691 518.308 94.8691 519.511C94.8691 520.713 95.9594 521.688 97.3007 521.688Z" fill="#91B3FA"/>
<path d="M83.9452 521.688H177.762C179.106 521.688 180.193 520.713 180.193 519.511C180.193 518.308 179.103 517.333 177.762 517.333H83.9452C82.6005 517.333 81.5137 518.308 81.5137 519.511C81.5137 520.713 82.6005 521.688 83.9452 521.688Z" fill="#91B3FA"/>
<path d="M97.3007 557.964H185.305C186.65 557.964 187.736 556.989 187.736 555.786C187.736 554.584 186.646 553.608 185.305 553.608H97.3007C95.956 553.608 94.8691 554.584 94.8691 555.786C94.8691 556.989 95.9594 557.964 97.3007 557.964Z" fill="#91B3FA"/>
<path d="M77.8886 557.964H185.304C186.649 557.964 187.736 556.989 187.736 555.786C187.736 554.584 186.645 553.608 185.304 553.608H77.8886C76.5473 553.608 75.457 554.584 75.457 555.786C75.457 556.989 76.5473 557.964 77.8886 557.964Z" fill="#91B3FA"/>
<path d="M120.684 273.1C120.684 273.1 142.437 299.646 150.44 293.247C158.443 286.852 136.838 251.985 136.838 251.985L120.684 273.1Z" fill="url(#paint3_linear)"/>
<path d="M121.575 445.456C121.578 445.326 121.568 445.195 121.534 445.06C119.57 437.256 109.816 432.397 109.816 432.397L105.95 432.701C103.728 439.578 104.014 443.796 104.372 445.677C104.382 445.729 104.399 445.78 104.413 445.832C107.601 446.115 114.163 446.301 121.575 445.456Z" fill="url(#paint4_linear)"/>
<path d="M104.4 426.937L106.037 434.831C106.158 435.409 106.602 435.844 107.138 435.892C107.795 435.954 108.73 435.988 109.673 435.85C110.519 435.726 111.104 434.865 110.956 433.945L109.817 426.937H104.4Z" fill="url(#paint5_linear)"/>
<path d="M155.803 445.112C155.776 445.053 155.752 444.991 155.711 444.936C153.64 442.038 148.371 436.27 137.957 433.769L132.96 433.61C132.96 433.61 130.735 437.483 130.693 444.661C131.835 445.129 134.043 445.632 138.308 445.753C144.908 445.936 152.732 445.367 155.803 445.112Z" fill="url(#paint6_linear)"/>
<path d="M132.033 426.026C132.088 426.398 132.773 432.07 133.037 434.268C133.099 434.792 133.478 435.195 133.956 435.253C134.805 435.357 136.184 435.446 137.388 435.202C138.038 435.067 138.509 434.444 138.509 433.717V424.816L132.033 426.026Z" fill="url(#paint7_linear)"/>
<path d="M128.023 322.535C128.023 322.535 140.074 368.418 139.854 426.157C139.851 427.208 139.111 428.117 138.083 428.334C136.566 428.655 134.341 429.034 132.498 428.982C131.514 428.955 130.692 428.224 130.523 427.252C128.835 417.326 119.136 361.399 113.612 352.32C113.612 352.32 109.977 402.13 111.14 427.973C111.167 428.614 110.699 429.172 110.06 429.248C109.093 429.361 107.546 429.444 105.575 429.234C104.829 429.154 104.223 428.589 104.117 427.842C102.913 419.441 95.9862 369.431 96.2785 333.403C96.2957 331.37 101.64 322.539 101.64 322.539H128.023V322.535Z" fill="url(#paint8_linear)"/>
<path d="M136.327 252.213C119.742 249.812 101.525 252.017 92.6822 253.13C89.8207 253.492 87.2 254.904 85.3153 257.092C77.8349 265.765 61.4158 289.516 80.7411 313.446C83.2139 312.071 86.7288 309.866 89.1157 307.313C86.9765 301.276 86.8011 293.558 91.2824 284.099C91.4372 284.851 91.6264 285.591 91.8534 286.322C98.0269 305.921 98.357 322.233 98.3433 325.992C98.3398 326.502 98.6459 326.964 99.1205 327.153C107.248 330.416 122.893 328.473 128.145 327.691C129.108 327.546 129.754 326.65 129.623 325.682C127.777 312.271 134.05 292.665 139.037 279.792C141.004 274.703 137.358 253.636 136.327 252.213Z" fill="url(#paint9_linear)"/>
<path d="M109.893 232.721L107.603 251.682C107.5 252.544 108.026 253.357 108.858 253.598C111.345 254.325 116.665 255.428 121.525 253.426C122.447 253.047 122.956 252.044 122.746 251.069L119.85 237.724L109.893 232.721Z" fill="url(#paint10_linear)"/>
<path d="M124.734 219.244C124.879 219.506 127.943 238.977 127.943 238.977L116.81 240.493L111.17 222.473C111.166 222.469 122.344 214.865 124.734 219.244Z" fill="url(#paint11_linear)"/>
<path d="M115.295 224.264C114.978 224.654 114.858 225.164 114.971 225.653L117.166 235.232C117.2 235.377 117.252 235.514 117.324 235.645C117.723 236.366 119.174 238.55 121.368 236.934C123.239 235.556 124.98 234.315 126.493 234.064C127.377 233.916 128.206 234.536 128.343 235.421C128.625 237.248 129.117 240.948 129.093 244.297C129.086 245.138 128.429 245.824 127.594 245.886C125.389 246.041 121.073 246.217 117.503 245.576C116.915 245.469 116.437 245.052 116.251 244.484C115.436 241.985 113.125 234.998 112.168 233.123C111.281 231.383 108.695 231.087 107.501 231.045C107.047 231.028 106.624 230.828 106.329 230.484C105.438 229.454 104.045 227.155 106.731 224.912C107.398 224.354 107.477 223.348 106.934 222.666C105.961 221.446 105.114 219.478 107.199 217.414C109.31 215.326 111.697 215.857 113.207 216.563C113.878 216.877 114.703 216.739 115.181 216.177C115.394 215.926 115.711 215.757 116.175 215.812C117.056 215.912 117.843 215.333 117.95 214.451C118.132 212.938 118.94 211.164 121.609 210.654C126.503 209.72 128.931 214.634 128.832 218.079C128.735 221.525 123.37 222.235 120.33 221.656C118.105 221.229 116.165 223.193 115.295 224.264Z" fill="url(#paint12_linear)"/>
<path d="M113.014 236.652C113.014 236.652 112.924 230.639 110.496 230.067C108.068 229.495 105.444 231.249 107.511 234.853C110.083 239.34 113.014 236.652 113.014 236.652Z" fill="url(#paint13_linear)"/>
<path d="M90.4605 282.631C87.1863 273.649 88.3729 262.805 88.3866 262.698L89.2877 262.802C89.274 262.908 88.1115 273.545 91.3135 282.321L90.4605 282.631Z" fill="url(#paint14_linear)"/>
<path d="M113.177 351.148C112.974 351.148 112.792 351.013 112.737 350.807C111.736 346.944 104.255 342.703 104.18 342.658C103.96 342.534 103.884 342.258 104.004 342.038C104.128 341.817 104.403 341.741 104.623 341.862C104.947 342.041 112.52 346.338 113.617 350.576C113.679 350.821 113.535 351.069 113.29 351.131C113.252 351.141 113.211 351.148 113.177 351.148Z" fill="url(#paint15_linear)"/>
<path d="M89.1129 307.312C86.7261 309.866 83.2111 312.071 80.7383 313.446C84.4321 318.018 89.4293 322.597 96.043 327.08L96.8444 328.879C97.5288 330.419 99.0283 331.443 100.71 331.522C109.955 331.963 112.514 329.999 104.002 324.052C104.005 324.052 93.1197 318.625 89.1129 307.312Z" fill="url(#paint16_linear)"/>
<path d="M157.085 267.119C157.085 267.119 145.419 279.269 142.723 283.676C140.026 288.083 143.029 296.111 149.151 294.247C155.272 292.383 162.402 271.302 162.402 271.302L157.085 267.119Z" fill="url(#paint17_linear)"/>
<path d="M137.559 249.863C137.559 249.863 147.811 276.95 151.047 282.587C154.807 289.127 165.788 284.961 165.241 279.486C164.694 274.011 151.866 251.386 151.866 251.386L137.559 249.863Z" fill="url(#paint18_linear)"/>
<path d="M151.41 230.13L215.126 207.998L214.459 267.894L149.666 253.409L151.41 230.13Z" fill="url(#paint19_linear)"/>
<path d="M221.449 238.12C221.449 255.121 218.646 268.9 215.189 268.9C211.733 268.9 208.93 255.117 208.93 238.12C208.93 221.119 211.733 207.34 215.189 207.34C218.646 207.336 221.449 221.119 221.449 238.12Z" fill="url(#paint20_linear)"/>
<path d="M215.663 266.795C215.099 266.22 213.864 263.994 212.809 258.243C211.787 252.685 211.227 245.477 211.227 237.944C211.227 230.412 211.791 223.204 212.809 217.646C213.864 211.895 215.099 209.669 215.663 209.094C216.231 209.669 217.462 211.895 218.518 217.646C219.539 223.204 220.1 230.412 220.1 237.944C220.1 245.477 219.536 252.685 218.518 258.243C217.462 263.994 216.227 266.22 215.663 266.795Z" fill="url(#paint21_linear)"/>
<path d="M223.686 237.717C223.686 242.947 220.872 247.185 215.308 247.185C209.743 247.185 205.23 242.947 205.23 237.717C205.23 232.486 209.743 228.248 215.308 228.248C220.872 228.245 223.686 232.486 223.686 237.717Z" fill="url(#paint22_linear)"/>
<path d="M141.131 228.84C144.13 228.492 148.425 228.365 153.075 229.433C151.545 237.448 151.775 245.797 153.546 254.445H140.439C138.348 254.445 136.567 252.926 136.24 250.855C135.586 246.71 134.788 239.743 135.638 234.147C136.068 231.342 138.314 229.171 141.131 228.84Z" fill="url(#paint23_linear)"/>
<path d="M148.999 235.132H138.788C138.393 235.132 138.025 234.915 137.835 234.564C137.646 234.216 137.66 233.788 137.877 233.454C138 233.261 138.258 233.206 138.451 233.33C138.644 233.454 138.699 233.713 138.575 233.906C138.503 234.019 138.544 234.126 138.565 234.164C138.585 234.205 138.65 234.298 138.788 234.298H148.999C149.14 234.298 149.254 234.185 149.254 234.043V233.316C149.254 233.175 149.14 233.061 148.999 233.061H138.712C138.482 233.061 138.296 232.875 138.296 232.644C138.296 232.414 138.482 232.228 138.712 232.228H148.999C149.598 232.228 150.083 232.713 150.083 233.313V234.04C150.083 234.643 149.598 235.132 148.999 235.132Z" fill="url(#paint24_linear)"/>
<path d="M148.087 239.663H137.876C137.48 239.663 137.112 239.446 136.923 239.098C136.734 238.75 136.748 238.323 136.965 237.989C137.088 237.796 137.346 237.741 137.539 237.865C137.731 237.989 137.787 238.247 137.663 238.44C137.587 238.554 137.632 238.661 137.652 238.699C137.673 238.74 137.738 238.83 137.876 238.83H148.087C148.228 238.83 148.342 238.716 148.342 238.575V237.848C148.342 237.706 148.228 237.593 148.087 237.593H137.8C137.57 237.593 137.384 237.407 137.384 237.176C137.384 236.945 137.57 236.759 137.8 236.759H148.087C148.686 236.759 149.171 237.245 149.171 237.844V238.571C149.171 239.178 148.686 239.663 148.087 239.663Z" fill="url(#paint25_linear)"/>
<path d="M160.669 228.662C160.493 228.662 160.328 228.548 160.273 228.372C160.204 228.152 160.325 227.921 160.542 227.849L208.801 212.464C209.022 212.395 209.252 212.515 209.324 212.732C209.393 212.953 209.273 213.184 209.056 213.256L160.796 228.641C160.751 228.655 160.71 228.662 160.669 228.662Z" fill="url(#paint26_linear)"/>
<path d="M154.141 231.336C153.976 231.336 153.821 231.24 153.755 231.078C153.669 230.864 153.769 230.623 153.982 230.537L156.466 229.52C156.679 229.434 156.92 229.534 157.006 229.748C157.092 229.961 156.992 230.202 156.779 230.289L154.295 231.305C154.247 231.326 154.192 231.336 154.141 231.336Z" fill="url(#paint27_linear)"/>
<path d="M148.999 244.97H138.788C138.393 244.97 138.025 244.753 137.835 244.405C137.646 244.053 137.66 243.629 137.877 243.295C138 243.102 138.258 243.047 138.451 243.171C138.644 243.295 138.699 243.553 138.575 243.746C138.499 243.86 138.544 243.967 138.565 244.005C138.585 244.046 138.65 244.139 138.788 244.139H148.999C149.14 244.139 149.254 244.026 149.254 243.884V243.157C149.254 243.016 149.14 242.902 148.999 242.902H138.712C138.482 242.902 138.296 242.716 138.296 242.485C138.296 242.254 138.482 242.068 138.712 242.068H148.999C149.598 242.068 150.083 242.554 150.083 243.154V243.881C150.083 244.484 149.598 244.97 148.999 244.97Z" fill="url(#paint28_linear)"/>
<path d="M149.956 250.862H139.745C139.346 250.862 138.982 250.645 138.792 250.293C138.603 249.945 138.617 249.518 138.834 249.184C138.957 248.991 139.215 248.936 139.408 249.06C139.601 249.184 139.656 249.442 139.532 249.635C139.46 249.749 139.501 249.856 139.522 249.894C139.542 249.935 139.608 250.028 139.745 250.028H149.956C150.097 250.028 150.211 249.914 150.211 249.773V249.046C150.211 248.905 150.097 248.791 149.956 248.791H139.669C139.439 248.791 139.253 248.605 139.253 248.374C139.253 248.143 139.439 247.957 139.669 247.957H149.956C150.555 247.957 151.04 248.443 151.04 249.042V249.769C151.04 250.372 150.555 250.862 149.956 250.862Z" fill="url(#paint29_linear)"/>
<path d="M159.077 282.886C158.596 282.886 158.107 282.834 157.622 282.728C155.497 282.262 153.77 280.86 152.879 278.879L144.722 260.717C144.629 260.507 144.722 260.262 144.931 260.169C145.141 260.076 145.385 260.169 145.478 260.379L153.636 278.538C154.417 280.278 155.937 281.508 157.801 281.914C159.631 282.314 161.485 281.839 162.884 280.612C162.96 280.547 163.036 280.478 163.115 280.405C163.283 280.25 163.545 280.261 163.699 280.433C163.854 280.602 163.844 280.864 163.672 281.019C163.589 281.094 163.51 281.167 163.428 281.236C162.203 282.318 160.669 282.886 159.077 282.886Z" fill="url(#paint30_linear)"/>
<path d="M143.892 258.281C143.734 258.281 143.583 258.191 143.514 258.036L142.602 256.01C142.51 255.8 142.602 255.555 142.812 255.459C143.022 255.366 143.266 255.459 143.362 255.669L144.274 257.695C144.367 257.905 144.274 258.15 144.064 258.243C144.006 258.267 143.947 258.281 143.892 258.281Z" fill="url(#paint31_linear)"/>
<path d="M222.194 237.596C221.978 237.596 221.795 237.427 221.782 237.21C221.603 234.695 220.739 232.824 219.209 231.646C216.561 229.606 212.75 230.302 212.709 230.312C212.485 230.353 212.265 230.209 212.224 229.981C212.183 229.757 212.327 229.537 212.554 229.495C212.726 229.461 216.76 228.717 219.711 230.984C221.438 232.314 222.414 234.388 222.61 237.152C222.628 237.379 222.456 237.579 222.225 237.596C222.215 237.596 222.205 237.596 222.194 237.596Z" fill="url(#paint32_linear)"/>
<path d="M152.668 260.135C152.668 260.135 155.99 257.309 158.59 260.135C161.187 262.96 161.703 267.894 161.173 268.135C160.643 268.373 144.582 264.38 152.668 260.135Z" fill="url(#paint33_linear)"/>
</g>
<defs>
<linearGradient id="paint0_linear" x1="224.741" y1="197.99" x2="261.302" y2="189.988" gradientUnits="userSpaceOnUse">
<stop stop-color="#E1473D"/>
<stop offset="1" stop-color="#E9605A"/>
</linearGradient>
<linearGradient id="paint1_linear" x1="246.958" y1="263.251" x2="263.029" y2="297.113" gradientUnits="userSpaceOnUse">
<stop stop-color="#E1473D"/>
<stop offset="1" stop-color="#E9605A"/>
</linearGradient>
<linearGradient id="paint2_linear" x1="315.747" y1="171.567" x2="313.637" y2="387.478" gradientUnits="userSpaceOnUse">
<stop stop-color="#FE7062"/>
<stop offset="1" stop-color="#FF928E"/>
</linearGradient>
<linearGradient id="paint3_linear" x1="154.155" y1="266.868" x2="95.8521" y2="298.834" gradientUnits="userSpaceOnUse">
<stop stop-color="#09005D"/>
<stop offset="1" stop-color="#1A0F91"/>
</linearGradient>
<linearGradient id="paint4_linear" x1="39.6035" y1="439.234" x2="148.076" y2="439.234" gradientUnits="userSpaceOnUse">
<stop stop-color="#4042E2"/>
<stop offset="1" stop-color="#4F52FF"/>
</linearGradient>
<linearGradient id="paint5_linear" x1="108.982" y1="419.338" x2="105.638" y2="448.472" gradientUnits="userSpaceOnUse">
<stop stop-color="#FF928E"/>
<stop offset="1" stop-color="#FEB3B1"/>
</linearGradient>
<linearGradient id="paint6_linear" x1="149.232" y1="437.348" x2="121.992" y2="448.621" gradientUnits="userSpaceOnUse">
<stop stop-color="#4042E2"/>
<stop offset="1" stop-color="#4F52FF"/>
</linearGradient>
<linearGradient id="paint7_linear" x1="136.123" y1="422.453" x2="132.779" y2="451.587" gradientUnits="userSpaceOnUse">
<stop stop-color="#FF928E"/>
<stop offset="1" stop-color="#FEB3B1"/>
</linearGradient>
<linearGradient id="paint8_linear" x1="94.9319" y1="406.154" x2="167.324" y2="318.413" gradientUnits="userSpaceOnUse">
<stop stop-color="#FE7062"/>
<stop offset="1" stop-color="#FF928E"/>
</linearGradient>
<linearGradient id="paint9_linear" x1="137.189" y1="223.24" x2="42.9953" y2="429.559" gradientUnits="userSpaceOnUse">
<stop stop-color="#09005D"/>
<stop offset="1" stop-color="#1A0F91"/>
</linearGradient>
<linearGradient id="paint10_linear" x1="114.586" y1="238.345" x2="115.506" y2="258.56" gradientUnits="userSpaceOnUse">
<stop stop-color="#FF928E"/>
<stop offset="1" stop-color="#FEB3B1"/>
</linearGradient>
<linearGradient id="paint11_linear" x1="106.468" y1="236.767" x2="122.299" y2="229.209" gradientUnits="userSpaceOnUse">
<stop stop-color="#FF928E"/>
<stop offset="1" stop-color="#FEB3B1"/>
</linearGradient>
<linearGradient id="paint12_linear" x1="109.239" y1="236.085" x2="132.907" y2="223.149" gradientUnits="userSpaceOnUse">
<stop stop-color="#2B3582"/>
<stop offset="1" stop-color="#150E42"/>
</linearGradient>
<linearGradient id="paint13_linear" x1="120.437" y1="208.786" x2="111.006" y2="231.515" gradientUnits="userSpaceOnUse">
<stop stop-color="#FF928E"/>
<stop offset="1" stop-color="#FEB3B1"/>
</linearGradient>
<linearGradient id="paint14_linear" x1="105.628" y1="243.465" x2="79.2156" y2="291.901" gradientUnits="userSpaceOnUse">
<stop stop-color="#4042E2"/>
<stop offset="1" stop-color="#4F52FF"/>
</linearGradient>
<linearGradient id="paint15_linear" x1="103.946" y1="346.477" x2="113.63" y2="346.477" gradientUnits="userSpaceOnUse">
<stop stop-color="#E1473D"/>
<stop offset="1" stop-color="#E9605A"/>
</linearGradient>
<linearGradient id="paint16_linear" x1="80.7398" y1="319.447" x2="109.194" y2="319.447" gradientUnits="userSpaceOnUse">
<stop stop-color="#FF928E"/>
<stop offset="1" stop-color="#FEB3B1"/>
</linearGradient>
<linearGradient id="paint17_linear" x1="147.346" y1="273.788" x2="157.567" y2="288.71" gradientUnits="userSpaceOnUse">
<stop stop-color="#FF928E"/>
<stop offset="1" stop-color="#FEB3B1"/>
</linearGradient>
<linearGradient id="paint18_linear" x1="135.442" y1="287.039" x2="157.897" y2="256.973" gradientUnits="userSpaceOnUse">
<stop stop-color="#2B3582"/>
<stop offset="1" stop-color="#150E42"/>
</linearGradient>
<linearGradient id="paint19_linear" x1="173.166" y1="214.232" x2="214.056" y2="286.924" gradientUnits="userSpaceOnUse">
<stop stop-color="#4042E2"/>
<stop offset="1" stop-color="#4F52FF"/>
</linearGradient>
<linearGradient id="paint20_linear" x1="250.109" y1="223.541" x2="208.56" y2="240.821" gradientUnits="userSpaceOnUse">
<stop stop-color="#09005D"/>
<stop offset="1" stop-color="#1A0F91"/>
</linearGradient>
<linearGradient id="paint21_linear" x1="208.267" y1="238.618" x2="224.745" y2="237.123" gradientUnits="userSpaceOnUse">
<stop stop-color="#4042E2"/>
<stop offset="1" stop-color="#4F52FF"/>
</linearGradient>
<linearGradient id="paint22_linear" x1="229.055" y1="236.925" x2="184.614" y2="239.47" gradientUnits="userSpaceOnUse">
<stop stop-color="#2B3582"/>
<stop offset="1" stop-color="#150E42"/>
</linearGradient>
<linearGradient id="paint23_linear" x1="144.874" y1="252.743" x2="143.229" y2="211.416" gradientUnits="userSpaceOnUse">
<stop stop-color="#2B3582"/>
<stop offset="1" stop-color="#150E42"/>
</linearGradient>
<linearGradient id="paint24_linear" x1="137.702" y1="233.682" x2="150.082" y2="233.682" gradientUnits="userSpaceOnUse">
<stop stop-color="#DAE3FE"/>
<stop offset="1" stop-color="#E9EFFD"/>
</linearGradient>
<linearGradient id="paint25_linear" x1="136.791" y1="238.213" x2="149.171" y2="238.213" gradientUnits="userSpaceOnUse">
<stop stop-color="#DAE3FE"/>
<stop offset="1" stop-color="#E9EFFD"/>
</linearGradient>
<linearGradient id="paint26_linear" x1="160.252" y1="220.553" x2="209.342" y2="220.553" gradientUnits="userSpaceOnUse">
<stop stop-color="#DAE3FE"/>
<stop offset="1" stop-color="#E9EFFD"/>
</linearGradient>
<linearGradient id="paint27_linear" x1="153.726" y1="230.41" x2="157.039" y2="230.41" gradientUnits="userSpaceOnUse">
<stop stop-color="#DAE3FE"/>
<stop offset="1" stop-color="#E9EFFD"/>
</linearGradient>
<linearGradient id="paint28_linear" x1="137.702" y1="243.52" x2="150.082" y2="243.52" gradientUnits="userSpaceOnUse">
<stop stop-color="#DAE3FE"/>
<stop offset="1" stop-color="#E9EFFD"/>
</linearGradient>
<linearGradient id="paint29_linear" x1="138.659" y1="249.411" x2="151.039" y2="249.411" gradientUnits="userSpaceOnUse">
<stop stop-color="#DAE3FE"/>
<stop offset="1" stop-color="#E9EFFD"/>
</linearGradient>
<linearGradient id="paint30_linear" x1="144.683" y1="271.51" x2="163.809" y2="271.51" gradientUnits="userSpaceOnUse">
<stop stop-color="#DAE3FE"/>
<stop offset="1" stop-color="#E9EFFD"/>
</linearGradient>
<linearGradient id="paint31_linear" x1="142.566" y1="256.851" x2="144.306" y2="256.851" gradientUnits="userSpaceOnUse">
<stop stop-color="#DAE3FE"/>
<stop offset="1" stop-color="#E9EFFD"/>
</linearGradient>
<linearGradient id="paint32_linear" x1="212.218" y1="233.473" x2="222.609" y2="233.473" gradientUnits="userSpaceOnUse">
<stop stop-color="#DAE3FE"/>
<stop offset="1" stop-color="#E9EFFD"/>
</linearGradient>
<linearGradient id="paint33_linear" x1="150.397" y1="263.511" x2="161.359" y2="263.511" gradientUnits="userSpaceOnUse">
<stop stop-color="#FF928E"/>
<stop offset="1" stop-color="#FEB3B1"/>
</linearGradient>
<clipPath id="clip0">
<rect width="328" height="465" fill="white" transform="translate(66 137)"/>
</clipPath>
</defs>
</svg>
