<svg width="592" height="162" viewBox="0 0 592 162" fill="none" xmlns="http://www.w3.org/2000/svg">
<path fill-rule="evenodd" clip-rule="evenodd" d="M950.693 -299.895C959.124 -243.428 977.733 -185.056 960.574 -130.524C943.331 -75.7267 895.03 -36.1733 854.521 5.73816C813.33 48.3555 776.992 103.06 718.903 119.516C659.934 136.22 598.973 92.784 537.521 95.5354C476.394 98.2723 418.492 154.355 360.433 135.565C302.242 116.733 293.807 34.5595 243.668 0.436413C189.042 -36.74 102.829 -21.5705 58.591 -69.858C16.3479 -115.968 18.3146 -186.531 16.2028 -247.85C14.1768 -306.678 20.8972 -366.999 46.5195 -420.374C71.0531 -471.482 135.618 -496.139 159.965 -547.329C189.723 -609.896 147.62 -703.679 202.336 -747.986C254.466 -790.198 338.282 -734.205 405.386 -746.058C468.479 -757.203 517.911 -813.468 582.069 -815.061C646.448 -816.66 709.049 -788.415 763.341 -754.946C816.652 -722.082 865.995 -678.552 892.894 -623.451C919.139 -569.688 902.715 -506.526 913.164 -448.035C922.187 -397.525 943.119 -350.621 950.693 -299.895Z" fill="#F9B466"/>
</svg>
